<svg id="Capa_1" enable-background="new 0 0 509 509" height="512" viewBox="0 0 509 509" width="512" xmlns="http://www.w3.org/2000/svg"><g><g><g><path d="m233.249 371.318h-9.192-3.236c-1.131 0-2.048-.917-2.048-2.048v-24.544-56.517h-65.123v56.505 24.556c0 1.131-.917 2.048-2.048 2.048h-3.236-9.191-2.048c-50.135 0-90.778 40.643-90.778 90.778v2.048 28.744.19c0 4.651 3.77 8.421 8.421 8.421h.19 262.503.19c4.651 0 8.422-3.771 8.422-8.422v-.19-28.744c0-51.265-41.56-92.825-92.826-92.825z" fill="#60b7ff"/></g></g><g><g><path d="m233.249 371.318h-9.192-3.236c-1.131 0-2.048-.917-2.048-2.048v-24.544-56.517h-30v56.517 24.544c0 1.131.917 2.048 2.048 2.048h3.236 9.192c51.266 0 92.826 41.56 92.826 92.826v28.744.19c0 4.651-3.771 8.421-8.422 8.421h29.81.19c4.651 0 8.422-3.771 8.422-8.421v-.19-28.744c0-51.266-41.56-92.826-92.826-92.826z" fill="#26a6fe"/></g></g><g><g><ellipse cx="73.099" cy="218.611" fill="#ffcdbe" rx="35.471" ry="35.966"/></g></g><g><g><ellipse cx="299.801" cy="218.611" fill="#ffcdbe" rx="35.471" ry="35.966"/></g></g><g><g><path d="m295.832 275.563c2.577-8.561 3.969-17.637 3.969-27.039v-85.001c0-61.221-49.629-110.85-110.85-110.85h-5.002c-61.221 0-110.85 49.629-110.85 110.85v85.001c0 9.402 1.391 18.478 3.969 27.039z" fill="#ffcdbe"/></g></g><g><g><path d="m263.477 161.971v80.683c0 7.397-5.996 13.393-13.393 13.393h-129.154c-7.397 0-13.393-5.996-13.393-13.393v-80.683h-34.438v84.44c0 52.895 42.88 95.776 95.776 95.776h35.151c52.895 0 95.776-42.88 95.776-95.776v-84.44z" fill="#ac5e2e"/></g></g><g><g><path d="m269.801 161.971v84.44c0 52.896-42.88 95.776-95.776 95.776h30c52.895 0 95.776-42.88 95.776-95.776v-84.44z" fill="#9e5528"/></g></g><g><g><path d="m317.032 111.596c-6.538-58.562-56.202-104.096-116.51-104.096h-24.054c-60.307 0-109.972 45.534-116.51 104.096z" fill="#60b7ff"/></g></g><g><g><path d="m200.522 7.5h-24.054c-.994 0-1.985.014-2.973.039 58.96 1.467 107.107 46.461 113.537 104.057h30c-6.538-58.562-56.202-104.096-116.51-104.096z" fill="#26a6fe"/></g></g><g><g><path d="m49.126 95.649v62.693c0 16.272 13.191 29.463 29.463 29.463h48.743c20.777 0 37.619-16.843 37.619-37.619 0-4.505 3.652-8.156 8.156-8.156h26.209c4.505 0 8.156 3.652 8.156 8.156 0 20.776 16.843 37.619 37.619 37.619h48.743c16.272 0 29.463-13.191 29.463-29.463v-62.648c0-7.373-4.994-13.81-12.135-15.644l-1.778-.457c-81.424-20.898-166.825-20.752-248.176.427-7.115 1.852-12.082 8.277-12.082 15.629z" fill="#f7f7f7"/></g></g><g><g><path d="m218.569 501.5h-69.423v-36.897c0-8.93 7.239-16.169 16.169-16.169h37.085c8.93 0 16.169 7.239 16.169 16.169z" fill="#f7f7f7"/></g></g><g><g><path d="m362.932 501.5 7.144-417.395c.462-22.856-17.939-41.633-40.8-41.633s-41.262 18.777-40.8 41.633l7.144 417.395z" fill="#eb5569"/></g></g><g><g><path d="m329.275 42.472c-5.302 0-10.358 1.021-15 2.857 15.376 6.082 26.155 21.22 25.8 38.776l-7.143 417.395h30l7.144-417.395c.461-22.855-17.94-41.633-40.801-41.633z" fill="#e53950"/></g></g><g><g><path d="m366.119 315.279.662-38.659c.353-20.595-16.246-37.48-36.844-37.48h-1.323c-20.598 0-37.196 16.885-36.844 37.48l.662 38.659c.344 20.103 16.738 36.219 36.844 36.219 20.104 0 36.499-16.116 36.843-36.219z" fill="#0182fc"/></g></g><g><g><path d="m329.936 239.14h-1.323c-5.089 0-9.933 1.034-14.339 2.897 13.425 5.677 22.771 19.077 22.506 34.583l-.662 38.659c-.253 14.763-9.166 27.366-21.844 33.025 4.586 2.047 9.659 3.194 15 3.194 20.105 0 36.5-16.116 36.844-36.219l.662-38.659c.353-20.595-16.246-37.48-36.844-37.48z" fill="#0172fb"/></g></g><g><g><path d="m474.568 501.5 7.143-417.395c.462-22.856-17.94-41.633-40.8-41.633s-41.262 18.777-40.8 41.633l7.144 417.395z" fill="#eb5569"/></g></g><g><g><path d="m440.911 42.472c-5.302 0-10.358 1.021-15 2.857 15.376 6.082 26.155 21.22 25.8 38.776l-7.143 417.395h30l7.143-417.395c.463-22.855-17.939-41.633-40.8-41.633z" fill="#e53950"/></g></g><g><g><path d="m477.755 315.279.662-38.659c.353-20.595-16.246-37.48-36.844-37.48h-1.323c-20.598 0-37.196 16.885-36.844 37.48l.662 38.659c.344 20.103 16.738 36.219 36.844 36.219 20.105 0 36.499-16.116 36.843-36.219z" fill="#0182fc"/></g></g><g><g><path d="m441.573 239.14h-1.323c-5.089 0-9.933 1.034-14.339 2.897 13.425 5.677 22.771 19.077 22.506 34.583l-.662 38.659c-.253 14.763-9.166 27.366-21.844 33.025 4.586 2.047 9.659 3.194 15 3.194 20.105 0 36.5-16.116 36.844-36.219l.662-38.659c.352-20.595-16.246-37.48-36.844-37.48z" fill="#0172fb"/></g></g><g><g><path d="m149.477 65.398c.722 19.671 16.887 35.398 36.735 35.398 19.845 0 36.009-15.724 36.735-35.391-24.457-1.821-49.014-1.82-73.47-.007z" fill="#fed402"/></g></g><g><g><path d="m49.126 161.971h-2.583c-10.639 0-19.264-8.625-19.264-19.264v-28.748c0-10.639 8.625-19.264 19.264-19.264h2.583z" fill="#fac600"/></g></g><g><path d="m159.464 219.863c0-4.142-3.358-7.5-7.5-7.5h-23.194c-4.142 0-7.5 3.358-7.5 7.5s3.358 7.5 7.5 7.5h12.201c-.564 1.198-.89 2.535-.89 3.951 0 5.077 4.059 9.192 9.066 9.192s9.066-4.115 9.066-9.192c0-2.04-.663-3.919-1.772-5.443 1.831-1.368 3.023-3.546 3.023-6.008z"/><path d="m215.481 219.863c0 2.462 1.192 4.64 3.024 6.008-1.109 1.525-1.772 3.403-1.772 5.443 0 5.077 4.059 9.192 9.066 9.192s9.066-4.115 9.066-9.192c0-1.417-.325-2.753-.89-3.951h12.201c4.142 0 7.5-3.358 7.5-7.5s-3.358-7.5-7.5-7.5h-23.194c-4.143 0-7.501 3.358-7.501 7.5z"/><path d="m211.584 283.7c0-4.142-3.358-7.5-7.5-7.5s-7.5 3.358-7.5 7.5c0 5.723-4.546 10.379-10.133 10.379s-10.133-4.656-10.133-10.379c0-4.142-3.358-7.5-7.5-7.5s-7.5 3.358-7.5 7.5c0 13.994 11.275 25.379 25.133 25.379s25.133-11.385 25.133-25.379z"/><path d="m311.114 106.264c3.32 2.475 8.021 1.787 10.495-1.534l7.666-10.289 7.665 10.289c1.473 1.977 3.732 3.02 6.021 3.02 1.558 0 3.129-.484 4.475-1.486 3.322-2.475 4.009-7.173 1.534-10.495l-13.68-18.363c-1.415-1.9-3.646-3.019-6.015-3.019s-4.599 1.12-6.015 3.019l-13.68 18.363c-2.475 3.321-1.788 8.02 1.534 10.495z"/><path d="m338.211 404.712h-17.872c-4.142 0-7.5 3.358-7.5 7.5s3.358 7.5 7.5 7.5h17.872c4.142 0 7.5-3.358 7.5-7.5s-3.358-7.5-7.5-7.5z"/><path d="m338.211 428.568h-17.872c-4.142 0-7.5 3.358-7.5 7.5s3.358 7.5 7.5 7.5h17.872c4.142 0 7.5-3.358 7.5-7.5s-3.358-7.5-7.5-7.5z"/><path d="m343.63 273.317h-28.711c-4.142 0-7.5 3.358-7.5 7.5s3.358 7.5 7.5 7.5h28.711c4.142 0 7.5-3.358 7.5-7.5s-3.358-7.5-7.5-7.5z"/><path d="m343.63 298.081h-28.711c-4.142 0-7.5 3.358-7.5 7.5s3.358 7.5 7.5 7.5h28.711c4.142 0 7.5-3.358 7.5-7.5s-3.358-7.5-7.5-7.5z"/><path d="m329.275 34.972c-11.706 0-22.736 4.128-31.491 11.686-23.583-29.309-59.524-46.658-97.262-46.658h-24.054c-48.308 0-92.376 28.074-112.901 71.688-1.417.355-2.836.705-4.249 1.073-7.634 1.987-13.567 7.58-16.199 14.66-13.146 1.688-23.34 12.94-23.34 26.538v28.747c0 13.65 10.275 24.939 23.495 26.557 1.446 4.666 3.793 8.94 6.838 12.617-12.317 7.887-19.985 21.678-19.985 36.73 0 21.772 15.908 39.853 36.584 42.983 2.185 14.813 7.561 28.966 15.867 41.572 1.441 2.188 3.832 3.375 6.27 3.375 1.416 0 2.849-.401 4.12-1.238 3.459-2.279 4.416-6.931 2.136-10.389-9.489-14.402-14.505-31.174-14.505-48.502v-51.106h19.438v47.349c0 11.521 9.372 20.893 20.893 20.893h129.154c11.521 0 20.893-9.373 20.893-20.893v-47.349h11.899l1.394 81.437v.006.003l.122 7.135c-.459.476-.867 1.015-1.198 1.625-15.979 29.414-47.794 49.176-79.168 49.176h-35.15c-20.256 0-39.306-6.672-55.09-19.295-3.236-2.587-7.954-2.062-10.542 1.173-2.587 3.235-2.062 7.954 1.173 10.542 12.224 9.776 26.564 16.586 41.734 20.018v16.694h-9.024c-54.191 0-98.278 44.087-98.278 98.278v30.982c0 8.779 7.142 15.921 15.921 15.921h308.162c4.092 0 7.429-3.28 7.499-7.371l7.143-417.372c.264-13.085-4.635-25.44-13.796-34.788-9.161-9.349-21.415-14.497-34.503-14.497zm29.345 280.179c-.272 15.906-13.436 28.847-29.345 28.847-15.908 0-29.072-12.941-29.345-28.847 0-.001 0-.001 0-.001l-.661-38.657c-.136-7.934 2.853-15.419 8.416-21.077 5.562-5.658 12.995-8.774 20.93-8.774h1.323c7.935 0 15.368 3.116 20.93 8.774 5.563 5.659 8.551 13.144 8.415 21.077v.005l-.661 38.649c-.002 0-.002.002-.002.004zm-29.345-265.179c9.024 0 17.473 3.55 23.79 9.995s9.695 14.964 9.512 24.01l-2.727 159.273c-8.189-7.503-18.72-11.61-29.914-11.61h-1.323c-11.194 0-21.725 4.107-29.914 11.61l-2.726-159.296c-.183-9.022 3.195-17.54 9.512-23.986 6.316-6.446 14.765-9.996 23.79-9.996zm-152.807-34.972h24.054c34.172 0 66.673 16.171 87.367 43.346-1.51 2.494-2.784 5.108-3.81 7.819-19.747-3.915-39.746-6.633-59.847-8.142-.33-.057-.665-.1-1.009-.113-.143-.005-.282.004-.423.007-24.263-1.751-48.664-1.748-72.935-.007-.219-.011-.44-.017-.664-.008-.409.015-.806.071-1.196.149-21.844 1.648-43.574 4.707-64.996 9.174 19.803-32.114 55.112-52.225 93.459-52.225zm37.8 57.398c-3.582 12.161-14.769 20.898-28.056 20.898-13.286 0-24.471-8.734-28.055-20.893 18.684-1.065 37.431-1.068 56.111-.005zm-179.489 70.309v-28.747c0-4.732 2.809-8.821 6.847-10.687v50.121c-4.038-1.866-6.847-5.955-6.847-10.687zm10.349 75.904c0-11.368 6.626-21.63 16.882-26.143.379-.167.731-.368 1.068-.587.825.383 1.665.739 2.521 1.061v53.086c-11.791-3.344-20.471-14.365-20.471-27.417zm210.85 24.043c0 3.25-2.644 5.893-5.893 5.893h-129.155c-3.25 0-5.893-2.644-5.893-5.893v-47.349h12.295c24.879 0 45.119-20.24 45.119-45.119 0-.362.294-.657.657-.657h26.209c.362 0 .656.294.656.657 0 24.879 20.24 45.119 45.119 45.119h10.886zm-10.886-62.349c-16.608 0-30.119-13.511-30.119-30.119 0-8.633-7.023-15.657-15.656-15.657h-26.209c-8.633 0-15.657 7.023-15.657 15.657 0 16.608-13.511 30.119-30.119 30.119h-48.743c-12.11 0-21.962-9.853-21.962-21.963v-62.693c0-3.937 2.661-7.38 6.471-8.372 26.153-6.809 52.911-11.395 79.874-13.769 4.322 20.031 22.004 34.788 43.24 34.788 21.24 0 38.926-14.765 43.243-34.803 17.32 1.527 34.547 3.987 51.583 7.36-.054 1.121-.084 2.247-.061 3.38l1.644 96.071h-37.529zm39.743 129.469.096 5.631v.002.005l1.085 63.403c-15.766-9.735-34.095-14.997-52.768-14.997h-6.976v-16.806c11.169-2.679 22.065-7.336 32.238-13.866 10.02-6.43 18.91-14.347 26.325-23.372zm-230.986 183.305v-30.982c0-45.92 37.358-83.278 83.278-83.278h14.475c5.265 0 9.548-4.283 9.548-9.548v-19.892c2.566.194 5.141.309 7.725.309h35.15c2.416 0 4.834-.098 7.248-.286v19.869c0 5.265 4.283 9.548 9.548 9.548h12.427c19.252 0 38.062 6.585 53.086 18.539l1.654 96.642h-26.146v-24.034c0-4.142-3.358-7.5-7.5-7.5s-7.5 3.358-7.5 7.5v24.034h-20.773v-29.397c0-13.051-10.618-23.669-23.669-23.669h-37.085c-13.051 0-23.669 10.618-23.669 23.669v29.397h-16.065v-24.034c0-4.142-3.358-7.5-7.5-7.5s-7.5 3.358-7.5 7.5v24.034h-55.811c-.508 0-.921-.413-.921-.921zm157.22.921h-54.423v-29.397c0-4.78 3.889-8.669 8.669-8.669h37.085c4.78 0 8.669 3.889 8.669 8.669zm91.921 0-2.494-145.73c7.776 6.673 17.844 10.728 28.779 10.728 10.934 0 21.003-4.055 28.778-10.728l-2.494 145.73z"/><path d="m489.21 84.257c.265-13.086-4.635-25.44-13.795-34.789-9.161-9.348-21.415-14.497-34.503-14.497s-25.342 5.148-34.503 14.497c-9.161 9.348-14.06 21.703-13.796 34.765l7.143 417.394c.07 4.091 3.407 7.371 7.499 7.371h67.313c4.092 0 7.429-3.28 7.499-7.371l.989-57.767c.071-4.142-3.229-7.557-7.371-7.627-.044 0-.087-.001-.131-.001-4.083 0-7.426 3.274-7.497 7.372l-.862 50.396h-52.568l-2.494-145.73c7.775 6.673 17.844 10.728 28.778 10.728 10.739 0 20.643-3.91 28.36-10.371l-1.213 64.965c-.078 4.142 3.217 7.561 7.358 7.639 4.121.081 7.561-3.217 7.639-7.358zm-72.089-24.289c6.316-6.446 14.765-9.996 23.79-9.996s17.474 3.55 23.79 9.996c6.316 6.445 9.694 14.964 9.512 23.998l-2.97 159.07c-8.154-7.363-18.586-11.396-29.67-11.396h-1.323c-11.194 0-21.725 4.107-29.914 11.609l-2.726-159.296c-.183-9.021 3.195-17.54 9.511-23.985zm23.79 284.03c-15.909 0-29.073-12.941-29.345-28.847 0-.002 0-.004 0-.006l-.661-38.647c0-.002 0-.004 0-.006-.136-7.934 2.852-15.419 8.415-21.077 5.562-5.658 12.995-8.774 20.93-8.774h1.323c7.935 0 15.368 3.116 20.93 8.774 4.581 4.66 7.411 10.561 8.193 16.929l-.885 47.383c-2.435 13.739-14.549 24.271-28.9 24.271z"/><path d="m422.751 106.264c3.32 2.475 8.02 1.787 10.495-1.534l7.665-10.289 7.665 10.289c1.473 1.977 3.732 3.02 6.021 3.02 1.558 0 3.129-.484 4.475-1.486 3.322-2.475 4.009-7.173 1.534-10.495l-13.68-18.363c-1.416-1.9-3.646-3.019-6.015-3.019s-4.599 1.12-6.015 3.019l-13.68 18.363c-2.474 3.321-1.787 8.02 1.535 10.495z"/><path d="m449.847 404.712h-17.872c-4.142 0-7.5 3.358-7.5 7.5s3.358 7.5 7.5 7.5h17.872c4.142 0 7.5-3.358 7.5-7.5s-3.358-7.5-7.5-7.5z"/><path d="m449.847 428.568h-17.872c-4.142 0-7.5 3.358-7.5 7.5s3.358 7.5 7.5 7.5h17.872c4.142 0 7.5-3.358 7.5-7.5s-3.358-7.5-7.5-7.5z"/><path d="m426.555 288.317h28.711c4.142 0 7.5-3.358 7.5-7.5s-3.358-7.5-7.5-7.5h-28.711c-4.142 0-7.5 3.358-7.5 7.5 0 4.143 3.358 7.5 7.5 7.5z"/><path d="m455.267 298.081h-28.711c-4.142 0-7.5 3.358-7.5 7.5s3.358 7.5 7.5 7.5h28.711c4.142 0 7.5-3.358 7.5-7.5s-3.358-7.5-7.5-7.5z"/></g><g><g><path d="" fill="none" stroke="#000" stroke-miterlimit="10" stroke-width="15"/></g></g></g></svg>