<svg id="Capa_1" enable-background="new 0 0 508.747 508.747" height="512" viewBox="0 0 508.747 508.747" width="512" xmlns="http://www.w3.org/2000/svg"><g><g><g><path d="m102.619 265.947c2.922-21.496-11.984-41.397-33.502-44.575-21.673-3.201-41.837 11.773-45.038 33.446-2.56 17.332 6.511 33.69 21.329 41.188-2.921 21.496 11.984 41.397 33.502 44.575 21.673 3.201 41.837-11.773 45.038-33.446 2.56-17.333-6.511-33.69-21.329-41.188z" fill="#fbc56d"/></g></g><g><g><path d="m316.184 501.247h-256.711c-4.651 0-8.422-3.771-8.422-8.422v-28.11c0-50.135 40.643-90.778 90.778-90.778h91.998c50.135 0 90.778 40.643 90.778 90.778v28.11c.001 4.651-3.77 8.422-8.421 8.422z" fill="#bfbfbf"/></g></g><g><g><path d="m233.827 373.938h-30c50.135 0 90.778 40.642 90.778 90.778v28.109c0 4.651-3.77 8.421-8.422 8.421h30c4.651 0 8.422-3.77 8.422-8.421v-28.109c.001-50.136-40.642-90.778-90.778-90.778z" fill="#acacac"/></g></g><g><g><ellipse cx="54.188" cy="223.856" fill="#ffcdbe" rx="36.971" ry="37.487"/></g></g><g><g><path d="m188.756 407.203h-1.854c-17.074 0-30.916-13.841-30.916-30.916v-83.626h63.686v83.626c-.001 17.075-13.842 30.916-30.916 30.916z" fill="#ffc0ad"/></g></g><g><g><path d="m212.707 348.178h-49.757c-51.509 0-93.265-41.756-93.265-93.265v-110.442c0-54.151 43.898-98.048 98.048-98.048h40.191c54.151 0 98.048 43.898 98.048 98.048v110.442c0 51.509-41.756 93.265-93.265 93.265z" fill="#ffcdbe"/></g></g><g><g><path d="m207.924 46.422h-30c54.151 0 98.048 43.898 98.048 98.048v110.442c0 51.509-41.756 93.265-93.265 93.265h30c51.509 0 93.265-41.756 93.265-93.265v-110.441c0-54.151-43.897-98.049-98.048-98.049z" fill="#ffc0ad"/></g></g><g><g><path d="m324.606 151.279v-19.727c0-68.512-55.541-124.052-124.053-124.052h-25.45c-68.512 0-124.052 55.54-124.052 124.052v19.727c0 5.821 4.719 10.54 10.54 10.54h252.474c5.822 0 10.541-4.719 10.541-10.54z" fill="#5a5a5a"/></g></g><g><g><path d="m200.553 7.5h-25.45c-.761 0-1.518.015-2.275.029 67.461 1.214 121.777 56.272 121.777 124.023v19.727c0 5.821-4.719 10.54-10.54 10.54h30c5.821 0 10.54-4.719 10.54-10.54v-19.727c.001-68.512-55.54-124.052-124.052-124.052z" fill="#444"/></g></g><g><g><path d="m44.313 111.548v65.634c0 17.035 13.81 30.845 30.845 30.845h51.029c21.751 0 39.384-17.633 39.384-39.384 0-4.716 3.823-8.539 8.539-8.539h27.438c4.716 0 8.539 3.823 8.539 8.539 0 21.751 17.633 39.384 39.384 39.384h51.029c17.035 0 30.845-13.81 30.845-30.845v-65.588c0-7.719-5.228-14.458-12.705-16.377l-1.862-.478c-85.243-21.879-174.649-21.725-259.817.446-7.449 1.94-12.648 8.666-12.648 16.363z" fill="#b3dafe"/></g></g><g><g><path d="m318.64 95.217-1.862-.478c-47.149-12.101-95.572-17.449-143.848-16.072 38.277 1.122 76.463 6.477 113.848 16.072l1.862.478c7.477 1.919 12.705 8.658 12.705 16.378v65.587c0 17.035-13.81 30.845-30.845 30.845h30c17.035 0 30.845-13.81 30.845-30.845v-65.587c0-7.72-5.228-14.459-12.705-16.378z" fill="#8ac9fe"/></g></g><g><g><path d="m44.313 166.159h-13.776c-7.356 0-13.319-5.963-13.319-13.319v-11.285c0-7.356 5.963-13.319 13.319-13.319h13.776z" fill="#0182fc"/></g></g><g><g><path d="m331.906 166.159h13.776c7.356 0 13.319-5.963 13.319-13.319v-11.285c0-7.356-5.963-13.319-13.319-13.319h-13.776z" fill="#0182fc"/></g></g><g><g><path d="m143.015 80.387v9.997c0 13.269 10.757 24.026 24.026 24.026h41.576c13.269 0 24.026-10.757 24.026-24.026v-9.98c-29.822-2.59-59.809-2.595-89.628-.017z" fill="#60b7ff"/></g></g><g><g><path d="m310.504 501.247h170.78c-.871-19.733-.703-39.499.515-59.217l9.731-194.322c0-52.8-42.803-95.603-95.603-95.603-52.8 0-95.603 42.803-95.603 95.602l9.713 192.736c1.261 20.246 1.409 40.544.467 60.804z" fill="#8ac9fe"/></g></g><g><g><path d="m491.53 247.708c0-52.8-42.803-95.603-95.603-95.603-5.104 0-10.113.404-15 1.175 45.673 7.198 80.603 46.732 80.603 94.428l-9.731 194.322c-1.218 19.718-1.386 39.484-.515 59.217h30c-.871-19.733-.703-39.499.515-59.217z" fill="#60b7ff"/></g></g><g><g><path d="m374.771 469.702h42.313c15.581 0 28.212-12.631 28.212-28.212 0-15.581-12.631-28.212-28.212-28.212h-42.314c-15.581 0-28.212 12.631-28.212 28.212.001 15.581 12.632 28.212 28.213 28.212z" fill="#0182fc"/></g></g><g><g><path d="m417.084 413.277h-30c15.581 0 28.212 12.631 28.212 28.212 0 15.58-12.629 28.21-28.209 28.212h29.997c15.581 0 28.212-12.631 28.212-28.212 0-15.58-12.631-28.212-28.212-28.212z" fill="#0172fb"/></g></g><g><g><path d="" fill="none" stroke="#000" stroke-linecap="round" stroke-miterlimit="10" stroke-width="15"/></g></g><g><g><path d="" fill="none" stroke="#000" stroke-linecap="round" stroke-miterlimit="10" stroke-width="15"/></g></g><g><path d="m361.545 230.658c-3.02 3.328-2.771 8.474.557 11.494 3.327 3.02 8.473 2.771 11.494-.557 3.02-3.328 2.771-8.474-.557-11.494s-8.474-2.771-11.494.557z"/><path d="m415.247 228.058c-3.02 3.327-2.771 8.473.557 11.494 3.328 3.02 8.473 2.771 11.494-.557 3.02-3.328 2.771-8.474-.556-11.494-3.328-3.02-8.474-2.771-11.495.557z"/><path d="m194.201 307.21c2.801.93 5.643 1.37 8.428 1.37 10.686 0 20.537-6.491 23.961-16.808 1.305-3.932-.825-8.176-4.756-9.48-3.931-1.306-8.176.825-9.48 4.756-1.712 5.157-7.739 7.814-13.428 5.926-3.935-1.306-8.176.826-9.48 4.756-1.305 3.931.824 8.176 4.755 9.48z"/><path d="m158.318 242.841c0-4.142-3.358-7.5-7.5-7.5h-24.175c-4.142 0-7.5 3.358-7.5 7.5s3.358 7.5 7.5 7.5h12.867c-.685 1.327-1.078 2.833-1.078 4.435 0 5.291 4.23 9.581 9.449 9.581s9.449-4.29 9.449-9.581c0-2.24-.764-4.296-2.035-5.928 1.832-1.368 3.023-3.546 3.023-6.007z"/><path d="m220.362 248.848c-1.271 1.632-2.035 3.688-2.035 5.928 0 5.291 4.23 9.581 9.449 9.581 5.218 0 9.449-4.29 9.449-9.581 0-1.602-.393-3.108-1.078-4.435h12.867c4.142 0 7.5-3.358 7.5-7.5s-3.358-7.5-7.5-7.5h-24.175c-4.142 0-7.5 3.358-7.5 7.5 0 2.461 1.191 4.639 3.023 6.007z"/><path d="m499.021 248.083c.006-.125.009-.25.009-.375 0-18.244-4.83-36.173-13.969-51.851-2.086-3.579-6.677-4.788-10.256-2.703-3.579 2.086-4.789 6.678-2.703 10.256 7.772 13.335 11.896 28.584 11.928 44.113l-3.565 71.182-83.284-51.362c-2.569-1.585-5.836-1.474-8.293.279l-77.272 55.142-3.792-75.242c.102-48.494 39.585-87.919 88.103-87.919 20.852 0 41.079 7.417 56.955 20.883 3.159 2.678 7.892 2.288 10.571-.868 2.679-3.159 2.29-7.892-.869-10.571-18.583-15.763-42.257-24.443-66.658-24.443-10.221 0-20.097 1.503-29.426 4.285v-7.335c0-11.48-9.339-20.819-20.819-20.819h-6.838v-9.14c0-9.407-5.381-17.781-13.546-21.837-8.416-25.077-24.593-47.532-45.858-63.49-22.899-17.185-50.178-26.268-78.886-26.268h-25.45c-25.86 0-50.892 7.5-72.387 21.689-3.457 2.282-4.409 6.934-2.128 10.391 2.282 3.457 6.934 4.409 10.391 2.127 19.038-12.565 41.211-19.207 64.125-19.207h25.45c25.435 0 49.601 8.045 69.884 23.265 16.029 12.028 28.804 28.214 36.854 46.448-78.424-18.269-160.492-18.281-238.913-.048 5.208-11.802 12.402-22.793 21.184-32.278 2.814-3.04 2.631-7.785-.408-10.599-3.041-2.814-7.785-2.63-10.599.408-12.61 13.62-22.315 29.999-28.199 47.517-8.161 4.059-13.544 12.439-13.544 21.836v9.187h-6.276c-11.48 0-20.82 9.339-20.82 20.819v11.285c0 11.48 9.34 20.82 20.82 20.82h6.276s.127 6.96.351 8.634c-16.532 6.919-27.446 23.254-27.446 41.563 0 9.439 2.895 18.205 7.825 25.447-.03.104-.065.204-.091.31-.322 1.348-.588 2.73-.791 4.108-2.718 18.401 5.582 36.441 20.903 46.408-.599 23.458 16.541 44.368 40.251 47.87 2.308.341 4.62.509 6.923.509 9.082 0 17.989-2.629 25.684-7.638 11.397 6.99 24.284 11.775 38.063 13.764v11.802h-6.656c-54.191 0-98.278 44.087-98.278 98.278v28.109c0 8.779 7.143 15.922 15.922 15.922h421.81c2.046 0 4.004-.836 5.419-2.315 1.415-1.478 2.164-3.471 2.074-5.516-.857-19.426-.686-39.083.514-58.512l3.271-65.317c.001-.02.002-.039.003-.059zm-105.474 34.642 86.062 53.075-1.392 27.802-81.035-49.975c-2.569-1.584-5.836-1.474-8.293.279l-75.02 53.535-1.355-26.889zm-230.061 72.953h48.686v20.609c0 12.912-10.504 23.416-23.416 23.416h-1.854c-12.912 0-23.416-10.504-23.416-23.416zm-86.301-100.765v-39.386h49.002c25.852 0 46.884-21.032 46.884-46.884 0-.573.466-1.039 1.039-1.039h27.438c.573 0 1.039.466 1.039 1.039 0 25.852 21.032 46.884 46.884 46.884h48.503c-3.336 10.13-5.149 20.947-5.149 32.18 0 .126.003.252.01.377l1.648 32.705c-11.183 35.358-44.513 59.889-81.775 59.889h-49.758c-47.291 0-85.765-38.474-85.765-85.765zm149.987 99.724c16.892-2.409 32.778-9.029 46.563-19.536 8.666-6.604 16.195-14.615 22.296-23.581l4.064 80.637c-17.928-16.365-41.488-25.72-66.268-25.72h-6.656v-11.8zm77.281-154.456c-1.3.221-54.982.346-54.982.346-17.581 0-31.884-14.303-31.884-31.884 0-8.844-7.195-16.039-16.039-16.039h-27.438c-8.844 0-16.039 7.195-16.039 16.039 0 17.581-14.303 31.884-31.884 31.884h-51.03c-12.873 0-23.345-10.472-23.345-23.345v-11.023-37.924-16.687c0-4.282 2.894-8.026 7.038-9.104 25.204-6.562 50.847-11.146 76.664-13.785v1.726c0 17.383 14.143 31.526 31.526 31.526h41.576c17.383 0 31.526-14.143 31.526-31.526v-1.706c25.171 2.581 50.176 7.012 74.771 13.325l1.862.479c4.163 1.068 7.069 4.815 7.069 9.113v62.184c0 .093.01.183.014.275-7.764 7.598-14.336 16.409-19.405 26.126zm41.229-64.446c3.209 0 5.819 2.61 5.819 5.819v11.285c0 .411-.042.82-.126 1.216-.052.246-.09.492-.117.736-4.111 1.984-8.066 4.239-11.852 6.73v-25.787h6.276zm-120.54-48.376v3.025c0 9.112-7.414 16.526-16.526 16.526h-41.576c-9.112 0-16.526-7.414-16.526-16.526v-3.034c24.839-1.804 49.79-1.803 74.628.009zm-194.605 71.3c-3.209 0-5.82-2.611-5.82-5.82v-11.285c0-3.209 2.611-5.819 5.82-5.819h6.276v22.924zm11.534 37.869c4.512 7.686 11.618 13.671 20.113 16.735v39.463c-2.587.74-5.266 1.116-7.997 1.116-16.25 0-29.471-13.452-29.471-29.986.001-11.897 6.871-22.523 17.355-27.328zm37.936 136.633c-17.34-2.561-29.527-18.776-27.167-36.147.431-3.167-1.194-6.259-4.045-7.702-10.416-5.27-16.965-15.621-17.573-26.948 6.708 4.109 14.569 6.478 22.967 6.478 2.993 0 5.945-.308 8.838-.898 3.254 25.086 15.767 47.308 33.992 63.11-5.337 2.215-11.199 2.965-17.012 2.107zm-21.456 159.664v-28.109c0-45.92 37.358-83.278 83.278-83.278h7.011c2.525 18.755 18.625 33.266 38.061 33.266h1.854c19.435 0 35.535-14.511 38.061-33.266h7.011c26.734 0 51.798 12.844 67.464 34.454l1.261 25.018c1.087 17.455 1.334 35.195.743 52.837h-41.34v-23.338c0-4.142-3.358-7.5-7.5-7.5s-7.5 3.358-7.5 7.5v23.338h-118.254v-23.338c0-4.142-3.358-7.5-7.5-7.5s-7.5 3.358-7.5 7.5v23.338h-54.228c-.508 0-.922-.414-.922-.922zm414.949.922h-155.194c.585-17.953.324-35.993-.778-53.681l-2.764-54.836 78.782-56.22 83.814 51.689-3.048 60.869c-1.066 17.272-1.338 34.787-.812 52.179z"/><path d="m417.084 405.777h-42.313c-19.691 0-35.712 16.02-35.712 35.712 0 19.691 16.02 35.712 35.712 35.712h42.313c19.691 0 35.712-16.021 35.712-35.712s-16.02-35.712-35.712-35.712zm0 56.425h-42.313c-11.42 0-20.712-9.292-20.712-20.712 0-11.421 9.292-20.712 20.712-20.712h42.313c11.421 0 20.712 9.291 20.712 20.712 0 11.42-9.291 20.712-20.712 20.712z"/></g></g></svg>