<?xml version="1.0" standalone="no"?>
<!DOCTYPE svg PUBLIC "-//W3C//DTD SVG 20010904//EN"
 "http://www.w3.org/TR/2001/REC-SVG-20010904/DTD/svg10.dtd">
<svg version="1.0" xmlns="http://www.w3.org/2000/svg"
 width="1268.000000pt" height="579.000000pt" viewBox="0 0 1268.000000 579.000000"
 preserveAspectRatio="xMidYMid meet">
<metadata>
Created by potrace 1.16, written by Peter Selinger 2001-2019
</metadata>
<g transform="translate(0.000000,579.000000) scale(0.100000,-0.100000)"
fill="#000000" stroke="none">
<path d="M5845 5743 c-148 -52 -239 -67 -412 -68 l-163 0 0 -102 0 -103 26 0
c14 0 34 -5 45 -10 18 -10 19 -28 19 -636 l0 -624 -26 -10 c-14 -6 -36 -10
-49 -10 -26 0 -29 -12 -41 -156 l-6 -82 69 -15 c37 -9 131 -28 207 -42 188
-36 289 -74 384 -144 190 -140 309 -191 470 -199 209 -10 377 62 575 248 l67
62 0 64 0 63 778 3 c763 4 778 4 855 26 114 31 192 76 273 157 117 116 174
258 174 435 0 164 -49 303 -147 425 -129 159 -296 230 -573 243 l-145 7 -3
243 c-1 133 -6 242 -11 242 -4 0 -75 -16 -157 -35 -187 -43 -317 -59 -416 -51
l-78 6 0 -105 0 -105 33 0 c18 0 38 -5 45 -12 17 -17 17 -1239 0 -1256 -19
-19 -132 -15 -158 6 l-21 17 -2 522 c-1 287 -4 523 -7 526 -3 2 -135 -4 -295
-14 -159 -10 -314 -18 -342 -18 l-53 -1 0 -99 0 -98 50 -7 c35 -5 53 -12 61
-27 14 -28 7 -511 -9 -560 -30 -90 -101 -144 -140 -105 -15 15 -17 60 -20 476
l-3 458 -52 -4 c-84 -7 -556 -34 -598 -34 l-39 0 0 -99 0 -98 42 -6 c79 -11
78 -4 78 -386 1 -436 13 -511 101 -606 22 -23 63 -53 92 -66 46 -21 66 -24
187 -24 155 1 217 17 329 86 49 31 66 37 72 27 22 -34 8 -45 -143 -115 -188
-87 -217 -97 -295 -96 -121 1 -253 85 -435 277 l-98 104 0 766 c0 607 -3 766
-12 765 -7 -1 -44 -12 -83 -26z m2305 -312 l0 -228 158 -7 c199 -9 286 -26
391 -77 196 -96 313 -286 315 -514 0 -76 -5 -117 -21 -170 -53 -170 -188 -302
-359 -352 -51 -14 -122 -17 -541 -21 l-483 -3 0 24 c0 19 8 26 40 36 79 24 75
-16 75 711 0 600 -1 648 -18 673 -9 15 -28 29 -42 33 -19 5 -25 13 -25 34 l0
27 128 6 c84 4 166 14 242 32 63 14 116 28 119 30 16 17 21 -35 21 -234z
m-2290 -506 c0 -703 1 -735 18 -744 17 -9 81 -73 183 -182 54 -58 176 -146
247 -181 54 -25 83 -33 148 -36 102 -6 157 10 333 94 73 35 137 62 141 59 20
-12 -8 -60 -62 -110 -211 -191 -430 -252 -643 -181 -95 32 -142 58 -255 141
-146 107 -200 128 -463 180 -100 20 -183 37 -184 39 -1 1 0 25 3 53 6 48 8 51
44 62 67 20 65 -4 68 692 3 692 3 692 -55 719 -22 10 -33 22 -33 38 0 21 4 22
76 22 92 0 255 23 344 49 36 10 71 19 78 20 9 1 12 -152 12 -734z m762 -147
c3 -399 4 -415 25 -460 16 -36 28 -49 50 -53 15 -4 33 -8 40 -10 31 -10 113
26 143 63 59 71 73 140 78 390 2 123 1 248 -3 278 -8 64 -40 108 -85 117 -24
5 -30 12 -30 31 0 21 6 26 33 30 35 6 409 26 469 26 l37 0 3 -499 c3 -489 3
-500 24 -528 12 -16 36 -32 57 -37 32 -8 37 -14 37 -38 l0 -28 -252 2 -253 3
-13 40 c-7 22 -16 61 -19 87 l-6 48 -48 -48 c-113 -109 -246 -164 -399 -164
-154 -1 -228 40 -272 151 -21 53 -22 75 -28 446 -6 439 -5 436 -77 470 -31 15
-42 26 -43 43 0 12 1 22 3 23 7 3 384 26 449 28 l76 1 4 -412z"/>
<path d="M8158 5024 c-14 -13 -8 -695 5 -733 19 -55 57 -76 137 -76 60 0 74 4
112 30 58 41 101 109 122 188 19 77 21 246 5 330 -24 116 -107 221 -197 247
-49 14 -175 24 -184 14z m189 -101 c85 -40 128 -149 127 -323 -1 -132 -23
-207 -79 -268 -27 -30 -39 -36 -87 -40 -84 -7 -82 -14 -86 352 l-4 309 47 -6
c26 -4 63 -14 82 -24z"/>
<path d="M4976 5694 c-85 -31 -107 -32 -328 -15 -140 11 -200 11 -290 2 -341
-36 -552 -165 -663 -406 -58 -126 -70 -189 -69 -385 0 -155 3 -186 26 -271 91
-339 345 -579 694 -655 104 -22 320 -23 478 -1 123 18 156 16 239 -10 27 -8
50 -13 52 -11 6 5 217 612 219 627 1 9 -27 21 -84 37 -47 13 -90 23 -96 24 -7
0 -31 -38 -54 -84 -51 -103 -119 -177 -197 -214 -52 -24 -69 -27 -169 -27
-106 0 -113 1 -178 34 -190 97 -295 315 -284 590 6 134 27 203 87 279 76 96
219 137 339 98 92 -31 188 -136 282 -308 23 -43 48 -78 55 -78 18 0 188 30
192 34 3 3 -142 710 -153 749 -7 22 -14 21 -98 -9z m101 -379 c34 -165 61
-300 60 -301 -1 0 -18 -4 -38 -7 -34 -5 -37 -3 -53 31 -34 72 -125 198 -180
250 -224 212 -555 111 -653 -198 -25 -77 -24 -318 1 -410 27 -101 90 -220 154
-290 111 -124 236 -176 396 -167 139 7 193 32 291 131 50 51 89 101 104 134
23 48 27 53 50 47 14 -4 27 -8 28 -9 2 -1 -111 -329 -153 -443 l-15 -41 -92 5
c-57 3 -137 -1 -212 -11 -272 -37 -480 -3 -670 107 -107 62 -239 201 -296 312
-77 149 -94 228 -94 435 0 153 3 185 23 255 94 324 384 485 832 461 340 -18
354 -18 395 -3 22 9 44 14 50 13 5 -1 38 -137 72 -301z"/>
<path d="M1570 3584 c-194 -16 -458 -79 -758 -180 -240 -81 -322 -99 -322 -70
0 9 9 34 20 56 11 22 20 58 20 81 0 34 -6 47 -35 76 l-35 35 -83 -4 c-100 -5
-180 -41 -236 -105 -108 -121 -70 -268 88 -347 82 -42 148 -56 255 -56 70 0
85 -3 92 -17 11 -24 17 -1337 7 -1388 l-9 -40 -57 -3 -57 -3 0 -149 0 -150
510 0 510 0 0 145 0 145 -24 0 c-41 0 -83 20 -95 46 -16 36 -15 344 2 344 6 0
22 3 35 6 19 5 22 2 22 -19 0 -45 50 -189 95 -274 340 -645 1414 -1107 2487
-1069 447 15 990 117 1232 230 434 203 920 333 1456 388 164 17 772 17 945 0
158 -15 450 -50 488 -58 27 -6 27 -7 27 -82 0 -102 -24 -182 -69 -233 -30 -34
-44 -42 -83 -46 -65 -8 -112 18 -228 123 -231 210 -368 273 -590 274 -154 0
-296 -50 -437 -153 -211 -156 -260 -422 -125 -680 90 -173 258 -270 467 -270
98 0 182 21 277 69 176 88 222 137 198 208 -24 73 -98 104 -170 71 -87 -39
-242 0 -334 85 -97 89 -100 224 -8 323 38 40 118 61 174 47 100 -27 197 -114
321 -290 41 -58 105 -134 143 -170 189 -178 448 -218 710 -109 180 75 294 258
339 544 8 49 15 118 16 153 1 35 5 65 8 66 8 5 299 -45 457 -78 593 -124 1090
-294 1592 -545 235 -118 335 -160 485 -205 176 -53 235 -61 427 -61 188 0 270
14 394 69 184 82 336 249 403 444 35 101 44 284 19 382 -61 242 -238 403 -481
439 -42 6 34 9 258 10 l318 1 -3 96 -3 96 -50 16 c-42 14 -51 22 -56 47 -4 17
-7 396 -8 843 l-1 813 -82 -45 c-194 -105 -500 -199 -546 -168 -11 7 -9 17 9
51 27 52 21 104 -16 140 -23 24 -33 26 -103 26 -63 -1 -86 -5 -127 -27 -130
-68 -172 -185 -106 -290 24 -37 44 -53 107 -84 72 -36 85 -39 181 -42 l103 -4
-2 -627 -3 -626 -52 -9 -53 -9 0 -98 0 -99 43 -1 c31 -2 34 -3 12 -6 -138 -16
-262 -53 -322 -96 -54 -38 -109 -118 -124 -180 -41 -167 74 -340 227 -340 63
0 99 17 138 66 36 45 41 103 13 134 -9 11 -17 23 -17 28 0 16 107 -5 160 -32
110 -57 156 -163 126 -294 -20 -89 -43 -134 -106 -203 -103 -112 -256 -161
-437 -138 -195 25 -395 98 -723 265 -257 131 -385 190 -585 267 -398 153 -853
278 -1305 360 -63 11 -125 23 -137 26 l-23 4 0 590 c0 681 -14 610 119 610
130 0 121 34 121 -432 0 -216 -4 -398 -8 -404 -4 -6 -28 -14 -54 -18 l-48 -7
0 -100 0 -99 780 0 780 0 0 99 0 99 -45 6 c-76 12 -75 8 -75 356 0 473 -14
555 -110 652 -47 46 -68 60 -124 77 -153 47 -337 17 -486 -80 -34 -22 -63 -39
-64 -37 -2 2 -13 29 -26 61 -12 31 -25 59 -29 61 -3 2 -166 -7 -361 -20 -390
-27 -439 -26 -785 11 -121 13 -247 26 -280 30 -82 8 -273 -10 -369 -35 -240
-61 -390 -207 -442 -428 -21 -91 -21 -259 1 -341 46 -178 172 -333 336 -416
97 -49 165 -64 354 -76 103 -7 173 -16 177 -23 4 -6 8 -26 8 -45 l0 -34 -62 6
c-497 49 -539 51 -1003 52 -309 0 -504 -4 -595 -13 -305 -30 -613 -81 -880
-146 -253 -62 -718 -125 -1080 -147 -207 -12 -577 -7 -760 11 -524 52 -936
177 -1228 372 -111 74 -248 216 -296 307 -40 76 -66 156 -66 203 0 21 10 33
51 58 156 96 265 262 299 456 20 115 9 301 -24 399 -109 322 -372 499 -767
518 -57 2 -124 3 -149 1z m-1139 -84 c24 -14 24 -46 -1 -95 -44 -85 -15 -149
71 -161 51 -6 140 17 374 100 83 30 186 61 230 71 44 9 109 26 145 36 177 51
416 70 576 45 180 -27 308 -83 410 -179 81 -75 127 -144 164 -244 72 -200 61
-404 -35 -593 -38 -76 -154 -187 -233 -224 l-62 -30 6 -50 c16 -134 62 -252
139 -353 373 -497 1402 -741 2605 -618 270 28 595 80 785 125 501 120 896 164
1450 163 335 0 588 -14 964 -53 107 -11 196 -18 197 -17 7 9 -24 229 -34 239
-8 8 -69 15 -180 20 -92 4 -199 15 -237 23 -148 32 -270 115 -355 242 -71 106
-95 190 -95 328 2 304 150 473 470 536 100 20 325 16 555 -10 107 -11 255 -23
327 -24 73 -2 135 -6 139 -9 13 -14 -8 -48 -30 -48 -35 0 -74 -36 -86 -78 -6
-23 -10 -260 -10 -648 l0 -611 108 -17 c342 -56 794 -166 1123 -276 319 -106
543 -201 884 -374 419 -213 691 -293 904 -267 206 26 379 164 438 350 35 107
30 222 -12 299 -34 62 -76 102 -145 137 -108 55 -261 48 -276 -12 -6 -24 0
-41 34 -95 17 -27 16 -28 -11 -55 -21 -22 -37 -28 -70 -28 -84 0 -148 74 -155
179 -11 176 152 280 443 281 171 0 281 -41 384 -144 158 -158 192 -415 86
-646 -128 -280 -420 -427 -785 -395 -257 23 -434 82 -817 274 -453 226 -880
377 -1416 501 -272 63 -700 139 -712 126 -3 -2 -5 -28 -5 -57 0 -91 -21 -255
-45 -350 -49 -194 -148 -327 -280 -377 -97 -36 -148 -46 -237 -47 -105 0 -169
15 -260 62 -94 49 -167 119 -250 241 -79 116 -225 265 -293 297 -192 91 -407
-37 -406 -241 0 -75 11 -115 45 -173 82 -141 268 -208 441 -161 58 15 66 15
80 2 39 -40 0 -84 -136 -152 -105 -54 -168 -68 -278 -63 -82 3 -106 8 -164 36
-90 42 -138 81 -191 156 -66 91 -88 154 -94 267 -7 145 32 244 136 341 108
101 232 148 407 155 238 10 330 -35 624 -305 20 -18 59 -43 86 -57 107 -53
191 -42 266 34 69 69 91 136 96 291 2 69 0 131 -5 137 -15 23 -430 73 -759 93
-783 47 -1557 -85 -2193 -375 -69 -31 -161 -68 -205 -81 -205 -64 -517 -127
-765 -156 -172 -19 -670 -16 -835 5 -429 57 -749 149 -1080 311 -392 192 -678
445 -814 720 -45 89 -81 216 -81 281 0 23 -2 44 -5 47 -6 5 -149 -26 -192 -43
l-25 -9 3 -203 c4 -190 5 -204 27 -239 14 -22 39 -44 63 -54 l39 -18 0 -68 0
-68 -430 0 -430 0 0 70 c0 63 2 70 20 70 32 0 66 20 83 50 15 25 17 93 17 737
0 441 -4 722 -10 744 -18 65 -36 73 -179 79 -120 5 -131 7 -197 40 -45 23 -77
47 -92 69 -61 93 11 206 155 240 53 12 71 13 94 1z m11385 -74 c17 -13 18 -17
5 -48 -28 -69 -36 -108 -25 -126 22 -34 56 -43 149 -39 73 3 113 11 212 45 67
23 156 57 197 76 l75 34 3 -766 c3 -744 4 -768 23 -807 14 -28 33 -46 63 -60
31 -15 42 -26 42 -42 l0 -23 -330 0 -330 0 0 23 c1 16 12 27 43 42 70 33 68
15 65 733 l-3 634 -24 19 c-20 16 -40 19 -130 19 -96 0 -112 3 -168 29 -34 16
-70 42 -79 57 -50 75 8 169 123 200 62 17 66 17 89 0z m-1735 -622 c71 -21
119 -71 144 -150 16 -51 19 -110 25 -444 4 -282 10 -394 19 -418 10 -24 26
-39 60 -55 32 -16 46 -28 46 -42 0 -20 -8 -20 -337 -23 l-338 -2 0 24 c0 19 8
27 34 36 43 14 71 45 85 95 15 56 13 615 -2 674 -16 58 -53 87 -112 84 -82 -3
-136 -49 -176 -150 -22 -54 -24 -76 -27 -303 -5 -320 6 -367 91 -399 19 -8 27
-17 27 -36 l0 -25 -325 0 -325 0 0 23 c0 17 11 28 43 42 66 31 68 49 65 510
-3 308 -6 396 -17 417 -13 25 -64 58 -90 58 -6 0 -11 13 -11 28 l0 29 208 12
c114 6 223 14 243 17 35 5 36 5 53 -48 9 -29 20 -75 23 -101 7 -54 17 -66 33
-38 14 27 135 123 188 150 101 51 266 66 373 35z m-341 -313 c15 -30 13 -629
-3 -660 -24 -48 -115 -49 -145 -3 -15 23 -17 58 -17 262 0 253 9 315 56 374
36 46 91 59 109 27z"/>
<path d="M1366 3039 c-27 -4 -56 -14 -64 -22 -24 -25 -31 -93 -32 -324 0 -179
3 -223 13 -223 29 0 229 61 284 87 123 58 196 168 196 297 0 103 -41 161 -129
185 -44 12 -195 13 -268 0z m268 -83 c75 -31 72 -165 -5 -259 -17 -21 -50 -47
-72 -59 -46 -23 -173 -68 -194 -68 -10 0 -13 39 -13 190 0 188 0 191 23 200
36 14 223 12 261 -4z"/>
<path d="M8028 2654 c-86 -26 -167 -132 -196 -254 -35 -149 -22 -322 33 -436
44 -91 91 -126 173 -132 71 -5 107 9 132 50 19 32 20 48 18 408 l-3 375 -55 2
c-30 1 -76 -5 -102 -13z m82 -401 l-5 -338 -42 -3 c-61 -4 -97 18 -127 80 -93
190 -42 504 93 575 24 13 54 23 65 23 21 0 21 0 16 -337z"/>
<path d="M6832 3345 c-108 -30 -186 -111 -208 -215 -20 -99 5 -180 78 -256
l39 -41 -105 -13 -106 -13 0 -98 0 -98 37 -3 c35 -3 38 -6 45 -43 9 -52 8
-702 -1 -735 -6 -20 -16 -27 -54 -34 l-47 -8 0 -99 0 -99 405 0 406 0 -3 97
-3 97 -41 9 c-84 16 -79 -19 -82 577 -3 519 -3 528 -23 523 -17 -5 -16 0 11
52 115 218 -104 468 -348 400z m152 -77 c58 -18 131 -91 146 -148 34 -126 -73
-250 -215 -250 -73 0 -129 24 -172 73 -56 64 -66 134 -29 213 46 99 158 145
270 112z m150 -1465 c13 -32 28 -47 62 -63 34 -17 44 -27 44 -46 l0 -24 -330
0 -330 0 0 25 c0 20 6 27 29 31 36 7 66 39 75 78 4 16 7 202 6 414 -1 420 -1
426 -57 452 -24 11 -33 22 -33 41 l0 26 238 32 c130 17 244 33 252 34 13 2 16
-59 20 -478 5 -435 7 -484 24 -522z"/>
<path d="M5040 2908 l-75 -30 -105 16 c-177 26 -222 28 -320 17 -243 -30 -421
-147 -480 -315 -25 -70 -27 -195 -4 -263 9 -26 31 -69 50 -96 19 -26 34 -49
34 -52 0 -3 -30 -5 -68 -5 l-67 0 23 -307 c12 -169 25 -309 27 -312 3 -2 37 6
75 18 87 29 89 29 240 1 219 -40 474 -15 624 61 198 100 285 248 274 466 -3
77 -9 101 -36 156 -20 41 -50 82 -79 106 l-46 41 36 0 c34 0 36 2 32 28 -3 15
-12 119 -20 232 -17 224 -22 271 -33 269 -4 -1 -41 -15 -82 -31z m-206 -89
c122 -18 136 -19 177 -5 24 8 47 12 50 8 5 -6 29 -264 29 -316 0 -11 -9 -16
-28 -16 -20 0 -32 8 -46 31 -48 81 -118 135 -212 164 -161 49 -326 -36 -258
-133 24 -34 78 -58 251 -108 175 -51 244 -81 302 -131 74 -63 109 -177 92
-298 -19 -135 -97 -239 -226 -300 -108 -52 -174 -66 -337 -72 -127 -5 -164 -3
-273 17 -106 20 -135 22 -178 13 -29 -6 -53 -10 -54 -9 -2 2 -33 394 -33 424
0 17 6 22 25 22 16 0 28 -7 31 -17 69 -205 191 -294 402 -295 80 0 101 4 145
26 57 27 88 68 89 117 2 71 -77 120 -272 170 -219 56 -316 113 -367 217 -58
118 -29 269 70 365 134 130 334 171 621 126z m-29 -215 c44 -15 156 -107 144
-118 -6 -6 -288 77 -318 94 -24 12 -24 13 -6 26 26 19 121 18 180 -2z m-524
-499 c27 -14 115 -44 196 -66 140 -38 215 -68 228 -89 10 -17 -13 -47 -47 -59
-126 -44 -288 -8 -364 81 -26 31 -74 127 -74 148 0 14 5 13 61 -15z"/>
<path d="M6330 2908 l-75 -30 -115 18 c-128 21 -294 23 -385 5 -140 -27 -266
-97 -341 -188 -112 -137 -120 -345 -18 -479 19 -24 34 -46 34 -49 0 -3 -31 -5
-70 -5 l-70 0 6 -57 c3 -32 14 -170 24 -306 10 -137 21 -251 23 -254 3 -2 40
7 84 20 l79 24 129 -24 c113 -22 149 -24 275 -19 247 9 401 63 520 184 87 89
120 167 128 298 7 142 -37 261 -126 333 l-37 30 33 1 c39 0 38 -7 17 247 -20
237 -25 283 -33 282 -4 0 -41 -14 -82 -31z m-211 -88 c116 -18 133 -18 177 -5
26 8 50 12 53 10 3 -4 28 -266 31 -322 0 -22 -58 -16 -65 6 -11 36 -110 127
-169 156 -75 37 -194 47 -248 21 -88 -42 -105 -102 -43 -153 36 -30 83 -47
275 -103 265 -76 350 -162 350 -353 0 -132 -37 -217 -127 -296 -105 -93 -223
-131 -438 -138 -127 -5 -167 -2 -261 16 -124 23 -170 26 -210 11 -15 -6 -29
-9 -31 -6 -5 5 -33 336 -33 399 0 43 2 47 23 47 20 0 28 -11 51 -70 69 -176
240 -268 443 -239 113 16 173 66 173 144 0 29 -7 44 -32 67 -44 41 -92 61
-251 102 -159 41 -242 80 -308 146 -61 61 -84 132 -75 228 13 142 108 251 271
311 118 44 254 51 444 21z m-12 -224 c45 -22 140 -102 131 -111 -6 -6 -279 75
-312 92 -28 15 -29 16 -11 29 31 23 132 18 192 -10z m-571 -475 c17 -17 117
-52 247 -87 208 -55 250 -90 167 -138 -50 -30 -195 -29 -261 1 -86 39 -152
117 -175 207 -6 26 4 34 22 17z"/>
<path d="M3085 2909 c-191 -25 -321 -85 -442 -205 -130 -128 -183 -262 -183
-464 0 -125 21 -217 69 -315 50 -100 104 -162 194 -225 144 -102 321 -146 547
-137 161 6 259 29 379 88 147 72 272 220 316 370 38 135 36 327 -5 451 -106
315 -456 490 -875 437z m305 -83 c319 -52 507 -247 526 -545 12 -187 -41 -339
-160 -456 -124 -123 -255 -173 -478 -182 -239 -10 -384 27 -530 134 -140 102
-209 256 -209 462 0 194 57 330 186 443 148 129 409 186 665 144z"/>
<path d="M3152 2658 c-44 -15 -107 -88 -126 -146 -52 -154 -34 -448 34 -582
26 -51 92 -108 135 -116 149 -28 239 80 260 311 8 89 -9 250 -36 340 -23 80
-74 157 -119 180 -40 21 -107 27 -148 13z m102 -78 c15 -5 39 -30 56 -56 79
-125 92 -457 22 -578 -41 -71 -120 -77 -177 -12 -80 91 -111 399 -55 548 33
90 87 124 154 98z"/>
<path d="M10992 2910 c-179 -23 -321 -84 -431 -187 -126 -116 -188 -255 -198
-442 -24 -453 300 -740 811 -718 155 6 248 27 366 84 131 63 233 163 289 284
54 116 66 175 65 309 0 133 -17 210 -69 315 -82 168 -259 295 -474 340 -87 19
-268 26 -359 15z m381 -99 c280 -73 447 -286 447 -571 0 -309 -181 -521 -499
-587 -96 -20 -346 -13 -436 11 -159 43 -305 148 -373 267 -90 159 -97 416 -15
587 55 115 206 238 347 282 141 45 381 49 529 11z"/>
<path d="M11061 2663 c-38 -8 -106 -84 -131 -149 -31 -80 -40 -299 -16 -422
16 -90 54 -183 89 -220 56 -61 162 -81 223 -43 105 64 155 265 125 495 -34
253 -133 369 -290 339z m113 -94 c15 -12 37 -42 50 -67 40 -81 51 -146 51
-312 0 -140 -3 -160 -23 -207 -32 -69 -61 -95 -107 -95 -106 0 -166 139 -168
392 0 93 4 140 17 184 33 110 113 157 180 105z"/>
</g>
</svg>
