<?xml version="1.0" encoding="iso-8859-1"?>
<!-- Generator: Adobe Illustrator 19.0.0, SVG Export Plug-In . SVG Version: 6.00 Build 0)  -->
<svg version="1.1" id="Capa_1" xmlns="http://www.w3.org/2000/svg" xmlns:xlink="http://www.w3.org/1999/xlink" x="0px" y="0px"
	 viewBox="0 0 511.999 511.999" style="enable-background:new 0 0 511.999 511.999;" xml:space="preserve">
<path style="fill:#FFC266;" d="M136.75,36.72c-0.17-0.01-0.33-0.01-0.5-0.01c-55.215,0-100,44.762-100,100c0,0.1,0,0.19,0,0.29
	c0.16,54.818,44.505,99.459,99.5,99.7c13.97,0.07,28.62-2.72,43.38-8.94L236.25,137v-0.29
	C236.25,81.717,191.822,36.981,136.75,36.72z"/>
<path style="fill:#FF6564;" d="M417.47,176H134.82c125.497,146.597,138.61,161.809,141.43,165.46
	c3.921-5.03-9.801,11.347,141.34-165.36L417.47,176z"/>
<g>
	<path style="fill:#F5F5F5;" d="M101.44,137c2.185,2.553-9.865-11.525,33.38,39h282.93l33.3-39C436.238,137,117.784,137,101.44,137z
		"/>
	<polygon style="fill:#F5F5F5;" points="335.75,502 215.75,502 275.75,462 	"/>
</g>
<path d="M195.75,166c-5.52,0-10,4.48-10,10s4.48,10,10,10c5.52,0,10-4.48,10-10S201.27,166,195.75,166z"/>
<path d="M475.75,20c5.522,0,10-4.477,10-10s-4.478-10-10-10h-80c-4.012,0-7.636,2.397-9.204,6.09L335.178,127h-89.357
	c-4.842-55.711-51.456-99.904-108.824-100.278c-0.059-0.002-0.119-0.001-0.177-0.003c-0.024,0-0.047-0.004-0.071-0.004
	c-0.013,0-0.025,0.002-0.037,0.002c-0.153-0.003-0.305-0.007-0.463-0.007c-60.683,0-110,49.183-110,110v0.319
	c0.175,60.39,48.954,109.367,109.38,109.67c0.04,0,0.079,0.006,0.12,0.006c0.03,0,0.059-0.004,0.089-0.005
	c0.142,0.001,0.283,0.001,0.426,0.001c13.362,0,26.739-2.377,39.867-7.06l89.618,104.702v112.304l-55.547,37.031
	c-3.667,2.444-5.301,7.001-4.024,11.218c1.277,4.218,5.165,7.103,9.571,7.103h120c4.406,0,8.294-2.885,9.571-7.103
	c1.276-4.217-0.357-8.773-4.024-11.218l-55.547-37.031V345.539l0.227-0.29l172.68-201.746C464.2,137.027,459.585,127,451.06,127
	h-94.15l45.458-107H475.75z M125.75,180.82v45.262c-16.763-1.932-32.49-8.496-45.667-19.063l36.707-36.707l8.961,10.47
	C125.752,180.795,125.75,180.807,125.75,180.82z M46.847,147h49.99l6.909,8.072L65.94,192.877
	C55.329,179.644,48.753,163.839,46.847,147z M46.78,127c1.82-17.065,8.426-33.072,19.16-46.457L112.397,127H46.78z M146.75,47.341
	c16.79,1.937,32.531,8.51,45.707,19.089l-45.707,46.13V47.341z M126.75,113.067L80.081,66.398
	C93.515,55.62,109.6,49.001,126.75,47.214V113.067z M206.59,80.581c10.716,13.377,17.312,29.37,19.13,46.419h-65.123L206.59,80.581z
	 M145.75,226.217v-22.071l16.261,18.998C156.607,224.634,151.178,225.664,145.75,226.217z M248.777,492l26.973-17.981L302.723,492
	H248.777z M276.25,325.855l-89.407-104.457c-0.056-0.068-0.114-0.133-0.171-0.2L123.163,147c74.719,0,127.476,0,203.52,0l-8.072,19
	h-82.86c-5.522,0-10,4.477-10,10s4.478,10,10,10h74.364l-29.207,68.75c-2.159,5.083,0.211,10.955,5.294,13.114
	c5.038,2.143,10.936-0.168,13.114-5.293L331.844,186h64.111L276.25,325.855z M429.336,147l-16.262,19h-72.732l8.072-19H429.336z"/>
<g>
</g>
<g>
</g>
<g>
</g>
<g>
</g>
<g>
</g>
<g>
</g>
<g>
</g>
<g>
</g>
<g>
</g>
<g>
</g>
<g>
</g>
<g>
</g>
<g>
</g>
<g>
</g>
<g>
</g>
</svg>
