<?xml version="1.0" encoding="iso-8859-1"?>
<!-- Generator: Adobe Illustrator 19.0.0, SVG Export Plug-In . SVG Version: 6.00 Build 0)  -->
<svg version="1.1" id="Capa_1" xmlns="http://www.w3.org/2000/svg" xmlns:xlink="http://www.w3.org/1999/xlink" x="0px" y="0px"
	 viewBox="0 0 512 512" style="enable-background:new 0 0 512 512;" xml:space="preserve">
<g>
	<circle style="fill:#82DBD2;" cx="481.995" cy="30" r="19.997"/>
	<circle style="fill:#82DBD2;" cx="439.566" cy="326.987" r="20"/>
</g>
<path style="fill:#F5F5F5;" d="M255.727,256.272c54.669,54.679,89.489,108.499,77.779,120.209c-0.73,0.73-1.62,1.28-2.66,1.65
	c-15.73,5.67-66.269-28.15-117.549-79.429s-85.099-101.819-79.429-117.549c0.37-1.04,0.92-1.93,1.65-2.66
	C147.228,166.783,201.048,201.603,255.727,256.272z"/>
<path style="fill:#A4AAEF;" d="M330.847,378.131l-57.589,22.23l-0.5-1.28c-34.81-21.19-69.929-54.269-87.749-72.079
	c-35.59-35.61-58.319-64.169-72.319-87.109l-1.3-0.5l22.48-58.239c-5.67,15.73,28.15,66.269,79.429,117.549
	S315.117,383.801,330.847,378.131z"/>
<path style="fill:#FF8FC1;" d="M273.257,400.361v0.01L10,502l101.389-262.607l1.3,0.5c14,22.94,36.73,51.499,72.319,87.109
	c17.82,17.81,52.939,50.89,87.749,72.079L273.257,400.361z"/>
<path style="fill:#82DBD2;" d="M213.298,72.434c7.81,7.81,7.81,20.47,0,28.28s-20.47,7.81-28.28,0c-7.82-7.81-7.82-20.47,0-28.28
	C192.828,64.624,205.488,64.624,213.298,72.434z"/>
<path d="M489.065,121.924c3.91-3.9,3.91-10.23,0-14.14c-3.9-3.9-10.24-3.9-14.14,0c-3.91,3.91-3.91,10.24,0,14.14
	C478.825,125.834,485.165,125.834,489.065,121.924z"/>
<path d="M390.076,22.935c-3.91,3.9-3.91,10.24,0,14.14c3.9,3.91,10.23,3.91,14.14,0c3.9-3.9,3.9-10.24,0-14.14
	C400.306,19.025,393.976,19.025,390.076,22.935z"/>
<path d="M375.926,206.783c-3.9,3.9-3.9,10.23,0,14.14c3.91,3.9,10.24,3.9,14.15,0c3.9-3.91,3.9-10.24,0-14.14
	C386.166,202.873,379.836,202.873,375.926,206.783z"/>
<path d="M291.077,121.924c-3.9,3.91-3.9,10.24,0,14.15c3.91,3.9,10.24,3.9,14.14,0c3.91-3.91,3.91-10.24,0-14.15
	C301.317,118.024,294.987,118.024,291.077,121.924z"/>
<path d="M150.728,347.132c-3.91,3.91-3.91,10.24,0,14.14c3.9,3.91,10.23,3.91,14.14,0c3.9-3.9,3.9-10.23,0-14.14
	C160.958,343.232,154.628,343.232,150.728,347.132z"/>
<path d="M420.48,100.003c9.045,1.296,17.936-1.668,24.396-8.127s9.424-15.352,8.131-24.397c-0.781-5.467-5.848-9.265-11.314-8.484
	c-5.467,0.781-9.266,5.847-8.484,11.314c0.394,2.753-0.508,5.458-2.473,7.423c-1.965,1.965-4.67,2.867-7.425,2.472
	c-9.959-1.42-19.547,2.43-25.805,9.646c-5.456,6.291-7.908,14.634-6.729,22.886c0.431,3.035-0.713,5.927-2.943,7.861
	c-1.12,0.972-3.508,2.535-6.954,2.037c-9.705-1.383-19.373,2.231-25.797,9.64c-5.455,6.291-7.906,14.633-6.726,22.884
	c0.434,3.051-0.735,5.943-2.944,7.859c-3.74,3.246-7.109,1.757-11.086,1.757c-8.302,0-16.202,3.619-21.674,9.93
	c-5.455,6.291-7.906,14.632-6.726,22.882c0.059,0.415,0.089,0.851,0.089,1.297c0,2.5-1.105,4.893-3.033,6.564
	c-1.121,0.972-3.516,2.527-6.949,2.037c-5.464-0.785-10.533,3.015-11.316,8.482c-0.782,5.467,3.016,10.534,8.482,11.316
	c8.197,1.175,16.556-1.235,22.886-6.724c6.312-5.472,9.931-13.372,9.931-21.675c0-4.246-1.493-7.341,1.747-11.077
	c1.671-1.927,4.063-3.033,6.563-3.033c1.909,0,13.55,2.587,24.196-6.653c7.182-6.233,11.058-15.807,9.633-25.793
	c-0.492-3.437,1.065-5.831,2.037-6.952c1.902-2.193,4.781-3.38,7.856-2.943c8.26,1.183,16.596-1.27,22.887-6.725
	c7.401-6.417,11.028-16.08,9.64-25.799c-0.491-3.439,1.066-5.834,2.039-6.956C414.519,100.757,417.409,99.566,420.48,100.003z"/>
<path d="M477.698,263.842c1.939-5.171-0.682-10.936-5.853-12.874c-48.699-18.258-104.215-6.626-141.437,29.63
	c-3.956,3.854-4.039,10.185-0.186,14.141c3.848,3.95,10.177,4.045,14.141,0.186c31.7-30.877,78.98-40.781,120.461-25.229
	C470.001,271.635,475.76,269.012,477.698,263.842z"/>
<path d="M224.538,185.403c2.593,0,5.186-1.003,7.144-3.002c36.478-37.238,48.21-92.857,29.89-141.699
	c-1.939-5.17-7.704-7.792-12.875-5.851c-5.172,1.939-7.791,7.704-5.852,12.875c15.604,41.599,5.614,88.967-25.45,120.679
	c-3.865,3.945-3.799,10.276,0.146,14.141C219.487,184.452,222.013,185.403,224.538,185.403z"/>
<path d="M503.206,8.794c-11.724-11.724-30.696-11.725-42.422,0c-11.725,11.725-11.725,30.698,0,42.422
	c11.724,11.724,30.696,11.725,42.422,0C514.931,39.491,514.932,20.518,503.206,8.794z M489.064,37.073L489.064,37.073
	c-3.908,3.907-10.228,3.908-14.137,0c-3.902-3.902-3.916-10.221,0-14.138c3.908-3.907,10.228-3.908,14.137,0
	C492.965,26.837,492.98,33.157,489.064,37.073z"/>
<path d="M418.355,305.771c-11.697,11.698-11.697,30.733,0,42.432c11.724,11.722,30.706,11.725,42.433,0
	c11.722-11.722,11.726-30.708,0-42.432C449.064,294.048,430.082,294.045,418.355,305.771z M446.645,334.06L446.645,334.06
	c-3.909,3.908-10.239,3.908-14.147,0c-3.9-3.901-3.9-10.248,0-14.148c3.908-3.908,10.239-3.908,14.147,0
	C450.552,323.82,450.553,330.152,446.645,334.06z"/>
<path d="M220.369,65.363c-11.717-11.717-30.692-11.729-42.418-0.005c-11.732,11.718-11.745,30.701-0.004,42.427
	c11.724,11.723,30.696,11.725,42.422,0C232.065,96.089,232.065,77.058,220.369,65.363z M206.227,93.642
	C206.227,93.643,206.227,93.643,206.227,93.642c-3.887,3.887-10.21,3.929-14.142-0.004c-3.891-3.885-3.933-10.202,0.004-14.133
	c3.907-3.908,10.23-3.908,14.137,0C210.134,83.412,210.135,89.735,206.227,93.642z"/>
<path d="M361.787,8.793c-3.906-3.905-10.236-3.905-14.143,0l-7.068,7.069l-7.068-7.069c-3.904-3.905-10.234-3.905-14.143,0
	c-3.905,3.905-3.905,10.237,0,14.142l7.069,7.069l-7.069,7.069c-3.905,3.905-3.905,10.237,0,14.142
	c3.906,3.905,10.236,3.905,14.143,0l7.068-7.069l7.068,7.069c3.905,3.905,10.235,3.906,14.143,0c3.905-3.905,3.905-10.237,0-14.142
	l-7.069-7.069l7.069-7.069C365.693,19.03,365.693,12.698,361.787,8.793z"/>
<path d="M503.206,150.211c-3.906-3.905-10.236-3.905-14.143,0l-7.068,7.069l-7.068-7.069c-3.905-3.905-10.235-3.905-14.143,0
	c-3.905,3.905-3.905,10.237,0,14.142l7.069,7.069l-7.069,7.069c-3.905,3.905-3.905,10.237,0,14.142
	c3.906,3.905,10.236,3.905,14.143,0l7.068-7.069l7.068,7.069c3.905,3.905,10.235,3.906,14.143,0c3.905-3.905,3.905-10.237,0-14.142
	l-7.069-7.069l7.069-7.069C507.112,160.448,507.112,154.116,503.206,150.211z"/>
<path d="M2.929,509.071c2.782,2.781,6.959,3.689,10.673,2.258c8.128-3.138,306.001-118.138,320.846-123.869
	c0.137-0.053,0.264-0.119,0.397-0.177c2.179-0.871,4.115-2.112,5.734-3.731c9.892-9.892,5.865-27.844-12.673-56.494
	c-15.062-23.279-38.184-50.928-65.106-77.857c-26.928-26.923-54.577-50.045-77.856-65.105
	c-28.651-18.538-46.603-22.564-56.494-12.673c-1.626,1.627-2.87,3.568-3.741,5.754c-0.055,0.126-0.117,0.246-0.167,0.376
	C124.326,178.108,0.836,497.974,0.672,498.399C-0.754,502.089,0.132,506.273,2.929,509.071z M143.935,232.184
	c15.043,22.328,37.166,48.462,62.292,73.589c25.128,25.127,51.262,47.25,73.589,62.292c7.301,4.919,13.656,8.716,19.192,11.636
	l-23.748,9.167c-33.015-20.679-66.122-51.89-83.178-68.936c-30.935-30.952-54.177-58.709-69.185-82.581l9.404-24.363
	C135.221,218.527,139.013,224.878,143.935,232.184z M248.657,263.342c23.77,23.774,44.748,48.452,59.072,69.485
	c13.817,20.291,17.521,31.477,18.013,35.892c-4.412-0.49-15.6-4.192-35.898-18.017c-21.035-14.327-45.709-35.306-69.475-59.071
	c-23.767-23.767-44.746-48.441-59.071-69.476c-13.824-20.298-17.526-31.486-18.017-35.897c4.415,0.492,15.601,4.195,35.892,18.013
	C200.206,218.595,224.884,239.574,248.657,263.342z M97.1,304.167c7.44,9.359,15.663,19.028,24.599,28.889
	c3.714,4.098,10.038,4.399,14.125,0.695c4.092-3.708,4.404-10.032,0.695-14.125c-11.681-12.891-22.088-25.408-31.003-37.259
	l8.558-22.166c15.535,22.165,36.943,46.936,63.865,73.873c15.576,15.567,44.127,42.562,74.449,63.633l-22.488,8.681
	c-11.98-8.922-24.581-19.318-37.507-30.967c-4.104-3.698-10.426-3.369-14.123,0.733c-3.698,4.103-3.369,10.426,0.733,14.123
	c9.884,8.907,19.602,17.114,29.037,24.549L27.461,484.54L97.1,304.167z"/>
<g>
</g>
<g>
</g>
<g>
</g>
<g>
</g>
<g>
</g>
<g>
</g>
<g>
</g>
<g>
</g>
<g>
</g>
<g>
</g>
<g>
</g>
<g>
</g>
<g>
</g>
<g>
</g>
<g>
</g>
</svg>
