<?xml version="1.0" encoding="iso-8859-1"?>
<!-- Generator: Adobe Illustrator 19.0.0, SVG Export Plug-In . SVG Version: 6.00 Build 0)  -->
<svg version="1.1" id="Capa_1" xmlns="http://www.w3.org/2000/svg" xmlns:xlink="http://www.w3.org/1999/xlink" x="0px" y="0px"
	 viewBox="0 0 512.001 512.001" style="enable-background:new 0 0 512.001 512.001;" xml:space="preserve">
<g>
	<path style="fill:#FFC266;" d="M436.044,198.624l-206.638,78.335l92.855-200.328c-27.998-12.919-59.167-20.119-92.025-20.119
		c-121.493,0-219.987,98.494-219.987,219.987s98.494,219.987,219.987,219.987s219.987-98.494,219.987-219.987
		C450.224,249.081,445.204,222.833,436.044,198.624z"/>
	<path style="fill:#FFC266;" d="M502.251,126.008l-37.468,15.109l-0.32-0.79c-20.179-35.398-48.427-65.626-82.235-88.165l-0.71-0.35
		l17.699-36.298C442.234,42.943,477.832,81.021,502.251,126.008z"/>
</g>
<g>
	<path style="fill:#FFC9B7;" d="M464.463,140.327l0.32,0.79l-95.354,38.468c-3.13-13.229-15.009-23.079-29.198-23.079
		c-3.77,0-7.39,0.7-10.709,1.97l51.997-106.664l0.71,0.35C416.036,74.701,444.284,104.929,464.463,140.327z"/>
	<path style="fill:#FFC9B7;" d="M399.477,215.193l-0.9-2.37l-169.17,64.136l76.006-163.98
		c-22.889-10.569-48.357-16.469-75.176-16.469c-99.244,0-179.989,80.745-179.989,179.989s80.745,179.989,179.989,179.989
		s179.989-80.745,179.989-179.989C410.226,254.981,406.426,234.342,399.477,215.193z"/>
</g>
<g>
	<path style="fill:#FF6564;" d="M369.428,179.585l-62.486,25.199l22.579-46.307c3.32-1.27,6.94-1.97,10.709-1.97
		C354.419,156.506,366.299,166.356,369.428,179.585z"/>
	<path style="fill:#FF6564;" d="M346.76,232.472c2.22,4.19,3.47,8.969,3.47,14.029c0,16.569-13.429,29.998-29.998,29.998
		c-14.129,0-25.979-9.769-29.158-22.919L346.76,232.472z"/>
</g>
<g>
	<circle style="fill:#FFC266;" cx="280.234" cy="366.489" r="29.998"/>
	<path style="fill:#FFC266;" d="M210.238,136.508c11.049,0,19.999,8.949,19.999,19.999c0,11.049-8.949,19.999-19.999,19.999
		c-11.049,0-19.999-8.949-19.999-19.999C190.239,145.457,199.188,136.508,210.238,136.508z"/>
	<path style="fill:#FFC266;" d="M170.24,336.496c11.049,0,19.999,8.949,19.999,19.999s-8.949,19.999-19.999,19.999
		c-11.049,0-19.999-8.949-19.999-19.999C150.241,345.445,159.191,336.496,170.24,336.496z"/>
</g>
<circle style="fill:#FF6564;" cx="140.242" cy="226.497" r="29.998"/>
<path d="M398.147,98.67c-5.52,0-9.999,4.48-9.999,9.999s4.48,9.999,9.999,9.999c5.53,0,9.999-4.48,9.999-9.999
	C408.146,103.15,403.676,98.67,398.147,98.67z"/>
<path d="M349.979,326.496c5.52,0,9.999-4.48,9.999-9.999s-4.48-9.999-9.999-9.999c-5.52,0-9.999,4.48-9.999,9.999
	S344.46,326.496,349.979,326.496z"/>
<path d="M209.988,406.492c-5.52,0-9.999,4.48-9.999,9.999c0,5.52,4.48,9.999,9.999,9.999s9.999-4.48,9.999-9.999
	C219.987,410.972,215.507,406.492,209.988,406.492z"/>
<path d="M189.989,306.498c5.52,0,9.999-4.48,9.999-9.999c0-5.52-4.48-9.999-9.999-9.999c-5.52,0-9.999,4.48-9.999,9.999
	C179.989,302.018,184.469,306.498,189.989,306.498z"/>
<path d="M109.994,286.499c-5.52,0-9.999,4.48-9.999,9.999c0,5.52,4.48,9.999,9.999,9.999c5.52,0,9.999-4.48,9.999-9.999
	C119.993,290.979,115.513,286.499,109.994,286.499z"/>
<path d="M404.343,7.083c-2.404-1.531-5.345-1.966-8.089-1.193c-2.743,0.773-5.026,2.681-6.275,5.242
	c-2.943,6.036-89.324,183.215-92.275,189.269c-4.031,8.268,4.304,17.054,12.728,13.656l195.309-78.775
	c2.643-1.066,4.706-3.209,5.67-5.892c0.964-2.682,0.738-5.648-0.622-8.153C485.656,74.933,448.848,35.46,404.343,7.083z
	 M374.689,166.577c-6.001-10.504-16.507-17.787-28.684-19.613l39.168-80.344c25.759,18.821,47.919,42.582,64.873,69.562
	L374.689,166.577z M336.315,166.84c7.357-1.36,14.863,1.448,19.46,7.366l-28.693,11.573L336.315,166.84z M468.892,128.58
	c-19.149-31.396-44.798-58.9-74.814-80.224l8.868-18.187c34.382,23.843,63.375,54.932,84.714,90.841L468.892,128.58z"/>
<path d="M229.987,506.486c127.105,0,229.987-102.865,229.987-229.987c0-28.02-4.989-55.412-14.826-81.414
	c-0.939-2.481-2.825-4.488-5.244-5.578c-2.419-1.09-5.171-1.174-7.653-0.233c-8.161,3.094-172.814,65.512-183.71,69.642
	c88.404-190.726,82.647-177.779,82.878-178.33c2.141-5.091-0.251-10.952-5.342-13.093l-0.035-0.016
	c-30.208-13.911-62.527-20.965-96.055-20.965C102.882,46.513,0,149.378,0,276.499C0,403.604,102.865,506.486,229.987,506.486z
	 M339.98,246.501c0,11.027-8.971,19.999-19.999,19.999c-6.211,0-11.837-2.827-15.536-7.389l35.51-13.462
	C339.967,245.932,339.98,246.215,339.98,246.501z M221.837,283.772c2.77,2.975,7.065,3.978,10.864,2.537l52.552-19.923
	c6.969,12.222,20.045,20.112,34.728,20.112c22.055,0,39.998-17.943,39.998-39.998c0-2.734-0.298-5.456-0.849-8.121l33.132-12.56
	c5.121,16.365,7.715,33.377,7.715,50.679c0,93.733-76.258,169.99-169.99,169.99s-169.99-76.258-169.99-169.99
	s76.258-169.99,169.99-169.99c21.386,0,42.115,3.912,61.766,11.624l-71.668,154.621
	C218.375,276.441,219.068,280.796,221.837,283.772z M229.987,66.512c27.294,0,53.701,5.114,78.64,15.217l-8.449,18.227
	c-22.313-8.923-45.876-13.445-70.192-13.445c-104.76,0-189.989,85.228-189.989,189.989s85.229,189.989,189.989,189.989
	s189.989-85.228,189.989-189.989c0-19.734-3.027-39.133-8.989-57.778l18.773-7.117c6.783,20.888,10.215,42.67,10.215,64.894
	c0,115.787-94.2,209.988-209.988,209.988s-209.988-94.2-209.988-209.988S114.199,66.512,229.987,66.512z"/>
<path d="M139.992,266.5c22.055,0,39.998-17.943,39.998-39.998s-17.943-39.998-39.998-39.998s-39.998,17.943-39.998,39.998
	S117.937,266.5,139.992,266.5z M139.992,206.504c11.027,0,19.999,8.971,19.999,19.999s-8.971,19.999-19.999,19.999
	c-11.027,0-19.999-8.971-19.999-19.999S128.964,206.504,139.992,206.504z"/>
<path d="M279.984,406.492c22.055,0,39.998-17.943,39.998-39.998s-17.943-39.998-39.998-39.998
	c-22.055,0-39.998,17.943-39.998,39.998S257.929,406.492,279.984,406.492z M279.984,346.495c11.027,0,19.999,8.971,19.999,19.999
	s-8.971,19.999-19.999,19.999s-19.999-8.971-19.999-19.999S268.956,346.495,279.984,346.495z"/>
<path d="M169.99,326.496c-16.541,0-29.998,13.457-29.998,29.998s13.457,29.998,29.998,29.998s29.998-13.457,29.998-29.998
	S186.531,326.496,169.99,326.496z M169.99,366.494c-5.514,0-9.999-4.486-9.999-9.999c0-5.514,4.486-9.999,9.999-9.999
	c5.514,0,9.999,4.486,9.999,9.999C179.989,362.008,175.504,366.494,169.99,366.494z"/>
<path d="M239.986,156.506c0-16.541-13.457-29.998-29.998-29.998s-29.998,13.457-29.998,29.998s13.457,29.998,29.998,29.998
	S239.986,173.047,239.986,156.506z M209.988,166.506c-5.514,0-9.999-4.486-9.999-9.999s4.486-9.999,9.999-9.999
	s9.999,4.486,9.999,9.999S215.501,166.506,209.988,166.506z"/>
<g>
</g>
<g>
</g>
<g>
</g>
<g>
</g>
<g>
</g>
<g>
</g>
<g>
</g>
<g>
</g>
<g>
</g>
<g>
</g>
<g>
</g>
<g>
</g>
<g>
</g>
<g>
</g>
<g>
</g>
</svg>
