<svg id="Layer_1" enable-background="new 0 0 128 128" height="512" viewBox="0 0 128 128" width="512" xmlns="http://www.w3.org/2000/svg"><g><path d="m112.066 33.712c-8.619-16.322-25.436-26.462-43.886-26.462h-.627c-27.01.345-48.983 22.6-48.983 49.609 0 18.965 11.05 36.528 28.152 44.744 1.645.789 3.396 1.179 5.135 1.179 2.213-.001 4.404-.632 6.314-1.874.234-.133.469-.292.692-.455 1.555-1.148 2.986-2.367 4.309-3.631 1.093.64 2.218 1.242 3.438 1.824 1.925.925 4.068 1.414 6.198 1.414 1.703 0 3.378-.303 4.947-.884l5.491 3.368c-.178.954.016 1.974.638 2.816l.823 1.113c1.087 1.471 3.071 1.865 4.633 1.014l12.561 15.659c.716.893 1.737 1.453 2.875 1.578.159.017.317.025.476.025.97 0 1.904-.327 2.672-.942 1.842-1.479 2.139-4.18.661-6.022l-12.319-15.356.283-.209c1.608-1.189 1.947-3.456.759-5.064l-.823-1.114c-.778-1.052-2.018-1.549-3.233-1.442l-1.744-7.756c4.34-6.45 6.935-14.879 4.693-25.571-.395-1.889-.056-3.809.955-5.407.773-1.223 1.183-2.632 1.244-4.08l5.629-1.135c1.516-.307 2.925-.894 4.181-1.741 2.599-1.724 4.425-4.497 5.007-7.604.505-2.596.107-5.223-1.151-7.594z" fill="#e6e7e8"/><g><path d="m93.295 46.989-17.173 3.462c-5.846 1.179-9.559 6.912-8.329 12.758 2.459 11.754-1.643 20.485-7.1 26.619-.541.612-1.098 1.193-1.663 1.754l.379.226c1.145.682 2.336 1.317 3.635 1.938 1.792.861 3.785 1.316 5.765 1.316 2.541 0 5.012-.725 7.15-2.097.262-.152.524-.331.777-.516 8.617-6.371 18.126-17.611 14.487-34.97-.455-2.178-.035-4.367 1.088-6.145.831-1.314 1.181-2.844 1.091-4.366z" fill="#6dc9f7"/><path d="m89.599 96.701-10.535-46.843-2.942.593c-1.117.225-2.154.619-3.096 1.146l9.027 40.137-16.095-9.871c-.897 1.958-1.986 3.755-3.193 5.399l21.344 13.091 14.574 18.167c1.135 1.415 3.202 1.642 4.616.507 1.415-1.135 1.641-3.201.507-4.616z" fill="#0089ef"/><path d="m65.958 81.863c-.361.787-.759 1.542-1.177 2.278l16.036 9.835c.461.283 1.036-.128.917-.656l-.465-2.066z" fill="#fff"/><path d="m108.235 37.116c-.527 2.81-2.158 5.356-4.579 6.962-1.116.753-2.396 1.305-3.826 1.593l-6.536 1.317-17.173 3.462c-5.846 1.179-9.559 6.912-8.329 12.758 2.459 11.754-1.643 20.485-7.1 26.619-2.032 2.296-4.265 4.227-6.423 5.82-.188.138-.389.276-.59.389-3.149 2.045-7.125 2.296-10.525.665-16.32-7.84-27.585-24.537-27.585-43.842 0-26.644 21.426-48.271 47.995-48.609h.615c18.653 0 34.861 10.512 43.002 25.929 1.192 2.246 1.493 4.679 1.054 6.937z" fill="#6dc9f7"/><path d="m108.235 37.116c-.527 2.81-2.158 5.356-4.579 6.962-1.116.753-2.396 1.305-3.826 1.593l-6.536 1.317-17.173 3.462c-5.846 1.179-9.559 6.912-8.329 12.758 2.459 11.754-1.643 20.485-7.1 26.619-2.032 2.296-4.265 4.227-6.423 5.82-.188.138-.389.276-.59.389-12.369-7.326-20.196-20.849-20.196-35.362 0-1.555.088-3.098.263-4.616.038-.402.088-.803.151-1.205.088-.589.176-1.167.288-1.744.075-.402.151-.79.238-1.179.188-.878.401-1.744.652-2.597.1-.389.213-.765.339-1.141.176-.552.364-1.104.577-1.656.138-.376.276-.753.427-1.116.063-.163.138-.326.213-.489.263-.665.552-1.317.878-1.97.163-.364.339-.727.527-1.079.263-.527.552-1.041.853-1.555.201-.351.401-.703.615-1.054 7.225-11.792 20.247-19.682 35.061-19.682 13.549.001 26.043 6.599 33.67 17.525z" fill="#fa759e"/><g fill="#fff"><path d="m40.435 55.187-9.911-3.293c-.77-.256-1.601.161-1.857.931s.161 1.601.931 1.857l9.911 3.293c.77.256 1.601-.161 1.857-.931s-.161-1.601-.931-1.857z"/><path d="m42.582 48.727-9.911-3.293c-.77-.256-1.601.161-1.857.931s.161 1.601.931 1.857l9.911 3.293c.77.256 1.601-.161 1.857-.931.255-.77-.161-1.602-.931-1.857z"/><path d="m44.729 42.266-9.911-3.293c-.77-.256-1.601.161-1.857.931s.161 1.601.931 1.857l9.911 3.293c.77.256 1.601-.161 1.857-.93.255-.771-.161-1.602-.931-1.858z"/></g><g fill="#3a2c60"><path d="m27.718 52.509c-.429 1.292.273 2.692 1.564 3.122l9.911 3.293c.257.085.519.126.776.126 1.035 0 2.001-.656 2.345-1.69.208-.626.16-1.295-.135-1.885-.295-.589-.803-1.028-1.429-1.236l-9.912-3.294c-1.292-.427-2.691.273-3.12 1.564zm1.898.631c.065-.196.25-.321.446-.321.048 0 .098.008.146.024l9.911 3.294c.161.053.239.17.271.234s.079.197.026.357c-.082.245-.347.38-.593.297l-9.911-3.293c-.244-.081-.377-.347-.296-.592z"/><path d="m29.866 46.049c-.43 1.291.272 2.691 1.563 3.121l9.911 3.294h.001c.257.085.518.126.774.126 1.035 0 2.002-.656 2.346-1.69.429-1.292-.273-2.692-1.564-3.122l-9.911-3.293c-.625-.207-1.294-.159-1.885.136-.589.295-1.028.803-1.235 1.428zm1.898.631c.053-.16.169-.239.234-.271.064-.031.199-.077.357-.025l9.911 3.293c.245.081.378.348.297.593s-.348.381-.594.297l-9.91-3.294c-.244-.083-.377-.348-.295-.593z"/><path d="m33.576 42.709 9.911 3.294c.256.085.519.127.781.127.379 0 .755-.088 1.104-.263.589-.296 1.028-.804 1.236-1.429.43-1.292-.271-2.692-1.563-3.122l-9.911-3.293c-1.289-.427-2.691.272-3.121 1.564-.208.626-.16 1.296.136 1.886.295.589.803 1.029 1.427 1.236zm.334-2.49c.054-.16.17-.239.235-.271.043-.021.118-.05.21-.05.045 0 .095.007.147.024l9.911 3.293c.245.081.378.348.296.593-.053.16-.169.239-.234.271-.064.032-.196.079-.357.025l-9.912-3.294c-.16-.053-.238-.169-.271-.234-.032-.064-.079-.197-.025-.357z"/><path d="m19.503 69.348c-.191-.518-.766-.784-1.285-.591-.518.191-.783.767-.591 1.284.44 1.189.93 2.375 1.458 3.522.168.366.531.582.909.582.14 0 .282-.029.417-.092.502-.23.722-.824.491-1.326-.506-1.1-.977-2.238-1.399-3.379z"/><path d="m108.066 29.712c-8.619-16.322-25.436-26.462-43.886-26.462h-.627c-27.01.345-48.983 22.6-48.983 49.609 0 4.246.538 8.465 1.599 12.539.139.534.683.852 1.22.716.535-.14.855-.686.716-1.22-1.019-3.91-1.535-7.959-1.535-12.035 0-25.921 21.087-47.279 46.995-47.609h.615c17.707 0 33.846 9.731 42.119 25.397 1.042 1.963 1.372 4.134.954 6.284-.485 2.585-1.997 4.886-4.155 6.317-1.042.703-2.208 1.188-3.464 1.442l-23.709 4.779c-3.067.619-5.705 2.399-7.426 5.015-1.741 2.644-2.339 5.814-1.685 8.928 2.026 9.686-.285 18.349-6.87 25.751-1.781 2.013-3.89 3.924-6.265 5.678-.157.114-.323.23-.543.356-2.874 1.865-6.443 2.093-9.547.603-8.515-4.09-15.567-10.557-20.394-18.7-.282-.475-.896-.632-1.37-.351-.475.281-.632.896-.351 1.37 5.028 8.484 12.376 15.222 21.248 19.484 1.645.789 3.396 1.179 5.135 1.179 2.213 0 4.404-.632 6.314-1.874.234-.133.469-.292.692-.455 1.555-1.148 2.986-2.367 4.309-3.631 1.093.64 2.218 1.242 3.438 1.824 1.926.926 4.069 1.415 6.198 1.415 1.698 0 3.362-.318 4.926-.897l5.512 3.381c-.178.954.016 1.974.638 2.815l.823 1.113c1.087 1.471 3.071 1.865 4.633 1.014l12.561 15.658c.716.893 1.737 1.453 2.875 1.578.159.017.317.025.476.025.97 0 1.904-.327 2.672-.942 1.842-1.479 2.139-4.18.661-6.022l-12.317-15.355.283-.209c1.608-1.189 1.947-3.456.758-5.063l-.823-1.114c-.778-1.052-2.018-1.549-3.233-1.442l-1.746-7.762c4.34-6.45 6.936-14.875 4.695-25.565-.395-1.889-.056-3.809.955-5.407.772-1.222 1.168-2.63 1.226-4.076l5.647-1.138c1.516-.307 2.925-.894 4.181-1.741 2.599-1.724 4.425-4.498 5.007-7.604.504-2.599.106-5.226-1.152-7.596zm-27.422 66.585c-.184.136-.348.29-.498.452l-15.948-9.781c.824-1.197 1.551-2.421 2.184-3.672l15.149 9.291c.344.211.778.195 1.105-.039s.482-.641.394-1.033l-8.855-39.373c.679-.313 1.394-.559 2.146-.71l1.983-.4 9.063 40.294zm-1.204-7.338-1.338-.821c.59-.515 1.173-1.057 1.752-1.625l.386 1.716c-.266.249-.532.492-.8.73zm-10.631 5.103c-1.831 0-3.674-.421-5.334-1.219-1.005-.48-1.934-.977-2.84-1.492.269-.286.548-.568.805-.858.078-.088.148-.179.226-.267.807.45 1.624.882 2.464 1.284 1.692.812 3.526 1.146 5.33 1.033l1.985 1.218c-.861.191-1.743.301-2.636.301zm34.217 20.975c.788.982.63 2.422-.353 3.21-.476.382-1.073.554-1.678.489-.606-.066-1.151-.365-1.533-.842l-12.48-15.558 3.675-2.718zm-11.561-64.238c-1.29 2.039-1.723 4.484-1.222 6.885 1.916 9.136.065 16.526-3.364 22.369l-.502-2.234c2.719-5.311 4.053-11.866 2.389-19.802-.753-3.603.368-7.164 2.707-9.639l.888-.179c-.105.925-.4 1.815-.896 2.6z"/><circle cx="53.481" cy="77.607" r="3.318"/></g></g></g></svg>