<svg id="Capa_1" enable-background="new 0 0 510.302 510.302" height="512" viewBox="0 0 510.302 510.302" width="512" xmlns="http://www.w3.org/2000/svg"><g><g><g><path d="m252.6 214.411 11.642-161.858c0-30.271-29.282-51.911-58.219-43.025l-53.237 15.101c-9.055 2.78-18.755 2.633-27.721-.42l-29.241-9.959c-29.196-9.944-59.518 11.761-59.518 42.604l-7.782 81.414c-8.121 84.96-7.02 170.549 3.286 255.272l4.497 36.968c0 26.129 21.182 47.311 47.311 47.311h168.982 174.96c26.129 0 47.311-21.182 47.311-47.311v-12.253c0-84.043-67.063-151.107-151.107-151.107l-19.493-1.067c-28.537.002-51.671-23.132-51.671-51.67z" fill="#0182fc"/></g></g><g><g><path d="m322.697 266.083h-18.426c-28.537 0-51.672-23.134-51.672-51.672l11.642-161.858c0-30.271-29.282-51.911-58.219-43.025l-1.91.542c17.18 6.061 30.129 22.358 30.129 42.484l-11.641 161.857c0 28.538 23.134 51.672 51.672 51.672h18.426c84.043 0 152.174 68.13 152.174 152.173v12.253c0 26.129-21.182 47.311-47.311 47.311h30c26.129 0 47.311-21.182 47.311-47.311v-12.253c0-70.158-47.478-129.228-112.058-146.83-4.783-1.304-9.159 2.11-14.117 1.274-8.292-1.399-17.312-6.617-26-6.617z" fill="#0172fb"/></g></g><g><g><path d="m135.651 477.82h-52.033c-26.129 0-47.311-21.182-47.311-47.311l-4.497-36.968c-2.932-24.106-5.093-48.284-6.534-72.497 3.628-.361 7.307-.548 11.031-.548 60.759 0 110.014 49.255 110.014 110.013-.001 16.938-3.833 32.979-10.67 47.311z" fill="#d8ecfe"/></g></g><g><g><path d="m36.306 320.495c-3.723 0-7.403.188-11.031.548.022.366.047.732.069 1.098 51.684 9.018 90.975 54.102 90.975 108.367 0 16.938-3.832 32.979-10.669 47.311h30c6.838-14.332 10.669-30.374 10.669-47.311.001-60.758-49.254-110.013-110.013-110.013z" fill="#b3dafe"/></g></g><g><g><path d="m322.697 266.083h-18.426c-28.538 0-51.672-23.134-51.672-51.671l11.642-161.858c0-30.271-29.282-51.911-58.22-43.025l-46.827 13.281v215.175c0 48.396 39.232 87.628 87.628 87.628h196.594c-27.819-36.195-71.54-59.53-120.719-59.53z" fill="#d8ecfe"/></g></g><g><g><path d="m322.697 266.083h-18.426c-28.538 0-51.672-23.134-51.672-51.672l11.642-161.858c0-30.271-29.282-51.911-58.22-43.025l-1.91.542c17.18 6.061 30.129 22.358 30.129 42.484l-11.64 161.857c0 28.537 23.134 51.672 51.672 51.672h18.426c49.179 0 92.9 23.335 120.719 59.53h30c-27.82-36.195-71.541-59.53-120.72-59.53z" fill="#b3dafe"/></g></g><g><g><path d="m285.835 145.909h-179.518c-11.559 0-20.929-9.37-20.929-20.929v-6.873c0-11.559 9.37-20.929 20.929-20.929h179.518c11.559 0 20.929 9.37 20.929 20.929v6.873c.001 11.558-9.37 20.929-20.929 20.929z" fill="#60b7ff"/></g></g><g><g><path d="m285.835 97.177h-30c11.559 0 20.929 9.37 20.929 20.929v6.873c0 11.559-9.37 20.929-20.929 20.929h30c11.559 0 20.929-9.37 20.929-20.929v-6.873c.001-11.559-9.37-20.929-20.929-20.929z" fill="#26a6fe"/></g></g><g><g><path d="m192.048 256.844-47.896 18.807c-10.759 4.225-22.906-1.072-27.131-11.832l-2.512-6.398c-4.225-10.759 1.072-22.906 11.831-27.131l47.896-18.807c10.759-4.225 22.906 1.072 27.131 11.831l2.512 6.398c4.225 10.76-1.072 22.907-11.831 27.132z" fill="#60b7ff"/></g></g><g><g><path d="m239.613 321.841-40.668 31.526c-9.135 7.082-22.282 5.417-29.364-3.718l-4.211-5.432c-7.082-9.135-5.417-22.282 3.718-29.364l40.668-31.526c9.135-7.082 22.282-5.417 29.364 3.718l4.211 5.432c7.082 9.136 5.417 22.282-3.718 29.364z" fill="#60b7ff"/></g></g><g><g><path d="m203.879 229.713-2.512-6.398c-4.225-10.759-16.372-16.056-27.131-11.831l-8.857 3.478c2.579 2.17 4.669 4.996 5.988 8.354l2.512 6.398c4.225 10.759-1.072 22.906-11.832 27.131l-39.039 15.329c5.684 4.784 13.742 6.384 21.143 3.478l47.896-18.808c10.76-4.225 16.057-16.372 11.832-27.131z" fill="#26a6fe"/></g></g><g><g><path d="m243.191 292.586-4.211-5.432c-7.082-9.135-20.229-10.8-29.364-3.718l-2.192 1.699c.593.599 1.167 1.227 1.696 1.91l4.211 5.432c7.082 9.135 5.417 22.282-3.718 29.364l-38.476 29.827c7.34 7.411 19.215 8.36 27.668 1.808l40.668-31.526c9.135-7.082 10.8-20.229 3.718-29.364z" fill="#26a6fe"/></g></g><g><g><path d="m487.344 502.801h-464.387c-8.222 0-14.887-6.665-14.887-14.887v-38.517c0-8.222 6.665-14.887 14.887-14.887h464.387c8.222 0 14.887 6.665 14.887 14.887v38.517c0 8.222-6.665 14.887-14.887 14.887z" fill="#9c9c9c"/></g></g><g><g><path d="m487.344 434.511h-30c8.222 0 14.887 6.665 14.887 14.887v38.517c0 8.222-6.665 14.887-14.887 14.887h30c8.222 0 14.887-6.665 14.887-14.887v-38.517c0-8.222-6.665-14.887-14.887-14.887z" fill="#838383"/></g></g><path d="m487.344 427.011h-4.973v-8.754c0-35.516-11.413-69.136-33.003-97.226-20.905-27.197-50.507-47.263-83.352-56.5-3.988-1.121-8.129 1.202-9.25 5.189-1.122 3.988 1.202 8.129 5.189 9.25 24.664 6.936 47.307 20.624 65.126 39.142h-174.898c1.44-2.859 2.397-5.972 2.811-9.242.954-7.534-1.083-14.988-5.735-20.989l-4.211-5.432c-4.653-6.001-11.364-9.832-18.897-10.786-7.533-.955-14.988 1.082-20.99 5.736l-18.064 14.003c-5.257-5.863-9.561-12.4-12.877-19.501l20.569-8.077h.001c14.59-5.73 21.8-22.262 16.071-36.853l-2.512-6.398c-2.776-7.068-8.138-12.632-15.098-15.667-6.961-3.036-14.688-3.179-21.755-.403l-4.801 1.885v-52.979h82.774l-4.349 60.464c-.013.179-.02.358-.02.538 0 32.627 26.544 59.172 59.171 59.172h18.426c3.515 0 7.063.127 10.545.378.184.013.366.02.547.02 3.896 0 7.189-3.014 7.473-6.961.298-4.132-2.81-7.722-6.941-8.02-3.84-.277-7.75-.417-11.623-.417h-18.426c-24.27 0-44.031-19.675-44.17-43.913l4.406-61.261h21.329c15.676 0 28.429-12.753 28.429-28.43v-6.873c0-15.676-12.753-28.429-28.429-28.429h-16.747l2.631-36.586c.013-.179.02-.358.02-.538 0-16.833-7.764-32.224-21.3-42.228-13.515-9.988-30.475-12.899-46.541-7.991l-53.162 15.079c-.052.015-.103.03-.155.046-7.592 2.331-15.581 2.21-23.102-.351l-29.239-9.958c-16.234-5.528-33.545-2.975-47.492 7.009-13.845 9.911-21.828 25.32-21.942 42.325l-7.75 81.071c-2.343 24.51-3.942 49.418-4.754 74.031-.136 4.14 3.109 7.606 7.249 7.743.084.002.168.004.252.004 4.028-.001 7.358-3.197 7.492-7.253.801-24.303 2.38-48.896 4.693-73.097l7.782-81.414c.023-.237.034-.476.034-.714 0-12.251 5.713-23.368 15.676-30.499 9.961-7.131 22.327-8.957 33.924-5.006l29.24 9.958c9.447 3.217 19.419 3.674 29.048 1.378v56.992h-45.377c-15.676 0-28.429 12.753-28.429 28.429v6.873c0 15.676 12.753 28.43 28.429 28.43h45.377v58.869l-28.095 11.032c-7.068 2.775-12.633 8.137-15.669 15.098-3.035 6.96-3.178 14.687-.403 21.755l2.512 6.397c2.775 7.068 8.138 12.633 15.098 15.668 3.644 1.589 7.498 2.385 11.357 2.385 3.513 0 7.03-.66 10.398-1.982l13.328-5.233c3.842 8.447 8.88 16.21 15.011 23.202l-10.738 8.325c-6.002 4.652-9.833 11.364-10.787 18.898s1.083 14.988 5.735 20.989l4.211 5.432c5.596 7.218 14.005 11 22.5 11 6.085 0 12.216-1.941 17.387-5.95l33.907-26.286c2.433.079 8.704.104 9.374.104h192.849c9.178 12.572 16.161 26.303 20.819 40.812h-120.706c-4.142 0-7.5 3.358-7.5 7.5s3.358 7.5 7.5 7.5h124.64c1.954 9.547 2.949 19.356 2.949 29.332v8.754h-313.607c-1.857-63.185-53.831-114.015-117.457-114.015-1.317 0-2.652.03-3.977.075-1.261-23.734-1.816-47.499-1.637-71.149.031-4.142-3.301-7.525-7.443-7.557-.02 0-.038 0-.058 0-4.115 0-7.467 3.321-7.498 7.443-.383 50.829 2.535 102.184 8.672 152.639l3.961 32.565h-5.368c-12.344 0-22.387 10.043-22.387 22.387v38.517c0 12.344 10.043 22.387 22.387 22.387h464.387c12.344 0 22.387-10.043 22.387-22.387v-38.517c-.002-12.345-10.045-22.388-22.389-22.388zm-320.65-398.532 41.375-11.736c.051-.015.103-.03.155-.046 11.493-3.529 23.632-1.455 33.302 5.691 9.601 7.095 15.136 17.984 15.214 29.907l-2.688 37.381h-87.358zm-73.806 96.5v-6.873c0-7.405 6.024-13.429 13.429-13.429h179.518c7.405 0 13.429 6.024 13.429 13.429v6.873c0 7.405-6.024 13.43-13.429 13.43h-179.518c-7.405 0-13.429-6.024-13.429-13.43zm48.522 143.691c-3.338 1.311-6.988 1.243-10.276-.191s-5.821-4.063-7.132-7.401l-2.512-6.398c-1.311-3.339-1.243-6.989.19-10.277 1.434-3.288 4.063-5.821 7.401-7.132l47.897-18.807c1.591-.625 3.252-.937 4.912-.937 1.823 0 3.643.376 5.364 1.127 3.288 1.434 5.821 4.063 7.132 7.401l2.512 6.398c2.706 6.893-.7 14.702-7.592 17.409h.001zm52.94 78.77c-5.852 4.537-14.305 3.467-18.841-2.386l-4.211-5.432c-2.198-2.835-3.16-6.356-2.709-9.915.45-3.559 2.26-6.729 5.095-8.927l40.667-31.526c2.443-1.894 5.338-2.81 8.213-2.81 4.013 0 7.985 1.787 10.628 5.196l4.211 5.432c2.198 2.835 3.16 6.356 2.709 9.915s-2.26 6.728-5.095 8.927zm-155.095 45.195c-2.603-21.4-4.615-42.965-6.039-64.581 1.031-.031 2.067-.058 3.09-.058 55.355 0 100.596 44.103 102.447 99.015h-95.317zm455.476 95.279c0 4.073-3.314 7.387-7.387 7.387h-15.633v-26.646c0-4.142-3.358-7.5-7.5-7.5s-7.5 3.358-7.5 7.5v26.646h-64.473v-26.646c0-4.142-3.358-7.5-7.5-7.5s-7.5 3.358-7.5 7.5v26.646h-64.473v-26.646c0-4.142-3.358-7.5-7.5-7.5s-7.5 3.358-7.5 7.5v26.646h-64.473v-26.646c0-4.142-3.358-7.5-7.5-7.5s-7.5 3.358-7.5 7.5v26.646h-64.472v-26.646c0-4.142-3.358-7.5-7.5-7.5s-7.5 3.358-7.5 7.5v26.646h-64.473v-26.646c0-4.142-3.358-7.5-7.5-7.5s-7.5 3.358-7.5 7.5v26.646h-36.39c-4.073 0-7.387-3.314-7.387-7.387v-38.517c0-4.073 3.314-7.387 7.387-7.387h464.387c4.073 0 7.387 3.314 7.387 7.387z"/></g></svg>