<svg id="Capa_1" enable-background="new 0 0 510.587 510.587" height="512" viewBox="0 0 510.587 510.587" width="512" xmlns="http://www.w3.org/2000/svg"><g><g><g><path d="m325.549 503.087c-16.914 0-30.709-13.551-31.011-30.462l-7.292-426.04c-.433-21.457 16.842-39.085 38.303-39.085 21.461 0 38.736 17.628 38.302 39.084l-7.292 426.04c-.301 16.912-14.096 30.463-31.01 30.463z" fill="#9c9c9c"/></g></g><g><g><path d="m325.549 7.5c-5.327 0-10.395 1.089-15 3.05 13.945 5.94 23.628 19.904 23.302 36.035l-7.292 426.04c-.205 11.473-6.624 21.394-16.011 26.592 4.449 2.464 9.561 3.871 15 3.871 16.914 0 30.709-13.551 31.011-30.462l7.292-426.04c.434-21.458-16.841-39.086-38.302-39.086z" fill="#838383"/></g></g><g><g><path d="m185.04 503.087c-16.914 0-30.709-13.551-31.011-30.462l-7.292-426.04c-.433-21.457 16.842-39.085 38.303-39.085 21.461 0 38.736 17.628 38.302 39.084l-7.292 426.04c-.301 16.912-14.097 30.463-31.01 30.463z" fill="#9c9c9c"/></g></g><g><g><path d="m185.04 7.5c-5.327 0-10.395 1.089-15 3.05 13.945 5.94 23.628 19.904 23.302 36.035l-7.292 426.04c-.205 11.473-6.624 21.394-16.011 26.592 4.449 2.464 9.561 3.871 15 3.871 16.914 0 30.709-13.551 31.011-30.462l7.292-426.04c.434-21.458-16.841-39.086-38.302-39.086z" fill="#838383"/></g></g><g><g><path d="m185.04 454.605c-13.317 0-25.018-5.864-31.57-14.689l.56 32.708c.302 16.911 14.097 30.462 31.01 30.462 16.914 0 30.709-13.551 31.011-30.462l.56-32.708c-6.554 8.826-18.254 14.689-31.571 14.689z" fill="#eb5569"/></g></g><g><g><path d="m219.628 263.604.621-36.292c.331-19.334-15.251-35.185-34.588-35.185h-1.242c-19.337 0-34.919 15.851-34.588 35.185l.621 36.292c.323 18.872 15.714 34.001 34.588 34.001 18.874 0 34.265-15.13 34.588-34.001z" fill="#f07281"/></g></g><g><g><path d="m325.549 454.605c-13.317 0-25.018-5.864-31.57-14.689l.56 32.708c.302 16.911 14.097 30.462 31.01 30.462 16.914 0 30.709-13.551 31.011-30.462l.56-32.708c-6.553 8.826-18.254 14.689-31.571 14.689z" fill="#eb5569"/></g></g><g><g><path d="m186.359 454.569-.309 18.055c-.205 11.473-6.624 21.394-16.011 26.592 4.449 2.464 9.561 3.871 15 3.871 16.914 0 30.709-13.551 31.011-30.462l.56-32.708c-6.335 8.531-17.485 14.278-30.251 14.652z" fill="#e53950"/></g></g><g><g><path d="m326.869 454.569-.309 18.055c-.205 11.473-6.624 21.394-16.01 26.592 4.449 2.464 9.561 3.871 15 3.871 16.914 0 30.709-13.551 31.01-30.462l.56-32.708c-6.335 8.531-17.485 14.278-30.251 14.652z" fill="#e53950"/></g></g><g><g><path d="m360.137 263.604.621-36.292c.331-19.334-15.251-35.185-34.588-35.185h-1.242c-19.337 0-34.919 15.851-34.588 35.185l.621 36.292c.323 18.872 15.714 34.001 34.588 34.001 18.875 0 34.265-15.13 34.588-34.001z" fill="#f07281"/></g></g><g><g><path d="m185.661 192.126h-1.242c-5.135 0-10.001 1.127-14.379 3.131 12.107 5.543 20.452 17.854 20.209 32.053l-.621 36.292c-.231 13.501-8.175 25.083-19.588 30.584 4.54 2.189 9.628 3.417 15 3.417 18.874 0 34.265-15.129 34.588-34.001l.621-36.292c.331-19.332-15.251-35.184-34.588-35.184z" fill="#eb5569"/></g></g><g><g><path d="m326.17 192.126h-1.242c-5.135 0-10.001 1.127-14.379 3.131 12.107 5.543 20.452 17.854 20.209 32.053l-.621 36.292c-.231 13.501-8.175 25.083-19.588 30.584 4.54 2.189 9.628 3.417 15 3.417 18.874 0 34.265-15.129 34.588-34.001l.621-36.292c.331-19.332-15.251-35.184-34.588-35.184z" fill="#eb5569"/></g></g><g><path d="m217.758 13.746c-8.688-8.864-20.307-13.746-32.718-13.746-12.412 0-24.031 4.882-32.719 13.746s-13.333 20.581-13.084 32.912l.652 66.568c.041 4.117 3.391 7.426 7.498 7.426.025 0 .051 0 .075-.001 4.143-.04 7.467-3.431 7.427-7.573l-.654-66.646c-.168-8.346 2.957-16.226 8.799-22.188 5.843-5.96 13.658-9.244 22.006-9.244s16.162 3.283 22.004 9.245c5.843 5.962 8.968 13.842 8.799 22.211l-2.542 148.529c-7.661-6.696-17.353-10.359-27.639-10.359h-1.242c-10.288 0-19.98 3.663-27.641 10.36l-.889-51.962c-.07-4.098-3.414-7.372-7.496-7.372-.044 0-.088.001-.131.001-4.142.071-7.441 3.486-7.371 7.627l5.64 329.477c.372 20.859 17.647 37.829 38.51 37.829s38.138-16.97 38.509-37.834l7.291-426.017c.249-12.408-4.398-24.124-13.084-32.989zm-8.604 423.522c-.186.16-.367.329-.54.509-5.685 5.928-14.277 9.328-23.574 9.328-8.689 0-16.924-3.046-22.592-8.357-.467-.438-.979-.796-1.515-1.092l-2.433-142.072c7.268 5.943 16.524 9.521 26.54 9.521s19.271-3.578 26.538-9.52zm-44.056-229.542c5.136-5.223 11.997-8.1 19.321-8.1h1.242c7.324 0 14.186 2.876 19.319 8.1 5.131 5.218 7.888 12.12 7.769 19.436l-.622 36.338c-.264 14.672-12.412 26.605-27.089 26.605-14.682 0-26.832-11.941-27.088-26.62l-.622-36.307c-.122-7.322 2.636-14.23 7.77-19.452zm19.942 287.861c-12.737 0-23.285-10.361-23.512-23.091l-.279-16.316c7.061 3.825 15.313 5.925 23.791 5.925 8.55 0 16.756-2.09 23.79-5.911l-.279 16.297c-.227 12.735-10.774 23.096-23.511 23.096z"/><path d="m178.212 66.22 6.828-9.165 6.827 9.165c1.473 1.977 3.731 3.02 6.02 3.02 1.558 0 3.13-.484 4.475-1.486 3.322-2.475 4.009-7.173 1.534-10.495l-12.841-17.239c-1.415-1.9-3.646-3.02-6.015-3.02s-4.599 1.119-6.015 3.019l-12.843 17.239c-2.475 3.322-1.788 8.02 1.534 10.495 3.321 2.475 8.02 1.789 10.496-1.533z"/><path d="m169.15 354.601c0 4.142 3.357 7.5 7.5 7.5h16.778c4.143 0 7.5-3.358 7.5-7.5s-3.357-7.5-7.5-7.5h-16.778c-4.142 0-7.5 3.358-7.5 7.5z"/><path d="m193.429 369.496h-16.779c-4.143 0-7.5 3.358-7.5 7.5s3.357 7.5 7.5 7.5h16.778c4.143 0 7.5-3.358 7.5-7.5s-3.357-7.5-7.499-7.5z"/><path d="m171.563 238.752h26.954c4.143 0 7.5-3.358 7.5-7.5s-3.357-7.5-7.5-7.5h-26.954c-4.143 0-7.5 3.358-7.5 7.5s3.357 7.5 7.5 7.5z"/><path d="m198.517 246.999h-26.954c-4.143 0-7.5 3.358-7.5 7.5s3.357 7.5 7.5 7.5h26.954c4.143 0 7.5-3.358 7.5-7.5s-3.358-7.5-7.5-7.5z"/><path d="m358.131 380.87c.043 0 .087.001.131.001 4.082 0 7.426-3.274 7.496-7.372l5.592-326.763c.251-12.409-4.396-24.125-13.082-32.989-8.688-8.865-20.308-13.747-32.719-13.747s-24.03 4.882-32.718 13.746-13.333 20.581-13.083 32.967l7.291 426.046c.372 20.859 17.647 37.829 38.51 37.829s38.138-16.97 38.509-37.778l1.699-69.254c.102-4.141-3.173-7.58-7.315-7.682-4.097-.127-7.579 3.173-7.682 7.314l-.831 33.874c-.28.219-.553.453-.807.717-5.685 5.928-14.277 9.328-23.574 9.328-8.69 0-16.924-3.046-22.592-8.357-.468-.438-.98-.796-1.516-1.092l-2.432-142.072c7.268 5.943 16.524 9.521 26.54 9.521s19.272-3.578 26.54-9.521l-1.329 77.658c-.069 4.14 3.23 7.555 7.372 7.626zm-54.586-356.625c5.842-5.962 13.656-9.245 22.004-9.245s16.162 3.284 22.005 9.246 8.968 13.842 8.799 22.211l-2.542 148.53c-7.661-6.697-17.353-10.36-27.641-10.36h-1.242c-10.287 0-19.979 3.663-27.64 10.359l-2.543-148.553c-.168-8.346 2.957-16.226 8.8-22.188zm22.004 437.86c8.6 0 16.853-2.116 23.913-5.98l-.401 16.366c-.228 12.735-10.774 23.096-23.512 23.096s-23.284-10.361-23.512-23.091l-.279-16.316c7.061 3.825 15.313 5.925 23.791 5.925zm27.089-198.629c-.251 14.683-12.402 26.629-27.089 26.629-14.686 0-26.838-11.946-27.089-26.63 0-.002 0-.003 0-.004l-.621-36.283c0-.002 0-.003 0-.005-.126-7.323 2.633-14.233 7.768-19.457s11.997-8.1 19.321-8.1h1.242c7.324 0 14.186 2.876 19.321 8.1 5.135 5.223 7.894 12.133 7.768 19.457v.014l-.621 36.266c.001.004 0 .008 0 .013z"/><path d="m308.227 67.754c1.346 1.002 2.917 1.486 4.475 1.486 2.288 0 4.548-1.044 6.021-3.02l6.827-9.165 6.828 9.165c2.476 3.322 7.175 4.008 10.495 1.534 3.322-2.475 4.009-7.173 1.534-10.495l-12.843-17.239c-1.416-1.9-3.645-3.019-6.015-3.019-2.369 0-4.6 1.12-6.015 3.02l-12.842 17.239c-2.474 3.321-1.788 8.02 1.535 10.494z"/><path d="m333.938 347.101h-16.778c-4.143 0-7.5 3.358-7.5 7.5s3.357 7.5 7.5 7.5h16.777c4.143 0 7.5-3.358 7.5-7.5.001-4.142-3.357-7.5-7.499-7.5z"/><path d="m333.938 369.496h-16.778c-4.143 0-7.5 3.358-7.5 7.5s3.357 7.5 7.5 7.5h16.777c4.143 0 7.5-3.358 7.5-7.5s-3.357-7.5-7.499-7.5z"/><path d="m339.025 223.752h-26.953c-4.143 0-7.5 3.358-7.5 7.5s3.357 7.5 7.5 7.5h26.953c4.143 0 7.5-3.358 7.5-7.5s-3.357-7.5-7.5-7.5z"/><path d="m339.025 246.999h-26.953c-4.143 0-7.5 3.358-7.5 7.5s3.357 7.5 7.5 7.5h26.953c4.143 0 7.5-3.358 7.5-7.5s-3.357-7.5-7.5-7.5z"/></g></g></svg>