<svg height="512" viewBox="0 0 50 60" width="512" xmlns="http://www.w3.org/2000/svg"><g id="Page-1" fill="none" fill-rule="evenodd"><g id="030---Snowboard-Boot" fill-rule="nonzero" transform="translate(0 -1)"><path id="Shape" d="m49 53v2.74c-.0056046.840392-.5314558 1.5893315-1.32 1.88-2.38.88-8.52 2.38-22.68 2.38h-22c-1.10320187-.0032948-1.9967052-.8967981-2-2v-2h24c18 0 24-3 24-3z" fill="#9d9d9d"/><path id="Shape" d="m46 53.988v1.752c-.0056046.840392-.5314558 1.5893315-1.32 1.88-2.38.88-8.52 2.38-22.68 2.38h3c14.16 0 20.3-1.5 22.68-2.38.7885442-.2906685 1.3143954-1.039608 1.32-1.88v-2.74c-.9675306.42078-1.971776.7515115-3 .988z" fill="#707070"/><path id="Shape" d="m27.9 12.87-6.9 22.13-10.59 7.06c-.89244334.5972495-1.43060413 1.5982062-1.43661441 2.6720432s.5209124 2.080755 1.40661441 2.6879568c3.2212466 2.173542 5.8421114 5.1245946 7.62 8.58h-17c0-12 2-14 2-14l5.66-34.04c.05674714-.33514388.25897534-.62796126.55230568-.79971389.29333035-.17175263.6476542-.20481114.96769432-.09028611.0930988.02905682.1808953.07295506.26.13 3.14 2.18 7.51 2.9 11.21 3.07 1.59.07 3.06.04 4.26-.02.6560381-.0292808 1.2846513.2653587 1.6818524.7883068.397201.5229481.512375 1.2075662.3081476 1.8316932z" fill="#ffdb00"/><path id="Shape" d="m23.9 4.96c-.2499009.21629915-.4423024.4911585-.56.8l-1.69 4.51c-3.7-.17-8.07-.89-11.21-3.07-.0791047-.05704494-.1669012-.10094318-.26-.13.2605331-1.39556521.790399-2.72702302 1.56-3.92.6385814-.95716962 1.8329452-1.37703128 2.93-1.03z" fill="#ff9701"/><path id="Shape" d="m49 49v4s-6 3-24 3l3.21-4.49c1.1263351-1.5751146 2.9436073-2.5098181 4.88-2.51z" fill="#7f8d93"/><path id="Shape" d="m46 49v4s-5.325 2.66-20.978 2.97l-.022.03c18 0 24-3 24-3v-4z" fill="#545c60"/><path id="Shape" d="m49 48.39v.61h-15.91c-1.9363927.0001819-3.7536649.9348854-4.88 2.51l-3.21 4.49h-7c-1.7778886-3.4554054-4.3987534-6.406458-7.62-8.58-.88570201-.6072018-1.41262469-1.6141198-1.40661441-2.6879568s.54417107-2.0747937 1.43661441-2.6720432l10.59-7.06 7.37-3.68c.7250604 6.1891603 5.4535468 11.154071 11.6 12.18l5.69.94c1.9294476.3227816 3.3423599 1.9937407 3.34 3.95z" fill="#ff9701"/><path id="Shape" d="m45.66 44.44-5.69-.94c-6.1464532-1.025929-10.8749396-5.9908397-11.6-12.18l-2.759 1.38c1.2234649 5.5830397 5.7213729 9.8595963 11.359 10.8l5.69.94c1.9294476.3227816 3.3423599 1.9937407 3.34 3.95v.61h3.000003l-.000003-.61c.0023599-1.9562593-1.4105524-3.6272184-3.34-3.95z" fill="#f47c00"/><path id="Shape" d="m34.82 11.26c-3.23 5.2-4.33 9.03-5.94 14.36-.562857 1.844188-.736525 3.785183-.51 5.7l-7.37 3.68 6.9-22.13c.2042274-.624127.0890534-1.3087451-.3081476-1.8316932-.3972011-.5229481-1.0258143-.8175876-1.6818524-.7883068-1.2.06-2.67.09-4.26.02l1.69-4.51c.1176976-.3088415.3100991-.58370085.56-.8.5172249-.46116323 1.2386282-.61683446 1.9-.41l7.35 2.27c.8867048.27354079 1.5969184.94201634 1.9235967 1.81055034.3266783.86853399.2330476 1.83935636-.2535967 2.62944966z" fill="#ffea3a"/><path id="Shape" d="m33.15 6.82-7.35-2.27c-.6319205-.19455758-1.3193038-.05895901-1.83.361l6.18 1.909c.8867048.27354079 1.5969184.94201634 1.9235967 1.81055034.3266783.86853399.2330476 1.83935636-.2535967 2.62944966-3.23 5.2-4.33 9.03-5.94 14.36-.562857 1.844188-.736525 3.785183-.51 5.7l-3.817 1.906-.553 1.774 7.37-3.68c-.226525-1.914817-.052857-3.855812.51-5.7 1.61-5.33 2.71-9.16 5.94-14.36.4866443-.7900933.580275-1.76091567.2535967-2.62944966-.3266783-.868534-1.0368919-1.53700955-1.9235967-1.81055034z" fill="#fcd734"/><path id="Shape" d="m35.672 11.783c.64885-1.0535028.7736463-2.34797581.3380063-3.50603116-.4356401-1.15805534-1.3826743-2.04932451-2.5650063-2.41396884l-7.351-2.271c-.7887805-.23709617-1.6403474-.13946429-2.355.27l-8.773-2.699c-1.5240338-.47557653-3.1792408.10940439-4.066 1.437-.6859895 1.06087605-1.19716404 2.22503041-1.514 3.448-.14126544.02446737-.27965397.06333679-.413.116-.68645755.28520925-1.17768845.90378231-1.3 1.637l-5.619 33.799c-.639.954-2.054 4.228-2.054 14.4v2c0 1.6568542 1.34314575 3 3 3h22c14.274 0 20.554-1.531 23.026-2.444 1.1811632-.437626 1.9675181-1.5613885 1.974-2.821v-7.345c.0096358-2.4483638-1.760855-4.5409932-4.177-4.937l-5.688-.94c-3.6894877-.6154981-6.935079-2.7903773-8.9071903-5.9687313-1.9721112-3.1783541-2.4796216-7.052163-1.3928097-10.6312687 1.678-5.558 2.74-9.147 5.837-14.13zm-5.686 7.117-1.986-1.583 3.081-1.156c-.406.918-.761 1.825-1.095 2.739zm-2.975.184 2.217 1.77-3.371 1.929zm-2.511 8.066 2.824 3.39c0 .06.01.12.014.18l-4.68 2.337zm3.427-1.821c-.2152291.7334599-.3740259 1.4823119-.475 2.24l-1.912-2.3 2.908-1.664c-.493 1.614-.248.823-.525 1.724zm-2.422-19.829 7.353 2.271c.5907718.18251802 1.0639049.62802647 1.2815915 1.20676367.2176865.57873719.1554466 1.22562123-.1685915 1.75223633-.613.986-1.13 1.911-1.609 2.814l-4.1 1.54.6-1.913c.3017136-.9422175.1211458-1.972538-.483-2.756-.5953966-.77974791-1.5384603-1.21382689-2.518-1.159-.8.042-1.747.067-2.777.056l1.2-3.2c.1826153-.4934525.7163751-.76098814 1.221-.612zm-11.129-2.426 7.982 2.455-1.387 3.7c-3.253-.213-6.927-.9-9.651-2.661.2616985-1.01732726.6858144-1.98577028 1.256-2.868.3948372-.58468274 1.1275689-.83951057 1.8-.626zm-4.728 5.059c.0062904-.04909444.03609083-.0920516.07987328-.11513689.04378244-.02308529.09606322-.02340731.14012672-.00086311 4.511 3.137 11.238 3.492 16.091 3.236.3218071-.0117671.629868.1309294.829.384.205788.2639966.2658439.6134469.16.931-2.768 8.875-3.581 11.483-6.8 21.8l-10.3 6.864c-1.16404801.7740684-1.86833454 2.0751254-1.88 3.473-.01198336 1.4121947.6773242 2.7383626 1.84 3.54 2.6071123 1.7793635 4.8175188 4.0793166 6.492 6.755h-14.29c.1-9.356 1.475-11.93 1.672-12.253l13.718-9.069c.5690599-.3773484.9923709-.9375301 1.2-1.588l4.784-14.953c.281151-.8771403.1427679-1.8348813-.3751745-2.5965613-.5179425-.7616801-1.357749-1.2424531-2.2768255-1.3034387-2.8841377-.1395-5.7304681-.7153745-8.442-1.708-.5150055-.1996509-1.094349.0559945-1.294.571-.1996509.5150055.0559945 1.0943491.571 1.294 2.9015741 1.0667641 5.9482886 1.6868292 9.036 1.839.3031287.0185261.5803599.1771023.75.429.1747488.2543516.2213121.5754911.126.869l-4.779 14.95c-.0697766.2164407-.2107597.402891-.4.529l-11.937 7.89zm38.352 47.602c.0008801.4246734-.2665628.8035844-.667.945-2.347.866-8.369 2.32-22.333 2.32h-22c-.55228475 0-1-.4477153-1-1v-1h23c13.429 0 20.275-1.653 23.0000022-2.548zm0-3.407c-1.753.648-7.871 2.49-21.047 2.658l2.066-2.892c.9398111-1.3127287 2.4545346-2.0922399 4.069-2.094h14.912zm-8.193-7.842 5.69.94c1.3023906.2158705 2.3070574 1.2636875 2.468 2.574h-14.877c-2.261439.0008328-4.3837026 1.0921231-5.7 2.931l-2.902 4.069h-5.9c-1.8554262-3.3571815-4.4704195-6.2338111-7.636-8.4-.6217579-.4216629-.98968216-1.127822-.979-1.879.00146401-.7365409.373572-1.4228734.99-1.826l10.541-7.027 6.118-3.055c1.2623469 6.0341551 6.1040803 10.6716831 12.187 11.673z" fill="#000"/></g></g></svg>