<svg height="512" viewBox="0 0 64 64" width="512" xmlns="http://www.w3.org/2000/svg"><g id="_24-snowboard" data-name="24-snowboard"><path d="m25.07 13h.93a2.006 2.006 0 0 0 -2 2v1h-1v-.23c0-1.53.93-2.77 2.07-2.77z" fill="#414952"/><path d="m41 15.77v.23h-1v-1a2 2 0 0 0 -2-2h.93c1.14 0 2.07 1.24 2.07 2.77z" fill="#414952"/><path d="m51 44.12v18.88h-17v-28l6.7-2.48a1.9 1.9 0 0 0 .64-.39l2.12.85a12.018 12.018 0 0 1 7.54 11.14z" fill="#2b8ffc"/><path d="m43 10.78a5.241 5.241 0 0 1 1 3.1v1.27a1.839 1.839 0 0 1 -1.32 1.76 2.006 2.006 0 0 0 -1.68-.91v-.23c0-1.53-.93-2.77-2.07-2.77h-13.86c-1.14 0-2.07 1.24-2.07 2.77v.23a2.006 2.006 0 0 0 -1.68.91 1.839 1.839 0 0 1 -1.32-1.76v-1.27a5.241 5.241 0 0 1 1-3.1 4.709 4.709 0 0 1 2.33-1.71 28.824 28.824 0 0 1 8.67-1.07 28.824 28.824 0 0 1 8.67 1.07 4.709 4.709 0 0 1 2.33 1.71z" fill="#e1eaf2"/><path d="m42.68 16.91a2.046 2.046 0 0 1 .32 1.09v1a3 3 0 0 1 -3 3l-.18-.03a10.382 10.382 0 0 0 .18-1.97v-4h1a2.006 2.006 0 0 1 1.68.91z" fill="#fecfd5"/><path d="m42.79 9.04a9.856 9.856 0 0 1 .21 1.74 4.709 4.709 0 0 0 -2.33-1.71 28.824 28.824 0 0 0 -8.67-1.07 28.824 28.824 0 0 0 -8.67 1.07 4.709 4.709 0 0 0 -2.33 1.71 9.573 9.573 0 0 1 3.22-6.85 11.539 11.539 0 0 1 7.78-2.93c5.34 0 9.78 3.46 10.79 8.04z" fill="#2b8ffc"/><path d="m41.34 32.13a1.9 1.9 0 0 1 -.64.39l-6.7 2.48v-5.91l5.3-1.96a1.992 1.992 0 0 1 2.7 1.84v1.71a1.925 1.925 0 0 1 -.66 1.45z" fill="#e1eaf2"/><path d="m37.18 27a7.42 7.42 0 0 1 -3.18 1.74h-.02a2.012 2.012 0 0 0 -1.98-1.74 2 2 0 0 0 -1.98 1.75h-.02a8.02 8.02 0 0 1 -3.28-1.75 7.874 7.874 0 0 1 -2.65-5.01 6.411 6.411 0 0 1 -.07-.99v-3l5 2 1.29-1.29a2.414 2.414 0 0 1 3.42 0l1.29 1.29 5-2v2a10.382 10.382 0 0 1 -.18 1.97 8.676 8.676 0 0 1 -2.64 5.03z" fill="#fecfd5"/><path d="m40 16v2l-5 2-1.29-1.29a2.414 2.414 0 0 0 -3.42 0l-1.29 1.29-5-2v-3a2.006 2.006 0 0 1 2-2h12a2 2 0 0 1 2 2z" fill="#41f3f3"/><path d="m30 35h4v28h-4z" fill="#e1eaf2"/><path d="m34 29.09v5.91h-4v-6a1.948 1.948 0 0 1 .02-.25 2 2 0 0 1 1.98-1.75 2.012 2.012 0 0 1 1.98 1.74 2.112 2.112 0 0 1 .02.26z" fill="#693be6"/><path d="m30 35v28h-17v-18.88a12.018 12.018 0 0 1 7.54-11.14l2.12-.85a1.9 1.9 0 0 0 .64.39z" fill="#2b8ffc"/><path d="m22.66 32.13a1.925 1.925 0 0 1 -.66-1.45v-1.71a1.992 1.992 0 0 1 2.7-1.84l5.3 1.96v5.91l-6.7-2.48a1.9 1.9 0 0 1 -.64-.39z" fill="#e1eaf2"/><path d="m21.32 16.91a2.006 2.006 0 0 1 1.68-.91h1v5a6.411 6.411 0 0 0 .07.99l-.07.01a3 3 0 0 1 -3-3v-1a2.046 2.046 0 0 1 .32-1.09z" fill="#fecfd5"/><path d="m58.07 7.93a10 10 0 0 0 -15.07 1.07l-.21.04a9.856 9.856 0 0 1 .21 1.74 5.241 5.241 0 0 1 1 3.1v1.27a1.839 1.839 0 0 1 -1.32 1.76 2.046 2.046 0 0 1 .32 1.09v1a2.986 2.986 0 0 1 -2 2.817v5.453a1.95 1.95 0 0 1 1 1.7v1.71a1.925 1.925 0 0 1 -.66 1.45l2.12.85a12.018 12.018 0 0 1 7.54 11.14v18.88h10v-48a9.969 9.969 0 0 0 -2.93-7.07z" fill="#ebf5f7"/><path d="m23.33 9.07a28.824 28.824 0 0 1 8.67-1.07 28.824 28.824 0 0 1 8.67 1.07 4.709 4.709 0 0 1 2.33 1.71c-.005-.145-.022-.285-.033-.427-1.867-3.153-6.067-5.353-10.967-5.353a14.235 14.235 0 0 0 -8.487 2.63 9.4 9.4 0 0 0 -2.477 2.7c-.011.15-.032.3-.036.449a4.709 4.709 0 0 1 2.33-1.709z" fill="#2357d1"/><path d="m42 19.5v-.833a1.862 1.862 0 0 0 -2-1.667v4c0 .124-.017.247-.023.373a2.088 2.088 0 0 0 2.023-1.873z" fill="#f2aab5"/><path d="m24 17a1.862 1.862 0 0 0 -2 1.667v.833a2.088 2.088 0 0 0 2.023 1.873c-.007-.126-.023-.249-.023-.373z" fill="#f2aab5"/><path d="m35 20-1.29-1.29a2.414 2.414 0 0 0 -3.42 0l-1.29 1.29-3-1.2-2-.8v3a7.984 7.984 0 0 0 2.34 5.66 7.838 7.838 0 0 0 1.69 1.28 8.06 8.06 0 0 0 1.991.8 1.983 1.983 0 0 1 .223-.7c-.07-.037-.145-.069-.214-.109a7.838 7.838 0 0 1 -1.69-1.28 7.984 7.984 0 0 1 -2.34-5.651v-.2l3 1.2 1.29-1.29a2.414 2.414 0 0 1 3.42 0l1.29 1.29 5-2v-2z" fill="#f9bbc6"/><path d="m37.84 21.94a8.736 8.736 0 0 1 -2.84 5.23 7.714 7.714 0 0 1 -1.05.75c-.07.042-.144.075-.215.115a1.972 1.972 0 0 1 .245.7 7.455 7.455 0 0 0 1.97-.823 7.714 7.714 0 0 0 1.05-.742 8.736 8.736 0 0 0 2.84-5.23 12 12 0 0 0 .16-1.94l-2.035.814c-.027.386-.065.765-.125 1.126z" fill="#ffe0e4"/><path d="m48.46 32.98-2.12-.85a1.925 1.925 0 0 0 .66-1.45v-1.71a1.992 1.992 0 0 0 -2.7-1.84l-2.536.938a1.889 1.889 0 0 1 .236.9v1.71a1.925 1.925 0 0 1 -.66 1.45l2.12.85a12.018 12.018 0 0 1 7.54 11.142v18.88h5v-18.88a12.018 12.018 0 0 0 -7.54-11.14z" fill="#cdd6de"/><path d="m44.82 21.97.18.03a3 3 0 0 0 3-3v-1a2.046 2.046 0 0 0 -.32-1.09 1.839 1.839 0 0 0 1.32-1.76v-1.27a5.241 5.241 0 0 0 -1-3.1 9.856 9.856 0 0 0 -.21-1.74 9.417 9.417 0 0 0 -1.243-2.991 10.009 10.009 0 0 0 -3.547 2.951l-.21.04a9.856 9.856 0 0 1 .21 1.74 5.241 5.241 0 0 1 1 3.1v1.27a1.839 1.839 0 0 1 -1.32 1.76 2.046 2.046 0 0 1 .32 1.09v1a2.986 2.986 0 0 1 -2 2.817v5.453a2.029 2.029 0 0 1 .43.335 7.433 7.433 0 0 0 .75-.605 8.676 8.676 0 0 0 2.64-5.03z" fill="#cdd6de"/><path d="m42.721 14a1 1 0 0 1 -.949-.684 3.387 3.387 0 0 0 -3.214-2.316h-13.116a3.387 3.387 0 0 0 -3.214 2.316 1 1 0 0 1 -.949.684h-1.279v1.15a1.839 1.839 0 0 0 1.32 1.76 2.006 2.006 0 0 1 1.68-.91v-.23c0-1.53.93-2.77 2.07-2.77h13.86c1.14 0 2.07 1.24 2.07 2.77v.23a2.006 2.006 0 0 1 1.68.91 1.839 1.839 0 0 0 1.32-1.76v-1.15z" fill="#a4adb5"/><path d="m24.832 10.262a1.983 1.983 0 0 0 .272.765c.112-.011.223-.027.338-.027h13.116c.056 0 .109.01.163.013a1.962 1.962 0 0 0 .262-.755 2 2 0 0 0 -.658-1.758 35.347 35.347 0 0 0 -6.325-.5 34.6 34.6 0 0 0 -6.55.544 1.991 1.991 0 0 0 -.618 1.718z" fill="#f5faff"/><path d="m30 29.09v-.09a1.948 1.948 0 0 1 .02-.25h-.02a8.02 8.02 0 0 1 -3.28-1.75h-2.72a1.965 1.965 0 0 1 .7.13z" fill="#333940"/><path d="m33.98 28.74a2.112 2.112 0 0 1 .02.26v.09l5.3-1.96a1.965 1.965 0 0 1 .7-.13h-2.82a7.42 7.42 0 0 1 -3.18 1.74z" fill="#333940"/><path d="m37.351 31.493a1 1 0 0 1 -1.351-.936v-2.207l-2 .74v5.91l6.7-2.48a1.9 1.9 0 0 0 .64-.39 1.925 1.925 0 0 0 .66-1.45v-.93z" fill="#c5ced6"/><path d="m28 28.35v2.207a1 1 0 0 1 -1.351.936l-4.649-1.743v.93a1.925 1.925 0 0 0 .66 1.45 1.9 1.9 0 0 0 .64.39l6.7 2.48v-5.91z" fill="#c5ced6"/><path d="m37 49v-8.751a5 5 0 0 1 2.969-4.569l4.737-2.1a11.977 11.977 0 0 0 -1.246-.6l-2.12-.85a1.9 1.9 0 0 1 -.64.39l-6.7 2.48v28h17v-4h-4a10 10 0 0 1 -10-10z" fill="#2357d1"/><path d="m22.66 32.13-2.12.85a11.977 11.977 0 0 0 -1.246.6l4.737 2.1a5 5 0 0 1 2.969 4.569v8.751a10 10 0 0 1 -10 10h-4v4h17v-28l-6.7-2.48a1.9 1.9 0 0 1 -.64-.39z" fill="#2357d1"/><path d="m30 35h4v2h-4z" fill="#693be6"/><path d="m31 37h2v26h-2z" fill="#7f52ff"/><path d="m29 20 1.29-1.29z" fill="none"/><path d="m29 13-5 5 2.143.857 5.857-5.857z" fill="#41f3f3"/><path d="m26 13a2.006 2.006 0 0 0 -2 2v3l5-5z" fill="#54dff2"/><path d="m34.5 19.5.5.5 5-2v-3a1.967 1.967 0 0 0 -.18-.82z" fill="#fdfeff"/><path d="m32 13-5.857 5.857 2.857 1.143 1.29-1.29 5.71-5.71z" fill="#fdfeff"/><path d="m38 13h-2l-5.71 5.71a2.414 2.414 0 0 1 3.42 0l.79.79 5.32-5.32a2 2 0 0 0 -1.82-1.18z" fill="#41f3f3"/><g fill="#f6fafd"><ellipse cx="56.684" cy="13.695" rx="1.642" ry="2.286" transform="matrix(.707 -.707 .707 .707 6.929 44.11)"/><ellipse cx="56.682" cy="17.708" rx=".825" ry="1.148" transform="matrix(.707 -.707 .707 .707 4.09 45.285)"/><ellipse cx="36.682" cy="3.708" rx=".825" ry="1.148" transform="matrix(.707 -.707 .707 .707 8.13 27.034)"/><ellipse cx="34.427" cy="3.208" rx=".413" ry=".574" transform="matrix(.707 -.707 .707 .707 7.823 25.293)"/></g><path d="m20.914 33.911 1.615-.646a2.943 2.943 0 0 0 .422.2l6.7 2.478v-.007a.985.985 0 0 0 .349.064h4a.985.985 0 0 0 .344-.069v.007l6.7-2.477a3.056 3.056 0 0 0 .422-.2l1.615.645a10.947 10.947 0 0 1 6.919 10.218v13.876h2v-13.876a12.938 12.938 0 0 0 -8.172-12.07l-1-.4a2.906 2.906 0 0 0 .172-.977v-1.7a2.97 2.97 0 0 0 -1.274-2.432 3.007 3.007 0 0 0 -1.726-.522v-.023h-.672a10.175 10.175 0 0 0 1.313-3.065 4 4 0 0 0 3.359-3.935v-1a2.984 2.984 0 0 0 -.072-.638 2.832 2.832 0 0 0 1.072-2.208v-1.274a6.255 6.255 0 0 0 -1.032-3.458c-.331-5.796-5.568-10.422-11.968-10.422s-11.637 4.626-11.968 10.422a6.255 6.255 0 0 0 -1.032 3.458v1.274a2.832 2.832 0 0 0 1.072 2.208 2.984 2.984 0 0 0 -.072.638v1a4.005 4.005 0 0 0 3.214 3.921 8.978 8.978 0 0 0 1.304 3.079h-.518v.023a2.944 2.944 0 0 0 -3 2.951v1.7a2.906 2.906 0 0 0 .174.976l-1 .4a12.926 12.926 0 0 0 -7.974 9.773l1.969.354a10.937 10.937 0 0 1 6.745-8.266zm18.086-18.911v2.324l-3.759 1.5-.827-.824a3.5 3.5 0 0 0 -4.828 0l-.827.826-3.759-1.503v-2.323a1 1 0 0 1 1-1h12a1 1 0 0 1 1 1zm-14 4.477 3.629 1.452a1 1 0 0 0 1.078-.222l1.293-1.293a1.451 1.451 0 0 1 2 0l1.293 1.293a1 1 0 0 0 1.078.222l3.629-1.452v.523c0 3.532-1.718 6.358-4.43 7.477a2.975 2.975 0 0 0 -5.148.013 6.982 6.982 0 0 1 -4.422-6.49zm8 14.523h-2v-5a1 1 0 0 1 2 0zm8-5.026v1.7a.979.979 0 0 1 -.645.908l-5.355 1.983v-3.783l4.645-1.718a1.009 1.009 0 0 1 .938.12.952.952 0 0 1 .417.79zm1-9.974a1.993 1.993 0 0 1 -1.025 1.735c.014-.242.025-.486.025-.735v-3a1 1 0 0 1 1 1zm-10-17a9.945 9.945 0 0 1 9.561 6.367 5.658 5.658 0 0 0 -.584-.244 30.043 30.043 0 0 0 -8.977-1.123 40.114 40.114 0 0 0 -5.129.3l.258 1.982a38.3 38.3 0 0 1 4.871-.282 28.112 28.112 0 0 1 8.363 1.027 3.958 3.958 0 0 1 2.637 3.853v1.274a.825.825 0 0 1 -.171.485 2.978 2.978 0 0 0 -.877-.47 3.3 3.3 0 0 0 -3.026-3.169h-13.852a3.3 3.3 0 0 0 -3.026 3.169 2.978 2.978 0 0 0 -.877.47.825.825 0 0 1 -.171-.485v-1.274a3.958 3.958 0 0 1 2.637-3.853c.478-.154 1.008-.295 1.574-.417l-.422-1.955c-.631.137-1.226.294-1.766.468a5.658 5.658 0 0 0 -.584.244 9.945 9.945 0 0 1 9.561-6.367zm-10 17v-1a1 1 0 0 1 1-1v3.722a1.993 1.993 0 0 1 -1-1.722zm1 9.974a.952.952 0 0 1 .417-.79 1.008 1.008 0 0 1 .938-.12l4.645 1.718v3.783l-5.355-1.981a.977.977 0 0 1 -.645-.907z"/><path d="m60 62h-8v-2h-2v2h-15v-24h-2v24h-2v-24h-2v24h-15v-17.876h-2v18.876a1 1 0 0 0 1 1h48a1 1 0 0 0 1-1v-40h-2z"/><path d="m60 19h2v2h-2z"/><path d="m51 4a10.913 10.913 0 0 0 -6.6 2.2l1.2 1.6a8.917 8.917 0 0 1 5.4-1.8 9.01 9.01 0 0 1 9 9v2h2v-2a11.013 11.013 0 0 0 -11-11z"/></g></svg>