<svg id="Capa_1" enable-background="new 0 0 512 512" height="512" viewBox="0 0 512 512" width="512" xmlns="http://www.w3.org/2000/svg"><g><g><g><path d="m478.69 478.668c34.413-34.413 34.413-90.208 0-124.62l-156.975-144.12c-15.348-13.67-29.865-28.245-43.475-43.647l-120.31-132.994c-34.413-34.413-90.207-34.413-124.62 0-34.413 34.413-34.413 90.208 0 124.62l131.949 119.287c15.417 13.61 30.008 28.129 43.693 43.48l145.118 157.994c34.413 34.413 90.207 34.413 124.62 0z" fill="#8ac9fe"/></g></g><g><g><path d="m478.69 354.047-156.975-144.119c-15.348-13.67-29.865-28.245-43.475-43.647l-120.31-132.994c-21.037-21.037-50.061-29.189-77.31-24.505 17.325 2.978 33.934 11.13 47.31 24.506l120.31 132.994c13.61 15.402 28.127 29.976 43.475 43.647l156.975 144.118c34.413 34.413 34.413 90.207 0 124.62-13.376 13.376-29.985 21.528-47.31 24.506 27.249 4.684 56.273-3.469 77.31-24.506 34.413-34.412 34.413-90.207 0-124.62z" fill="#7dc4ff"/></g></g><g><g><path d="m226.518 254.074 27.578-27.578c10.155-10.155 10.155-26.62 0-36.775-10.155-10.155-26.62-10.155-36.775 0l-27.578 27.578c-10.155 10.155-10.155 26.62 0 36.775 10.155 10.155 26.62 10.155 36.775 0z" fill="#0182fc"/></g></g><g><g><path d="m294.678 322.234 27.578-27.578c10.155-10.155 10.155-26.62 0-36.775-10.155-10.155-26.62-10.155-36.775 0l-27.578 27.578c-10.155 10.155-10.155 26.62 0 36.775 10.156 10.155 26.62 10.155 36.775 0z" fill="#0182fc"/></g></g><g><g><path d="m254.096 189.721c-9.092-9.092-23.237-10.037-33.387-2.85 1.188.841 2.324 1.786 3.387 2.85 10.155 10.155 10.155 26.62 0 36.775l-27.578 27.578c-1.064 1.064-2.2 2.009-3.387 2.85 10.151 7.187 24.296 6.241 33.387-2.85l27.578-27.578c10.156-10.155 10.156-26.62 0-36.775z" fill="#0172fb"/></g></g><g><g><path d="m322.257 257.881c-9.091-9.091-23.237-10.037-33.387-2.85 1.188.841 2.324 1.786 3.387 2.85 10.155 10.155 10.155 26.62 0 36.775l-27.578 27.578c-1.064 1.064-2.2 2.009-3.388 2.85 10.151 7.187 24.296 6.241 33.388-2.85l27.578-27.578c10.155-10.155 10.155-26.62 0-36.775z" fill="#0172fb"/></g></g><g><path d="m77.081 106.169c-.2-4.137-3.717-7.329-7.854-7.129s-7.329 3.717-7.129 7.854 3.717 7.329 7.854 7.129c4.138-.201 7.33-3.717 7.129-7.854z"/><path d="m110.388 69.473c-.2-4.137-3.716-7.329-7.854-7.129-4.137.2-7.329 3.717-7.128 7.854.2 4.137 3.717 7.329 7.854 7.129s7.328-3.717 7.128-7.854z"/><path d="m407.401 430.796c-4.137.2-7.329 3.717-7.129 7.854.2 4.138 3.717 7.329 7.854 7.129 4.137-.201 7.329-3.717 7.128-7.854-.199-4.138-3.716-7.329-7.853-7.129z"/><path d="m440.707 394.1c-4.137.2-7.329 3.717-7.128 7.854.2 4.137 3.717 7.329 7.854 7.128 4.137-.2 7.329-3.717 7.129-7.854-.201-4.137-3.717-7.328-7.855-7.128z"/><path d="m259.4 184.418c-13.064-13.063-34.318-13.063-47.383 0l-27.578 27.578c-6.328 6.328-9.813 14.742-9.813 23.691s3.484 17.363 9.813 23.69c6.532 6.532 15.111 9.797 23.691 9.797s17.159-3.266 23.691-9.797l27.578-27.578c13.064-13.063 13.064-34.318.001-47.381zm-10.607 36.774-27.578 27.578c-7.215 7.215-18.954 7.215-26.169 0-3.494-3.495-5.419-8.142-5.419-13.084 0-4.943 1.925-9.589 5.42-13.085l27.578-27.578c3.607-3.607 8.346-5.411 13.084-5.411s9.477 1.804 13.084 5.411c7.215 7.216 7.215 18.955 0 26.169z"/><path d="m276.291 337.335c8.58 0 17.159-3.266 23.69-9.797h.001l27.577-27.579c6.329-6.328 9.813-14.741 9.813-23.69s-3.484-17.363-9.813-23.691c-13.063-13.063-34.317-13.063-47.382 0l-27.577 27.578c-13.063 13.063-13.063 34.319.001 47.382 6.531 6.531 15.11 9.797 23.69 9.797zm-13.084-46.573 27.577-27.578c3.608-3.607 8.346-5.411 13.085-5.411 4.738 0 9.478 1.804 13.084 5.411 3.495 3.495 5.42 8.142 5.42 13.085 0 4.942-1.925 9.589-5.42 13.084l-27.577 27.579c-7.216 7.214-18.955 7.214-26.169 0-7.215-7.216-7.215-18.955 0-26.17z"/><path d="m483.994 348.744c-.076-.076-.153-.149-.231-.222l-122.814-112.754c-3.052-2.802-7.797-2.599-10.597.453-2.802 3.051-2.599 7.795.452 10.597l26.749 24.558-20.891 88.119-88.314 14.759-53.837-58.613c-13.818-15.498-28.719-30.323-44.224-44.009l-37.302-33.723 14.587-87.289 87.599-20.768 37.448 41.396c13.743 15.552 28.568 30.438 44.065 44.244l12.033 11.048c1.44 1.322 3.258 1.975 5.07 1.975 2.027 0 4.048-.817 5.526-2.428 2.802-3.051 2.599-7.795-.452-10.597l-12.075-11.086c-.027-.026-.056-.051-.084-.076-15.067-13.421-29.482-27.893-42.902-43.078l-120.308-132.994c-.084-.093-.17-.183-.258-.272-37.283-37.282-97.945-37.282-135.229 0-18.059 18.06-28.005 42.072-28.005 67.614 0 25.541 9.946 49.553 28.006 67.613.09.089.181.176.274.26l10.228 9.246c3.071 2.777 7.814 2.54 10.593-.534 2.777-3.073 2.539-7.815-.534-10.593l-10.084-9.116c-31.301-31.445-31.259-82.494.13-113.884 31.389-31.389 82.438-31.432 113.885-.129l43.394 47.969-86.792 20.577c-2.937.696-5.17 3.085-5.667 6.061l-14.246 85.244-17.01-15.378c-3.07-2.777-7.815-2.54-10.593.534-2.777 3.073-2.539 7.815.534 10.593l98.177 88.755c15.139 13.364 29.625 27.78 43.058 42.848.025.028.05.055.075.083l145.118 157.993c.071.078.146.155.22.23 18.061 18.061 42.073 28.007 67.614 28.007s49.554-9.946 67.614-28.007c18.06-18.06 28.006-42.072 28.006-67.613 0-25.54-9.946-49.553-28.006-67.613zm-366.588-228.291 89.968-21.33 16.314 18.034-84.423 20.015c-2.936.696-5.17 3.085-5.667 6.061l-13.826 82.73-17.374-15.707zm246.641 253.015c2.977-.497 5.365-2.731 6.061-5.668l20.105-84.802 17.987 16.514-21.372 90.148-90.445 15.115-15.925-17.338zm109.34 99.896c-31.398 31.397-82.462 31.435-113.903.11l-50.991-55.514 85.72-14.326c2.977-.497 5.365-2.731 6.062-5.667l20.586-86.831 52.637 48.325c15.156 15.214 23.502 35.415 23.502 56.897 0 21.534-8.386 41.779-23.613 57.006z"/></g></g></svg>