<svg height="512" viewBox="0 0 48 48" width="512" xmlns="http://www.w3.org/2000/svg"><g id="_11-beef" data-name="11-beef"><path d="m47 24.6v6.4c0 7.96-4 16-13 16 0 0-10-1-14-8-1.5-2.62-5.54-2.99-8-3-1.18-.01-2 0-2 0-3.54 0-9-4.03-9-10v-6.4c0 5.97 5.46 10.4 9 10.4 0 0 12 0 14 4 3.22 6.44 11 7 11 7 8 0 12-8.44 12-16.4z" fill="#a16042"/><path d="m44 22.94c0-8.78-3.77-12.94-10.57-12.94h-20.2a9.24 9.24 0 0 0 -9.23 9.26c0 4.39 4.92 7.74 8 7.74 0 0 13 0 15 5 2.17 5.41 6.57 5 6.57 5 8.43 0 10.43-8.21 10.43-14.06zm-9.15-15.94c7.82 0 12.15 5.66 12.15 17.6 0 7.96-4 16.4-12 16.4 0 0-7.78-.56-11-7-2-4-14-4-14-4-3.54 0-9-4.43-9-10.4 0-6.96 4.75-12.6 10.62-12.6z" fill="#ffb38d"/><path d="m33.43 10c6.8 0 10.57 4.16 10.57 12.94 0 5.85-2 14.06-10.43 14.06 0 0-4.4.41-6.57-5-2-5-15-5-15-5-3.08 0-8-3.35-8-7.74a9.24 9.24 0 0 1 9.23-9.26zm3.57 7a3 3 0 1 0 -3 3 3 3 0 0 0 3-3z" fill="#ee6450"/><path d="m35 41s-7.78-.56-11-7c-2-4-14-4-14-4-3.54 0-9-4.43-9-10.4v3c0 5.97 5.46 10.4 9 10.4 0 0 12 0 14 4 3.22 6.44 11 7 11 7 8 0 12-8.44 12-16.4v-3c0 7.96-4 16.4-12 16.4z" fill="#d2885f"/><path d="m44 22.94c0-8.78-3.77-12.94-10.57-12.94h-20.2a9.214 9.214 0 0 0 -8.2 5.02 9.16 9.16 0 0 1 4.2-1.02h20.2c6.8 0 10.57 4.16 10.57 12.94a19.69 19.69 0 0 1 -1.98 9.075c4.711-2.342 5.98-8.441 5.98-13.075z" fill="#fd7f5d"/><circle cx="34" cy="17" fill="#f6fafd" r="3"/><path d="m34.85 7h-23.23a10.03 10.03 0 0 0 -8.2 4.615 9.318 9.318 0 0 1 5.2-1.615h25.23c7.82 0 12.15 5.66 12.15 17.6a23.592 23.592 0 0 1 -.706 5.726 22.541 22.541 0 0 0 1.706-8.726c0-11.94-4.33-17.6-12.15-17.6z" fill="#fff3c1"/><ellipse cx="38" cy="13" fill="#f6fafd" rx="1.65" ry="2.297" transform="matrix(.707 -.707 .707 .707 1.944 30.69)"/><ellipse cx="41" cy="16" fill="#f6fafd" rx=".825" ry="1.148" transform="matrix(.707 -.707 .707 .707 .701 33.692)"/><ellipse cx="31" cy="27" fill="#f49c76" rx="1.148" ry=".825" transform="matrix(.707 -.707 .707 .707 -10.011 29.843)"/><ellipse cx="32" cy="32" fill="#fff3c1" rx="1.148" ry=".825"/><ellipse cx="24.746" cy="25.5" fill="#f49c76" rx=".574" ry=".413" transform="matrix(.707 -.707 .707 .707 -10.783 24.955)"/><ellipse cx="31.746" cy="22.5" fill="#fff3c1" rx=".574" ry=".413" transform="matrix(.707 -.707 .707 .707 -6.614 29.025)"/><ellipse cx="25.746" cy="21.5" fill="#f49c76" rx=".413" ry=".574"/><ellipse cx="15.746" cy="24.5" fill="#f49c76" rx=".413" ry=".574" transform="matrix(.707 -.707 .707 .707 -12.71 18.3)"/><ellipse cx="21.746" cy="23.5" fill="#f49c76" rx=".413" ry=".574"/><ellipse cx="21" cy="26" fill="#f49c76" rx=".825" ry="1.148" transform="matrix(.707 -.707 .707 .707 -12.235 22.476)"/><ellipse cx="27" cy="29" fill="#f49c76" rx="1.148" ry=".825" transform="matrix(.707 -.707 .707 .707 -12.598 27.599)"/><ellipse cx="28" cy="25" fill="#f49c76" rx="1.148" ry=".825" transform="matrix(.707 -.707 .707 .707 -9.476 27.134)"/><ellipse cx="37" cy="27" fill="#f49c76" rx="1.148" ry=".825" transform="matrix(.707 -.707 .707 .707 -8.252 34.087)"/><ellipse cx="21" cy="16" fill="#fff3c1" rx=".825" ry="1.148" transform="matrix(.707 -.707 .707 .707 -5.164 19.527)"/><ellipse cx="12" cy="22" fill="#fff3c1" rx=".825" ry="1.148"/><path d="m16 22a1 1 0 0 1 -.707-.293l-5-5a1 1 0 0 1 1.414-1.414l5 5a1 1 0 0 1 -.707 1.707z" fill="#fd7f5d"/><path d="m22 22a1 1 0 0 1 -.707-.293l-5-5a1 1 0 0 1 1.414-1.414l5 5a1 1 0 0 1 -.707 1.707z" fill="#fd7f5d"/><circle cx="34" cy="17" fill="#dee3f3" r="2"/><g fill="#2f3348"><path d="m12.5 14.964h2v7.071h-2z" transform="matrix(.707 -.707 .707 .707 -9.127 14.964)"/><path d="m18.5 14.964h2v7.071h-2z" transform="matrix(.707 -.707 .707 .707 -7.37 19.207)"/><path d="m38 17a4 4 0 1 0 -4 4 4 4 0 0 0 4-4zm-6 0a2 2 0 1 1 2 2 2 2 0 0 1 -2-2z"/><path d="m47.97 23c-.483-13.995-7.338-17-13.124-17h-1.846v2h1.846c7.401 0 11.154 5.585 11.154 16.6 0 7.653-3.778 15.4-10.928 15.4-.072 0-7.247-.584-10.172-6.447-2.218-4.425-13.608-4.553-14.9-4.553-2.81 0-8-3.876-8-9.4 0-6.4 4.313-11.6 9.615-11.6h19.385v-2h-19.385c-6.231 0-11.315 5.78-11.589 13h-.026v7c0 6.613 6.019 11 10 11v-2c-2.82 0-8-3.417-8-9v-.049c2.1 3.109 5.44 5.049 8 5.049 4.4 0 11.852.939 13.105 3.447 3.435 6.87 11.482 7.526 11.895 7.553 4.939 0 8.506-2.94 10.643-7.087-1.098 5.975-4.798 11.087-11.543 11.092-.095-.009-9.531-1.024-13.232-7.5-1.312-2.3-4.295-3.477-8.862-3.5l-.012 2c3.749.022 6.218.885 7.138 2.5 4.207 7.354 14.34 8.447 14.868 8.495 9.671 0 14-8.538 14-17v-8z"/><path d="m26.071 32.372c2.1 5.26 6.141 5.638 7.224 5.638.16 0 .256-.008.27-.01 2.683 0 11.435-1.086 11.435-15.059 0-11.522-6.291-13.941-11.568-13.941h-20.202a10.259 10.259 0 0 0 -10.23 10.265c0 4.984 5.46 8.735 9 8.735v-2c-2.7 0-7-3.083-7-6.735a8.257 8.257 0 0 1 8.23-8.265h20.2c6.44 0 9.57 3.906 9.57 11.941 0 3.927-.919 13.059-9.521 13.059-.146.012-3.708.23-5.55-4.376-1.679-4.195-9.409-5.279-13.867-5.552l-.124 2c6.685.409 11.22 2.016 12.133 4.3z"/><path d="m18.707 3.707a3.563 3.563 0 0 0 1.293-2.707h-2c0 .562-.217.8-.707 1.293a3.563 3.563 0 0 0 -1.293 2.707h2c0-.562.217-.8.707-1.293z"/><path d="m24.707 3.707a3.563 3.563 0 0 0 1.293-2.707h-2c0 .562-.217.8-.707 1.293a3.563 3.563 0 0 0 -1.293 2.707h2c0-.562.217-.8.707-1.293z"/><path d="m30.707 3.707a3.563 3.563 0 0 0 1.293-2.707h-2c0 .562-.217.8-.707 1.293a3.563 3.563 0 0 0 -1.293 2.707h2c0-.562.217-.8.707-1.293z"/></g></g></svg>