<?xml version="1.0" encoding="iso-8859-1"?>
<!-- Generator: Adobe Illustrator 19.0.0, SVG Export Plug-In . SVG Version: 6.00 Build 0)  -->
<svg version="1.1" id="Capa_1" xmlns="http://www.w3.org/2000/svg" xmlns:xlink="http://www.w3.org/1999/xlink" x="0px" y="0px"
	 viewBox="0 0 512 512" style="enable-background:new 0 0 512 512;" xml:space="preserve">
<circle style="fill:#E9E3D5;" cx="256" cy="256" r="248.5"/>
<circle style="fill:#B6B0A2;" cx="256" cy="256" r="170"/>
<path style="fill:#FF6344;" d="M228.69,192.245c-4.235-1.412-8.373-3.025-12.415-4.809c12.715-11.714,27.579-21.138,43.984-27.627
	c3.391-1.341,4.322-5.695,1.743-8.273l-37.888-37.888c-22.325,7.441-42.114,20.191-57.921,36.778
	c-10.285-11.883-18.635-25.496-24.565-40.385c-1.408-3.535-5.946-4.509-8.637-1.818l-37.649,37.649
	c7.669,23.006,20.978,43.317,38.312,59.355c-13.568,39.031-43.407,70.129-81.604,85.344c-3.535,1.408-4.509,5.946-1.818,8.637
	l37.649,37.649c42.426-14.142,75.718-47.434,89.86-89.86c1.389-4.167,2.973-8.24,4.722-12.222c0.911,0.324,1.82,0.651,2.739,0.958
	c39.947,13.315,71.796,43.608,87.187,82.518c1.341,3.391,5.695,4.322,8.273,1.743l37.888-37.888
	C304.408,239.679,271.116,206.387,228.69,192.245z"/>
<path style="fill:#FFF9EB;" d="M198.377,351.312c11.619-9.374,18.388-23.479,17.73-38.393c-2.823-64,49.502-116.941,113.54-114.859
	c57.639,1.874,104.418,48.653,106.292,106.292c2.082,64.025-50.843,116.361-114.861,113.54
	c-14.914-0.657-29.018,6.112-38.392,17.731c-11.561,14.33-29.566,23.252-49.575,22.309c-30.692-1.446-55.597-26.351-57.045-57.042
	C175.124,380.879,184.046,362.874,198.377,351.312z"/>
<path style="fill:#FCDFA5;" d="M435.941,304.352c-0.965-29.655-13.817-56.434-33.917-75.704l0,0
	c-8.121,8.472-9.479,21.493-2.988,31.271c8.87,13.364,13.889,28.892,14.417,45.164c0.802,24.636-8.424,47.759-25.977,65.109
	c-17.551,17.349-40.759,26.321-65.405,25.221c-21.669-0.963-42.949,8.796-56.894,26.082c-7.618,9.442-18.929,14.527-31.005,13.961
	c-4.105-0.193-8.114-1.071-11.885-2.571c-9.309-3.703-19.953-1.217-27.037,5.868l-1.626,1.626
	c10.244,10.243,24.143,16.831,39.489,17.554c20.009,0.943,38.013-7.979,49.575-22.31c9.374-11.619,23.478-18.388,38.392-17.731
	C385.098,420.713,438.023,368.377,435.941,304.352z"/>
<path style="fill:#FFCF5D;" d="M326,358c13.62,0,26.37-5.423,35.901-15.271c9.519-9.832,14.515-22.77,14.071-36.428
	c-0.853-26.217-22.058-47.422-48.274-48.274C327.131,258.01,326.562,258,326,258c-13.62,0-26.37,5.423-35.901,15.271
	c-9.519,9.832-14.515,22.77-14.071,36.428c0.853,26.217,22.058,47.422,48.274,48.274C324.869,357.99,325.437,358,326,358z"/>
<path style="fill:#FFB545;" d="M375.973,306.302c-0.446-13.712-6.467-26.047-15.854-34.822l-1.025,1.093
	c-7.049,7.522-9.319,18.154-6.614,28.102c0.6,2.207,0.928,4.508,0.966,6.863c0.123,7.555-2.718,14.625-8.001,19.907
	c-0.23,0.231-0.469,0.461-0.694,0.673c-6.76,6.333-15.981,8.595-24.499,6.786c-9.828-2.088-20.047,0.733-26.917,8.065l-1.454,1.552
	c8.56,8.002,19.917,13.045,32.421,13.452C324.869,357.99,325.438,358,326,358c13.62,0,26.37-5.423,35.901-15.271
	C371.42,332.897,376.416,319.96,375.973,306.302z"/>
<path d="M437.02,74.98C388.668,26.629,324.38,0,256,0S123.332,26.629,74.98,74.98S0,187.62,0,256s26.629,132.668,74.98,181.02
	S187.62,512,256,512s132.668-26.629,181.02-74.98S512,324.38,512,256S485.371,123.332,437.02,74.98z M256,497
	C123.112,497,15,388.888,15,256S123.112,15,256,15s241,108.112,241,241S388.888,497,256,497z"/>
<path d="M443.437,304.107c-0.503-15.486-4.028-30.228-9.998-43.655c0.037-1.481,0.062-2.97,0.062-4.452
	c0-97.874-79.626-177.5-177.5-177.5c-4.143,0-7.5,3.357-7.5,7.5s3.357,7.5,7.5,7.5c82.051,0,150.082,61.132,160.969,140.239
	c-20.806-25.434-52.035-42.036-87.076-43.175c-21.216-0.692-42.1,4.448-60.426,14.511c-11.458-7.837-23.917-14.039-37.117-18.439
	c-0.7-0.233-1.393-0.482-2.088-0.727c8.233-6.217,17.137-11.478,26.612-15.667c5.008-2.215,8.597-6.742,9.599-12.111
	c0.996-5.341-0.704-10.823-4.548-14.667l-29.697-29.697c-3.729-3.729-8.987-5.397-14.1-4.646c-1.181,0.173-2.353,0.476-3.498,0.911
	c-0.003,0.001-0.006,0.003-0.009,0.004c-17.736,6.749-33.719,16.592-47.623,29.307c-5.965-7.996-11.076-16.683-15.17-25.941
	c-2.215-5.008-6.742-8.596-12.112-9.598c-5.338-0.999-10.822,0.703-14.667,4.547l-29.698,29.698
	c-4.588,4.589-6.054,11.496-3.733,17.597c1.001,2.633,2.072,5.227,3.21,7.781c7.279,16.342,17.307,31.029,29.518,43.544
	c-6.771,18.155-17.355,34.501-30.829,48.019c0.081-13.229,1.741-26.369,4.963-39.071c1.019-4.015-1.41-8.095-5.426-9.113
	c-4.01-1.019-8.096,1.41-9.113,5.426C80.33,226.461,78.5,241.187,78.5,256c0,3.89,0.131,7.806,0.384,11.695
	c-8.066,6.047-16.839,11.221-26.196,15.359c-5.008,2.215-8.596,6.742-9.598,12.112c-0.187,1.001-0.279,2.007-0.28,3.007
	c-0.004,4.332,1.704,8.536,4.827,11.66l11.869,11.869c0.003,0.003,0.007,0.006,0.01,0.01l0.341,0.341
	c0.005,0.005,0.009,0.01,0.014,0.014l17.463,17.462c3.144,3.144,7.373,4.822,11.688,4.822c1.984,0,3.987-0.355,5.91-1.087
	c1.781-0.677,3.537-1.398,5.282-2.138c16.041,29.236,40.46,53.846,69.607,70.081c6.007,29.703,31.959,52.755,62.938,54.215
	c1.051,0.05,2.097,0.074,3.144,0.074c20.308-0.001,39.793-9.263,52.623-25.165c7.983-9.896,20.028-15.512,32.224-14.947
	c32.582,1.422,64.596-10.904,87.816-33.857C431.787,368.573,444.497,336.71,443.437,304.107z M200.48,171.061
	c12.408-10.982,26.855-19.665,42.382-25.446l8.456,8.456c0.365,0.365,0.502,0.805,0.408,1.308c-0.068,0.367-0.283,0.863-0.919,1.145
	c-13.133,5.807-25.289,13.448-36.222,22.722C209.71,176.796,204.999,174.065,200.48,171.061z M219.966,124.052
	c0.584-0.225,1.235-0.098,1.653,0.321l9.704,9.704c-15.801,6.721-30.442,16.174-43.062,27.816
	c-4.09-3.443-7.977-7.123-11.632-11.028C189.253,139.209,203.799,130.202,219.966,124.052z M136.964,118.549
	c0.368,0.068,0.864,0.283,1.146,0.919c3.187,7.207,6.923,14.105,11.153,20.646c1.41,2.18,2.875,4.32,4.393,6.418
	c0.759,1.049,1.531,2.088,2.316,3.116c1.358,1.778,2.761,3.518,4.195,5.23c0.185,0.255,0.388,0.5,0.608,0.736
	c6.873,8.106,14.594,15.456,23.011,21.928c0.277,0.241,0.565,0.462,0.866,0.656c8.617,6.528,17.951,12.142,27.862,16.697
	c0.118,0.058,0.235,0.117,0.355,0.167c4.786,2.185,9.703,4.125,14.736,5.803c0.001,0,0.003,0.001,0.004,0.001
	c9.849,3.283,19.241,7.678,28.04,13.102c-4.11,3.071-8.03,6.423-11.733,10.04c-10.348-6.602-21.462-11.917-33.135-15.808
	c-38.519-12.84-69.458-42.856-83.582-80.788l8.456-8.456C136.022,118.593,136.468,118.457,136.964,118.549z M105.958,148.656
	l9.704-9.705c16.673,39.165,49.725,69.93,90.376,83.481c9.716,3.238,18.997,7.579,27.703,12.91
	c-3.164,4.022-6.052,8.236-8.651,12.61c-11.21-7.55-23.366-13.542-36.228-17.829c-18.912-6.304-35.851-16.545-49.906-29.824
	c-0.44-0.567-0.963-1.074-1.561-1.5c-13.796-13.464-24.693-29.914-31.759-48.486C105.413,149.725,105.539,149.074,105.958,148.656z
	 M57.836,297.918c0.068-0.368,0.283-0.864,0.919-1.146c11.146-4.929,21.547-11.179,31.033-18.531
	c1.128-0.513,2.097-1.292,2.838-2.253c18.948-15.434,33.988-35.388,43.547-58.144c3.438,2.834,7,5.524,10.69,8.046
	c-13.165,37.682-42.821,67.887-80.162,81.791l-8.456-8.456C57.88,298.86,57.742,298.421,57.836,297.918z M89.6,329.245
	c-0.591,0.224-1.238,0.098-1.657-0.322l-9.35-9.35c37.583-16,67.424-47.085,81.748-85.493c3.745,2.016,7.588,3.881,11.524,5.584
	c-0.854,1.969-1.675,4.018-2.454,6.355c-11.575,34.727-36.405,62.817-68.998,78.563c-0.054,0.025-0.109,0.044-0.163,0.07
	c-0.055,0.027-0.105,0.061-0.159,0.089C96.676,326.38,93.177,327.884,89.6,329.245z M113.744,334.588
	c32.878-17.998,57.847-47.678,69.896-83.825c0.688-2.065,1.447-3.906,2.271-5.773c11.48,4.006,22.319,9.52,32.295,16.437
	c-7.003,16.193-10.381,33.917-9.592,51.821c0.538,12.194-5.05,24.242-14.946,32.227c-14.585,11.765-23.582,29.126-24.974,47.589
	C145.937,378.494,126.851,358.209,113.744,334.588z M398.021,380.86c-20.556,20.32-47.77,30.809-76.61,29.538
	c-16.939-0.74-33.595,6.923-44.559,20.516c-10.654,13.206-26.453,20.341-43.386,19.525c-26.724-1.259-48.645-23.179-49.906-49.903
	c-0.798-16.918,6.319-32.732,19.527-43.387v-0.001c13.592-10.965,21.261-27.623,20.515-44.561
	c-1.215-27.538,8.299-53.579,26.846-73.771c0.041-0.043,0.081-0.086,0.121-0.131c0.841-0.913,1.694-1.818,2.573-2.707
	c5.843-5.911,12.248-11.008,19.09-15.259c0.475-0.223,0.926-0.502,1.351-0.827c15.682-9.407,33.598-14.393,52.36-14.393
	c1.151,0,2.306,0.019,3.463,0.057c39.545,1.286,73.53,25.142,89.451,59.061c0.126,0.343,0.279,0.672,0.452,0.99
	c5.457,11.956,8.687,25.129,9.137,38.99C429.383,333.454,418.578,360.539,398.021,380.86z"/>
<path d="M327.931,250.531c-0.646-0.021-1.291-0.031-1.931-0.031c-9.257,0-18.453,2.261-26.596,6.538
	c-3.667,1.926-5.079,6.46-3.152,10.127c1.927,3.668,6.464,5.08,10.127,3.152c6.086-3.196,12.688-4.817,19.621-4.817
	c0.485,0,0.977,0.009,1.454,0.023c22.279,0.725,40.298,18.743,41.022,41.021c0.377,11.611-3.872,22.609-11.965,30.969
	C348.407,345.888,337.57,350.5,326,350.5c-0.485,0-0.977-0.009-1.454-0.023c-22.279-0.725-40.298-18.743-41.022-41.021
	c-0.239-7.355,1.42-14.643,4.798-21.073c1.927-3.667,0.515-8.201-3.152-10.127c-3.665-1.928-8.2-0.517-10.127,3.152
	c-4.582,8.723-6.834,18.59-6.511,28.535c0.98,30.155,25.371,54.546,55.538,55.526c0.646,0.021,1.291,0.031,1.931,0.031
	c15.67,0,30.334-6.234,41.29-17.554c10.942-11.304,16.688-26.18,16.179-41.889C382.488,275.902,358.098,251.512,327.931,250.531z"/>
<g>
</g>
<g>
</g>
<g>
</g>
<g>
</g>
<g>
</g>
<g>
</g>
<g>
</g>
<g>
</g>
<g>
</g>
<g>
</g>
<g>
</g>
<g>
</g>
<g>
</g>
<g>
</g>
<g>
</g>
</svg>
