<svg id="svg8726" height="512" viewBox="0 0 16.933333 16.933334" width="512" xmlns="http://www.w3.org/2000/svg" xmlns:svg="http://www.w3.org/2000/svg"><g id="layer1" transform="translate(0 -280.067)"><path id="path9711" d="m1.3229141 296.2062c-.29316 0-.52917003-.23601-.52917003-.52916l.00001-7.93751 9.52498993-5.82083c3.21476.00001 5.82083 2.60608 5.82238 5.8242l-.002 7.93414c0 .29315-.236.52916-.52893.52916z" fill="#b38051"/><path id="path11046-2" d="m11.262359 281.99622c2.375429.82904 4.083958 3.08788 4.085537 5.74642l-.0021 7.93336c0 .20347-.0804.38868-.208256.5302h.47284c.292931 0 .52865-.23601.52865-.52916l.0021-7.93389c-.0013-2.8963-2.113023-5.29578-4.878771-5.74693z" fill="#a77649" font-variant-ligatures="normal" font-variant-position="normal" font-variant-caps="normal" font-variant-numeric="normal" font-variant-alternates="normal" font-feature-settings="normal" text-indent="0" text-align="start" text-decoration-line="none" text-decoration-style="solid" text-decoration-color="#000000" text-transform="none" text-orientation="mixed" white-space="normal" shape-padding="0" isolation="auto" mix-blend-mode="normal" solid-color="#000000" solid-opacity="1" vector-effect="none"/><g fill="#fcb860"><path id="path9713" d="m.79374407 289.8562h13.75832993v-2.11667h-13.75832993z"/><path id="path9715" d="m.79374407 290.91454h13.75832993v2.11667h-13.75832993z"/><path id="path9717" d="m14.552074 294.08954v2.11666h-13.2291599c-.29316 0-.52917003-.23601-.52917003-.52917v-1.58749z"/></g><path id="path9721" d="m10.831464 284.02518c.98744.65196 1.86853-.46778 1.86853-.46778-.39687-.6874-1.21657-.51967-1.21657-.51967.6874-.39688.8811-1.11973.8811-1.11973s-.72286-.19368-1.41026.2032c0 0 .55511-.62602.15823-1.31343 0 0-1.4102499.20319-1.33936 1.38432z" fill="#59e78b"/><path id="path11050-0" d="m12.108817 283.08246c-.09275.0819-.214104.17463-.36897.26406-.310684.17938-.75207.29938-1.209743.15658l.301273.52193c.98744.65196 1.868619-.46767 1.868619-.46767-.156855-.27168-.378936-.40723-.591179-.4749z" fill="#41e37a" font-variant-ligatures="normal" font-variant-position="normal" font-variant-caps="normal" font-variant-numeric="normal" font-variant-alternates="normal" font-feature-settings="normal" text-indent="0" text-align="start" text-decoration-line="none" text-decoration-style="solid" text-decoration-color="#000000" text-transform="none" text-orientation="mixed" white-space="normal" shape-padding="0" isolation="auto" mix-blend-mode="normal" solid-color="#000000" solid-opacity="1" vector-effect="none"/><path id="path9719" d="m10.170004 282.8795c-.5844998-1.01239-1.2884699-1.39471-2.3008599-.81021s-2.04666 2.27592-1.46216 3.2883 2.5664398.96237 3.5788299.37787c1.01238-.5845 1.03327-1.38531.44877-2.3977z" fill="#fc6067"/><path id="path11062-9" d="m10.556459 283.57442c.0013.0816-.0016.16294-.01344.24339-.0717.48846-.402601.90982-.9534313 1.22783-.5681107.328-1.3512668.48945-2.0975453.44545-.4086225-.0241-.8142684-.11249-1.1570361-.28887.02114.053.043034.10567.071829.15555.5845016 1.01238 2.5667202.96226 3.5791113.37775.9312984-.53769 1.0167114-1.26101.5705074-2.1611z" fill="#fb4f56" font-variant-ligatures="normal" font-variant-position="normal" font-variant-caps="normal" font-variant-numeric="normal" font-variant-alternates="normal" font-feature-settings="normal" text-indent="0" text-align="start" text-decoration-line="none" text-decoration-style="solid" text-decoration-color="#000000" text-transform="none" text-orientation="mixed" white-space="normal" shape-padding="0" isolation="auto" mix-blend-mode="normal" solid-color="#000000" solid-opacity="1" vector-effect="none"/><path id="path7277-7-7" d="m16.405714 287.74264c-.001-2.55957-1.58366-4.74862-3.8225-5.64824.0192-.0528.0311-.0919.0367-.11265.0286-.18666-.0883-.28913-.24547-.33125-.31901-.0697-.59832-.0402-.90537.003.0705-.27878.0763-.61828-.13022-.97255-.0452-.0813-.13046-.14266-.25529-.13591 0 0-.40429.0564-.79891.28422-.3051599.17618-.6239701.48988-.73484.94413-.0872-.0562-.17725-.10572-.27285-.14366-.4588798-.18212-.9901701-.10717-1.54099.21084-.5681099.32801-1.0984698.9254-1.4335098 1.5937-.1292302.25778-.22948.53079-.2847301.80409l-5.36195003 3.27628c-.0784.0478-.12613.13245-.12661.22428v7.93801c.00052916.43521.35997999.79479.79479003.79479h14.2869799c.43469 0 .79266-.35958.79323-.79479zm-5.44773-6.62802c.14072.45847-.20257.83095-.20257.83095-.19949.22571.0721.55642.33228.40463.32917-.19005.65734-.2188.89297-.21032-.11069.20834-.29982.47892-.62942.66921-.30277.14781-.10528.60457.20981.48524.0587-.0116.49106-.0848.79581.24288-.0854.0823-.20733.18538-.35346.26975-.28726.16585-.65846.24318-1.05524-.007-.0714-.19475-.16819-.39294-.28473-.5948l-.26355-.45888c-.11409-.19762-.23477-.37687-.36484-.53382-.0162-.50923.22905-.76276.51366-.92708.14598-.0843.29561-.13795.40928-.17105zm-2.22467.94206c.1245-.002.2386801.0216.3482999.0651.2923302.11601.5829202.41153.8593802.89038l.2635499.45682c.27647.47885.3878.87843.3421 1.18959-.0457.31117-.23193.58101-.6935.8475-.4442699.2565-1.15701.41313-1.8009199.37517-.6439101-.038-1.1893801-.26388-1.4159402-.65629-.2265598-.39242-.15059-.97574.1385001-1.55236.28907-.57663.7825201-1.11654 1.2267902-1.37305.2884799-.16655.5242398-.23979.7317398-.24288zm6.08284 13.88546v-1.85157c.000794-.14632-.11723-.26555-.26356-.26613h-13.4942599v-.52917h8.4666598c.35286 0 .35286-.52917 0-.52917h-8.4666598v-1.58802h13.2286499v1.58802h-2.38125c-.35287 0-.35287.52917 0 .52917h2.64686c.14541-.00053.26304-.11814.26356-.26355v-2.11718c-.000529-.14541-.11815-.26304-.26356-.26355h-13.4942599v-.52917h13.4942599c.14633-.00053.2644-.11981.26356-.26613v-2.11719c-.000529-.14531-.11824-.26297-.26356-.26355h-12.8193699l4.2519401-2.59777c.023101.21359.0811.42097.1922399.6134.35794.61997 1.09753.87429 1.8438101.91829.7462898.044 1.5294398-.11539 2.0975498-.44339.55083-.31801.87964-.74195.95136-1.23041.0148-.10103.0168-.20322.0119-.30593.44952.13106.88182.0113 1.187-.16485.39463-.22783.63873-.54311.63873-.54311.092-.11259.0714-.26008-.0139-.35037-.20417-.31846-.48506-.47197-.74827-.5457.0767-.0876.14103-.17424.19637-.25787 2.06666.80914 3.53375 2.81612 3.53467 5.1754l-.002 7.93388c-.000529.15114-.1131.26562-.26353.26562zm-6.74378-12.72739c-.1461198 0-.2645799.11846-.2645799.26458 0 .14613.1184601.26459.2645799.26459.1461299 0 .2645802-.11846.2645802-.26459 0-.14612-.1184503-.26458-.2645802-.26458zm1.31362.15865c-.1461299 0-.2645899.11845-.2645899.26458 0 .14612.11846.26458.2645899.26458.1461201 0 .2645799-.11846.2645799-.26458 0-.14613-.1184598-.26458-.2645799-.26458zm-1.83349 1.05833c-.1461198 0-.2645799.11846-.2645799.26458 0 .14613.1184601.26459.2645799.26459.1461302 0 .26459-.11846.26459-.26459 0-.14612-.1184598-.26458-.26459-.26458zm1.31362.15813c-.1461198 0-.2645799.11846-.2645799.26458s.1184601.26458.2645799.26458c.1461299 0 .2645799-.11846.2645799-.26458s-.11845-.26458-.2645799-.26458zm-7.8077899 3.41478h13.2286499v1.5875h-13.2286499zm9.5249999 4.76146c-.3607-.008-.3607.53718 0 .52917h.26407c.36069.008.36069-.53717 0-.52917zm-9.5249999 1.58802h13.2286499v1.58802h-12.9630299c-.15081 0-.26508-.11448-.26562-.26562z" font-variant-ligatures="normal" font-variant-position="normal" font-variant-caps="normal" font-variant-numeric="normal" font-variant-alternates="normal" font-feature-settings="normal" text-indent="0" text-align="start" text-decoration-line="none" text-decoration-style="solid" text-decoration-color="#000000" text-transform="none" text-orientation="mixed" white-space="normal" shape-padding="0" isolation="auto" mix-blend-mode="normal" solid-color="#000000" solid-opacity="1" vector-effect="none"/></g></svg>