<?xml version="1.0" encoding="iso-8859-1"?>
<!-- Generator: Adobe Illustrator 19.0.0, SVG Export Plug-In . SVG Version: 6.00 Build 0)  -->
<svg version="1.1" id="Capa_1" xmlns="http://www.w3.org/2000/svg" xmlns:xlink="http://www.w3.org/1999/xlink" x="0px" y="0px"
	 viewBox="0 0 512.002 512.002" style="enable-background:new 0 0 512.002 512.002;" xml:space="preserve">
<path style="fill:#F5F5F5;" d="M502.25,246c-12.26,24.51-37.31,40-64.72,40c-66.261,0-217.95,0-290.56,0
	c-27.394,0-52.46-15.479-64.72-40C109.088,246,486.268,246,502.25,246z"/>
<path style="fill:#FFC9B7;" d="M309.63,330.97l0.62,0.03l85.95-42.68c8.53-3.83,18.449-1.921,24.95,4.58
	c9.91,9.91,8.34,26.39-3.27,34.26l-105.33,75.4c-3.31,2.24-7.22,3.44-11.22,3.44H170.25l-37.65,18.82l-68.06-81.68l77.11-51.41
	c5.61-3.73,12.2-5.73,18.94-5.73h55.52c9.05,0,17.74,3.6,24.14,10s15.09,10,24.14,10h25.86c11.05,0,20,8.95,20,20
	C310.25,327.71,310.03,329.38,309.63,330.97z"/>
<g>
	<path style="fill:#FFC266;" d="M292.25,66c-101.58,0-184.54,79.71-189.74,180c71.05,0,308.43,0,379.48,0
		C476.79,145.71,393.83,66,292.25,66z"/>
	<path style="fill:#FFC266;" d="M322.25,56c0-8.28-3.36-15.78-8.79-21.21c-5.43-5.43-12.93-8.79-21.21-8.79c-16.57,0-30,13.43-30,30
		v10h30h30V56z"/>
</g>
<path style="fill:#A4AAEF;" d="M70.25,486l-60-120l40-40c150.297,180.356-50.305-60.366,100,120
	C129.548,456.351,90.297,475.977,70.25,486z"/>
<path d="M424,176c-5.52,0-10,4.48-10,10s4.48,10,10,10s10-4.48,10-10S429.52,176,424,176z"/>
<path d="M1.056,370.472l60,120c2.47,4.94,8.477,6.942,13.417,4.473l80-40c5.765-2.882,7.335-10.396,3.21-15.347l-9.566-11.479
	L172.361,416h128.72c6.021,0,11.839-1.784,16.825-5.159c0.072-0.049,0.144-0.099,0.215-0.15l105.237-75.332
	c12.903-8.828,17.458-25.393,11.496-39.358h2.427c31.391,0,59.617-17.444,73.664-45.526c1.551-3.1,1.386-6.781-0.437-9.73
	c-1.822-2.948-5.041-4.743-8.507-4.743h-10.993C482.275,147.796,416.668,77.178,332,60.008V56c0-22.097-17.898-40-40-40
	c-22.056,0-40,17.944-40,40v4.008C167.333,77.178,101.725,147.795,92.993,236H82c-3.466,0-6.685,1.795-8.506,4.743
	c-1.822,2.947-1.988,6.629-0.438,9.729c10.043,20.085,27.84,35.216,49.407,41.866l-56.248,37.5l-8.534-10.241
	c-3.777-4.531-10.612-4.805-14.752-0.668l-40,40C-0.114,361.973-0.869,366.622,1.056,370.472z M318.2,315.763
	C314.006,304.247,302.949,296,290,296h68L318.2,315.763z M272,56c0-11.028,8.972-20,20-20c11.045,0,20,8.954,20,20H272z M292,76
	c92.294,0,168.92,69.466,178.89,160H113.11C123.08,145.466,199.706,76,292,76z M100.954,255.9H483.09
	c-11.606,12.614-28.039,20.1-45.81,20.1H146.72C129.131,276,112.608,268.489,100.954,255.9z M146.937,300.058
	c3.992-2.654,8.626-4.058,13.403-4.058h55.52c6.354,0,12.576,2.577,17.069,7.07c8.216,8.217,19.592,12.93,31.211,12.93H290
	c5.514,0,10,4.486,10,10c0,5.603-4.527,10-10,10h-60c-5.523,0-10,4.478-10,10s4.477,10,10,10h60c11.861,0,22.391-6.94,27.229-17.425
	l82.97-41.199c4.475-1.94,9.916-1.119,13.63,2.596c5.472,5.471,4.599,14.566-1.81,18.911c-0.071,0.048-0.141,0.097-0.21,0.146
	l-105.204,75.31c-1.644,1.088-3.552,1.662-5.525,1.662H170c-1.552,0-3.083,0.361-4.471,1.056l-30.566,15.279l-55.871-67.045
	L146.937,300.058z M49.33,340.813l84.905,101.89l-15.811,7.906l-20.103-30.155c-3.063-4.595-9.271-5.837-13.867-2.773
	c-4.595,3.063-5.837,9.272-2.773,13.867l18.717,28.075l-25.924,12.962l-52.306-104.61L49.33,340.813z"/>
<path d="M292,96c-5.523,0-10,4.478-10,10s4.477,10,10,10c39.016,0,75.619,15.997,101.959,43.975
	c3.787,4.022,10.114,4.212,14.136,0.427c4.021-3.785,4.212-10.114,0.427-14.136C378.504,114.375,336.701,96,292,96z"/>
<g>
</g>
<g>
</g>
<g>
</g>
<g>
</g>
<g>
</g>
<g>
</g>
<g>
</g>
<g>
</g>
<g>
</g>
<g>
</g>
<g>
</g>
<g>
</g>
<g>
</g>
<g>
</g>
<g>
</g>
</svg>
