<?xml version="1.0" encoding="iso-8859-1"?>
<!-- Generator: Adobe Illustrator 19.0.0, SVG Export Plug-In . SVG Version: 6.00 Build 0)  -->
<svg version="1.1" id="Capa_1" xmlns="http://www.w3.org/2000/svg" xmlns:xlink="http://www.w3.org/1999/xlink" x="0px" y="0px"
	 viewBox="0 0 512.001 512.001" style="enable-background:new 0 0 512.001 512.001;" xml:space="preserve">
<path style="fill:#FFD45C;" d="M70.525,205.183c-1.863-1.686-3.587-3.505-5.119-5.486c-6.052-7.829-9.995-16.967-14.717-25.593
	c-2.314-4.227-8.806-15.473-7.969-20.432c0.69-4.09,7.537-6.812,10.695-8.489c6.78-3.601,13.668-6.536,21.076-8.674
	c4.787-1.382,11.84-4.706,16.939-3.968c8.456,1.223,9.739,15.41,17.057,15.143c5.718-0.208,13.517-5.27,18.815-7.344
	c5.375-2.104,10.781-4.379,15.27-7.859c3.545,5.749,5.812,12.194,8.871,18.218c2.617,5.155,7.222,15.2,13.037,17.015
	c1.546,0.483,16.262-0.296,16.58-1.679c-0.35-3.654-1.693-7.551-2.541-11.346c-0.57-2.548-3.369-8.865-2.523-10.811
	c1.455-3.352,8.879-4.166,11.864-5.292c9.446-3.56,22.448-11.584,32.336-4.401c1.847,1.342,4.442,4.175,6.618,4.405
	c9.723,1.025,18.409-6.031,28.069-6.352c3.467-0.115,6.442-0.002,9.855,0.682c4.073,0.817,9.031,0.985,11.109,4.932
	c3.488,6.626,1.924,23.34-2.12,29.231c2.148,0.456,21.985,4.085,20.562,8.436c0.769-2.353,9.491-28.117,9.466-28.124
	c6.143,1.545,12.676,3.266,19.037,5.05c10.289,2.886,11.003-6.947,13.917-14.593c1.854-4.864,3.941-9.648,5.275-14.692
	c8.408,0.077,16.777,1.603,24.937,3.53c5.526,1.305,14.38,1.693,18.209,6.275c11.147,13.338-5.244,33.361-9.422,45.443
	c-5.086,14.711,4.701,15.2,15.46,21.675c4.844-10.763,12.441-20.211,19.451-29.666c3.127-4.218,2.403-4.527,7.355-4.298
	c10.504,0.485,40.85,9.405,36.987,24.171c-5.03,19.228-22.469,27.985-40.095,33.301c-21.144,6.376-41.355,13.784-62.271,21.178
	c-14.714,5.202-29.197,12.38-44.097,16.791c-15.202,4.5-31.694,0.841-47.287,0.452c-16.983-0.424-34.086-2.75-50.687-4.417
	c-21.772-2.186-44.342-11.917-65.042-18.804c-18.355-6.107-37.231-11.626-54.49-20.514
	C83.939,214.647,76.516,210.604,70.525,205.183z"/>
<g>
	<path style="fill:#F9AB43;" d="M110.446,210.116c-2.549-3.777-5.288-7.389-7.322-10.634c-5.696-9.089-12.694-18.401-19.368-26.822
		c-4.166-5.257-8.123-11.862-8.427-18.822c-4.909,2.569-11.496,3.058-16.887,3.147c-1.601,0.027-15.738-1.879-15.571-3.76
		c-0.32,3.598,3.611,8.577,5.081,11.907c2.525,5.72,5.826,10.511,9.4,15.607c4.985,7.108,9.792,14.642,14.214,22.041
		c2.662,4.454,4.364,10.049,8.951,12.82c5.568,3.363,13.498,4.686,19.699,6.285c5.839,1.506,11.952,2.904,17.386,5.429
		C117.574,221.659,114.219,215.707,110.446,210.116z"/>
	<path style="fill:#F9AB43;" d="M164.217,246.302c2.575,0.72,9.018,3.402,11.535,2.72c3.554-0.963,2.462-3.356,1.774-7.195
		c-1.424-7.95-4.88-15.36-6.645-23.223c-1.858-8.278-3.522-16.428-7.343-24.051c-1.032-2.058-2.38-7.554-4.135-8.848
		c-2.282-1.683-7.988-0.371-10.717-0.439c-5.15-0.131-12.186-4.818-16.986-2.976c3.332,6.924,4.029,14.833,6.328,22.134
		c2.517,7.992,5.128,15.891,7.849,23.772c1.274,3.688,1.641,9.455,4.118,12.463C153.053,244.371,159.743,245.051,164.217,246.302z"
		/>
	<path style="fill:#F9AB43;" d="M213.376,208.718c-0.982-6.356-1.991-12.711-3.205-19.035c-1.906-9.927-4.097-20.102-5.467-29.96
		c-0.264-1.898,0.393-9.603-0.169-10.42c-1.201-1.745-25.531-3.291-25.384-5.041c-1.816,21.5,8.079,44.164,11.563,65.182
		c1.809,10.915,4.403,21.59,7.033,32.327c1.609,6.568,2.684,14.994,10.417,16.561c5.47,1.109,14.111-0.218,14.333-6.696
		c0.217-6.317-4.318-14.248-5.484-20.573C215.645,223.649,214.529,216.183,213.376,208.718z"/>
	<path style="fill:#F9AB43;" d="M288.236,189.097c0.829-4.227,1.632-8.424,2.425-12.568c-0.463,2.419-11.537,7.557-13.805,8.619
		c-3.573,1.673-9.615,1.3-12.365,4.159c-2.489,2.586-2.326,10.382-3.127,14.332c-1.588,7.838,1.007,15.49,1.115,23.313
		c0.108,7.867-5.771,21.098-1.796,28.426c4.303,7.931,10.831-2.45,12.577-7.074C280.424,229.329,284.344,208.939,288.236,189.097z"
		/>
	<path style="fill:#F9AB43;" d="M340.798,187.438c1.184-5.917,4.29-10.601,3.904-17.046c-3.505-0.357-6.971,0.628-10.474,0.993
		c-5.016,0.523-10.128,0.831-15.234,0.801c-5.963,15.381-9.884,31.576-15.542,46.975c-2.405,6.547-4.422,13.195-6.273,19.86
		c-1.67,6.01-5.329,11.93-5.443,18.262c7.496,2.966,19.092,8.435,23.985-1.693c0.015,0.008,0.031,0.016,0.046,0.023
		c0.019-0.083,0.04-0.165,0.06-0.248c7.268-15.14,11.374-32.045,16.767-47.907c0.821-2.417,1.835-5.171,2.824-8.067
		c1.25-2.634,2.422-5.258,3.37-7.946C339.757,190.365,340.486,188.996,340.798,187.438z"/>
	<path style="fill:#F9AB43;" d="M378.511,211.556c1.91-4.163,3.52-8.954,4.518-13.436c-3.076,0.938-5.937,2.517-9.228,2.948
		c-3.85,0.504-9.145-1.884-12.565-0.961c-6.139,1.657-5.652,10.865-7.338,15.526c-4.378,12.096-12.781,21.907-15.629,34.948
		c-0.134,0.613,13.469-3.827,14.74-4.524c3.111-1.706,9.258-3.533,11.449-6.306c3.203-4.054,3.775-9.341,5.607-14.017
		C372.152,220.405,376.112,216.784,378.511,211.556z"/>
	<path style="fill:#F9AB43;" d="M443.727,190.596c-1.906,0.368-3.868,0.503-6.121,0.311c-2.678-0.229-8.104-2.344-10.675-1.092
		c-4.232,2.06-7.204,10.608-9.555,14.352c-3.076,4.897-7.577,9.011-10.409,14.006c-7.158,12.626,20.359,2.138,24.843-0.622
		c9.367-5.765,11.046-12.762,15.751-22.052c1.198-2.366,2.214-4.989,3.533-7.188C448.419,189.31,446.117,190.135,443.727,190.596z"
		/>
	<path style="fill:#F9AB43;" d="M378.527,173.192c6.275-11.422,9.783-18.518,9.006-31.718c0.169,2.876-21.015,4.988-23.47,4.853
		c-4.589-0.251-3.977-1.055-6.026,3.351c-3.605,7.751-8.212,17.289-8.563,25.815c5.88,2.117,12.212,6.476,17.966,8.055
		c7.874,2.161,5.97-4.647,9.905-8.775C377.797,174.299,378.204,173.781,378.527,173.192z"/>
	<path style="fill:#F9AB43;" d="M278.713,155.644c-0.086-0.327-0.174-0.652-0.261-0.974c-0.35-1.292-2.973-16.477-2.488-16.515
		c-5.183,0.405-10.607,4.426-15.898,5.632c-5.85,1.333-11.393,5.223-17.468,5.549c-5.255,0.281-10.749-1.029-15.62-1.978
		c0.349,7.145,1.087,17.156,4.853,23.589c0.729,1.245,1.007,3.199,2.467,3.561c3.394,0.828,7.906-2.929,10.981-3.858
		c4.29-1.296,9.328-1.56,13.89-1.733c5.454-0.207,11.224-0.133,16.263-2.443C280.543,164.129,279.792,159.75,278.713,155.644z"/>
	<path style="fill:#F9AB43;" d="M158.04,161.14c-2.23-7.789-6.513-16.191-12.736-21.574c-1.744,6.42-6.632,10.834-12.164,14.261
		c-5.191,3.216-13.442,4.824-17.612,9.138c3.307,6.023,7.659,11.682,11.86,17.02c4.094,5.202,5.087,2.538,10.325-1.068
		c4.152-2.859,8.786-4.856,13.309-7.036c3.624-1.747,8.727-3.999,7.504-8.926C158.376,162.355,158.214,161.749,158.04,161.14z"/>
</g>
<path style="fill:#FFFFFF;" d="M18.613,269.03c-1.425,4.763-1.901,10.116-1.465,15.448c0.484,5.926,1.297,11.464,3.575,17.013
	c4.468,10.885,9.089,21.785,13.67,32.614c5.409,12.786,12.7,20.627,21.783,30.482c8.896,9.651,21.889,12.766,34.108,16.006
	c11.725,3.11,23.841,5.02,35.958,4.874c15.545-0.187,31.277,0.228,46.827,1.017c18.585,0.943,36.972-1.296,55.348-0.023
	c40.19,2.784,81.058,2.741,121.237-0.077c15.995-1.122,32.046,1.178,46.793-6.858c14.929-8.136,22.729-29.525,28.515-44.34
	c3.886-9.951,9.254-21.138,9.281-32.032c0.021-8.572,3.906-18.896,1.39-27.238c-4.705-15.605-45.55-11.39-58.209-12.806
	c-34.579-3.869-71.067-6.924-105.643-5.252c-37.342,1.805-74.764,0.422-112.046-2.003c-22.162-1.441-44.316-2.04-66.454-3.318
	c-16.148-0.933-33.389,3.603-49.286,0.448C30.193,250.246,21.891,258.076,18.613,269.03z"/>
<g>
	<path style="fill:#E4EDF1;" d="M402.236,337.418c-1.773,0.351-3.529,0.704-5.295,1.057c-9.195-0.13-18.99,3.096-28.184,5.532
		c-21.427,4.031-42.794,7.346-65.085,8.128c-33.47,1.174-66.928-1.166-99.867-7.228c-35.436-6.522-71.217-13.529-104.649-27.372
		C82.431,310.61,66.31,301.93,52.11,290.634c-5.886-4.682-11.94-13.801-18.39-17.036c-15.4-7.724-13.066,11.496-11.179,20.758
		c3.181,15.606,7.035,30.91,14.285,45.162c5.209,10.24,13.672,17.996,23.089,24.337c9.127,6.146,16.273,12.523,26.772,16.328
		c12.254,4.441,25.191,6.843,38.185,7.622c11.497,0.69,22.945,1.529,34.437,2.226c10.899,0.661,21.742-0.272,32.57-1.45
		c8.786-0.956,16.487,1.512,25.246,1.44c24.39-0.201,48.746-1.883,73.133-2.277c24.733-0.399,49.311,0.862,73.853-3.108
		c10.327-1.67,19.486-4.888,28.764-9.611c7.682-3.911,17.322-12.684,20.596-20.91C416.687,346.037,412.434,335.398,402.236,337.418z
		"/>
	<path style="fill:#E4EDF1;" d="M175.715,247.578c-7.153-4.735-20.444-8.134-24.916-9.487c-9.498-2.873-19.383-3.823-28.899-6.57
		c-10.222-2.95-19.949-7.336-29.963-10.883c-8.914-3.157-17.668-6.538-26.666-9.553c-5.004-1.677-9.463-4.598-14.28-6.701
		c-2.647-1.155-5.857-0.908-8.628-1.584c-3.905-0.952-4.163-1.864-7.567-4.281c-7.081-5.026-17.979-3.941-26.219-4.995
		c-6.545-0.837-6.737,1.242-3.231,7.587c3.27,5.918,8.476,10.246,11.704,16.244c3.098,5.757,6.776,10.151,10.63,15.399
		c4.595,6.258,8.816,19.068,17.021,20.086c18.735,2.325,37.966-0.208,56.734,0.195c15.76,0.339,31.445,2.012,47.121,3.55
		c7.523,0.738,15.071,1.557,22.53,2.444c4.179,0.497,9.054,1.014,9.305-5.118C180.486,251.615,178.6,249.488,175.715,247.578z"/>
	<path style="fill:#E4EDF1;" d="M473.989,206.008c-5.045,1.184-9.139,2.268-10.411,2.624c-18.692,5.233-37.274,11.811-55.814,17.56
		c-11.13,3.451-22.199,7.148-32.967,11.618c-7.302,3.031-13.687,6.177-21.209,8.205c-7.51,2.025-15.341,6.73-21.272,11.68
		c6.945,3.852,17.53,1.394,25.31,1.602c7.413,0.198,14.751,0.453,22.172,0.518c5.259,0.046,11.056-0.202,16.222,0.793
		c6.49,1.251,13.378,6.147,19.65,6.674c6.556,0.552,7.428-3.302,10.587-7.618c3.4-4.645,8.413-8.405,13.063-11.698
		c9.408-6.663,19.86-11.608,29.71-17.548c4.867-2.935,9.024-5.547,13.108-9.558c2.729-2.68,19.766-13.958,19.032-17.486
		C500.543,200.368,485,203.425,473.989,206.008z"/>
</g>
<g>
	<path style="fill:#CAD6DD;" d="M434.383,246.399c-3.411,0.008-7.117,0.483-8.767,0.453c-12.751-0.234-25.509-0.303-38.279-0.338
		c-16.702-0.046-41.288-2.338-54.103,10.604c7.653,3.914,18.781,3.778,27.21,3.981c9.7,0.233,19.422,0.453,29.019,2.016
		c12.185,1.985,27.066,6.686,37.46-2.396c4.681-4.091,9.489-8.705,14.28-12.428C440.372,246.775,437.501,246.392,434.383,246.399z"
		/>
	<path style="fill:#CAD6DD;" d="M177.689,252.006c0.345-3.792-7.342-5.793-10.118-7.057c-4.08-1.857-8.696-2.606-13.022-3.671
		c-14.425-3.553-28.84-6.962-43.367-9.796c-13.869-2.705-27.982-0.456-41.778-2.865c-10.429-1.821-20.558-0.947-31.145-0.46
		c-3.126,0.144-9.293-0.231-11.864,1.703c-3.762,2.829,0.692,5.663,3.38,9.52c4.646,6.666,8.888,12.904,17.573,12.741
		c12.548-0.234,25.346-0.661,37.957,0.849c17.03,2.039,34.094,3.194,51.253,4.349c9.34,0.629,18.38-0.227,27.652-1.297
		c3.019-0.348,12.258,0.546,13.381-3.489C177.641,252.354,177.673,252.178,177.689,252.006z"/>
</g>
<path d="M510.906,197.71c-7.333-8.834-22.958-0.958-31.724,1.331c-8.866,2.315-17.898,3.927-26.74,6.387
	c-1.267,0.353-2.53,0.722-3.794,1.085c4.234-6.441,9.858-12.54,10.101-20.172c0.298-9.384-12.337-13.87-19.259-16.977
	c-4.063-1.824-8.161-3.412-11.938-5.789c-4.752-2.991-9.539-5.681-15.068-2.786c-5.526,2.893-9.741,9.228-13.179,14.223
	c-3.482,5.059-6.691,10.303-10.05,15.445c-2.158-2.449-4.737-4.567-7.542-6.41c-0.726-1.722,0.06-3.374,0.85-5.585
	c1.585-4.436,3.286-8.84,5.09-13.192c3.457-8.344,8.811-18.854,6.913-28.171c-2.232-10.953-18.067-11.954-26.819-13.544
	c-8.128-1.476-18.932-8.911-27.178-5.3c-4.781,2.094-6.211,8.528-7.585,13.037c-0.881,2.894-1.996,5.725-2.794,8.639
	c-0.508,1.857-0.973,3.739-1.442,5.607c-0.349,1.394-0.415,2.867-0.56,4.313c-2.397-0.781-4.791-1.537-7.122-2.355
	c-5.206-1.829-11.99-4.972-17.61-3.446c-6.501,1.766-8.248,9.458-9.462,15.129c-0.566,2.648-1.297,5.26-2.105,7.855
	c-1.806-0.65-3.64-1.197-5.496-1.651c-1.317-0.618-2.401-1.423-2.9-2.577c-1.022-2.366-0.188-6.497-0.078-9.017
	c0.138-3.134,0.26-6.249,0.068-9.384c-0.573-9.352-4.484-15.395-13.977-16.933c-8.565-1.387-17.562,0.506-25.897,2.421
	c-5.617,1.291-11.659,2.717-16.923,5.334c-0.875-1.967-1.943-3.79-3.301-5.36c-6.298-7.286-14.214-2.654-21.372,0.358
	c-6.928,2.915-14.904,3.235-21.543,6.949c-6.875,3.846-7.283,11.478-6.085,18.508c0.378,2.22,0.831,4.428,1.32,6.63
	c-2.701,0.623-5.412,1.243-8.124,1.877c-0.162-0.406-0.364-0.801-0.642-1.166c-6.688-8.773-8.854-20.039-15.042-29.066
	c-4.361-6.361-12.791-3.952-18.7-1.472c-8.199,3.442-16.126,7.397-23.858,11.771c-2.427-4.049-5.053-7.938-8.297-11.201
	c-8.413-8.464-17.886-5.767-27.909-1.549c-12.268,5.164-24.732,9.682-36.53,15.909c-2.052,1.083-2.784,3.089-2.56,5.28
	c0.606,5.93,4.541,10.31,8.179,14.72c4.498,5.453,7.986,11.636,11.824,17.552c4.114,6.342,8.327,12.663,12.66,18.856
	c0.817,1.168,1.616,2.376,2.436,3.569c-4.362-1.51-8.723-3.021-13.08-4.542c-8.735-3.049-17.556-5.736-26.35-8.598
	c-4.739-1.542-9.277-3.286-13.731-5.52c-3.559-1.785-7.037-3.247-11.064-3.376c-2.306-0.074-5.011,1.744-4.915,4.315
	c0.505,13.633,8.07,26.384,15.463,37.448c3.335,4.991,6.861,9.792,10.876,14.267c1.74,1.94,3.366,4.138,5.045,6.267
	c-2.734,0.504-5.343,1.303-7.679,2.546c-12.974,6.908-10.727,27.102-9.194,39.199c1.196,9.427,3.893,18.305,7.044,27.245
	c2.982,8.462,5.737,17.047,9.318,25.279c7.336,16.866,18.137,30.338,34.955,38.419c17.309,8.317,37.987,12.599,57.05,13.908
	c20.916,1.436,41.91-0.833,62.84-0.936c21.565-0.107,43.092,0.402,64.652,0.759c41.292,0.683,82.631-0.267,123.854-2.778
	c8.648-0.527,17.5-1.576,25.132-5.998c6.444-3.734,11.546-9.161,15.858-15.175c8.973-12.514,15.655-27.029,20.486-41.609
	c2.918-8.806,5.227-17.884,6.48-27.084c1.111-8.159,1.956-17.746-0.868-25.654c-1.97-5.515-5.871-9.162-10.591-11.66
	c13.417-9.994,26.793-20.074,40.267-30.016c7.492-5.528,14.859-11.449,22.759-16.379c6.377-3.979,13.494-7.853,17.511-14.454
	C512.343,201.484,512.248,199.325,510.906,197.71z M422.133,171.601c4.349,2.679,9.021,4.526,13.692,6.561
	c3.759,1.637,10.345,3.58,12.925,7.011c0.037,0.049,0.056,0.106,0.089,0.157c-2.432,1.092-4.773,2.501-7.394,3.131
	c-4.746,1.14-10.035,0.901-14.436-1.315c-4.954-2.495-10.285-11.04-9.978-17.546C418.774,168.983,419.945,170.253,422.133,171.601z
	 M447.07,192.609c-1.067,1.721-2.253,3.308-2.919,4.341c-2.646,4.107-5.762,8.261-7.04,13.024c-3.811,1.193-7.61,2.422-11.392,3.703
	c-4.599,1.557-9.18,3.164-13.747,4.809c0.004-0.009,0.009-0.017,0.013-0.026c1.704-3.087,3.582-6.075,5.399-9.096
	c3.288-5.467,6.516-10.8,8.627-16.825c4.28,1.926,9.159,2.436,13.801,1.855C442.025,194.119,444.641,193.566,447.07,192.609z
	 M395.711,197.957c4.111-5.998,7.822-12.264,12.011-18.208c1.824-2.588,3.757-5.379,6.053-7.67
	c-0.277,6.969,3.871,15.033,8.843,18.539c0.16,0.113,0.325,0.216,0.488,0.324c-3.627,5.688-7.395,11.285-11.105,16.919
	c-2.493,3.784-6.395,8.666-7.796,13.465c-11.035,4.085-22.004,8.354-32.957,12.655c-0.091,0.036-0.182,0.071-0.273,0.107
	c3.11-4.303,5.816-9.01,8.719-13.233C384.971,213.179,390.446,205.639,395.711,197.957z M339.647,196.629
	c1.225-3.529,2.479-7.058,3.729-10.59c1.344,6.854,6.899,12.856,13.187,15.938c0.132,0.065,0.273,0.122,0.408,0.185
	c-1.835,3.924-4.329,7.61-6.428,11.371c-2.385,4.275-4.348,8.797-6.383,13.246c-2.002,4.377-3.641,8.909-5.684,13.262
	c-1.406,2.995-3.102,6.01-3.93,9.232c-3.124,1.421-6.26,2.823-9.431,4.104c-1.544-0.046-3.089-0.083-4.633-0.125
	C325.261,233.904,333.121,215.425,339.647,196.629z M311.455,253.022c-2.838-0.067-5.676-0.133-8.513-0.193
	c-2.227-0.047-4.456-0.079-6.684-0.119c4.721-11.722,6.804-24.531,10.693-36.525c4.514-13.924,10.759-27.861,13.484-42.324
	c5.6,1.628,12.359,1.259,17.996-1.145c-2.744,7.55-5.159,15.227-7.806,22.811C323.971,214.582,316.008,233.311,311.455,253.022z
	 M349.245,227.59c3.411-8.058,8.138-15.882,10.731-24.25c6.224,2.024,13.994,2.253,20.548,0.358
	c-2.671,4.108-5.298,8.246-7.829,12.431c-3.93,6.497-8.764,13.736-10.417,21.372c-5.633,2.215-11.255,4.46-16.811,6.858
	c-1.277,0.551-2.552,1.126-3.827,1.7C344.016,239.843,346.663,233.689,349.245,227.59z M381.809,197.103
	c-6.861,2.558-14.575,3.402-21.637,1.036c-6.58-2.204-13.113-8.402-14.125-15.485c1.357,0.023,2.756-0.023,4.267,0.115
	c4.313,0.394,8.569,1.516,12.66,2.908c3.908,1.33,8.023,2.992,11.759,5.196C376.693,193.242,379.346,195.22,381.809,197.103z
	 M383.199,150.729c-1.896,5.573-4.391,10.902-6.491,16.394c-1.416,3.706-3.46,7.838-4.402,11.961
	c-2.084-0.89-4.177-1.681-6.22-2.378c-2.917-0.995-7.576-2.502-12.268-3.221c0.523-2.554,0.832-5.17,1.544-7.719
	c1.185-4.244,2.532-8.442,3.928-12.62c0.556-1.664,1.044-3.702,1.788-5.508c1.628,0.525,3.286,0.927,4.947,1.179
	c5.503,0.834,11.524,0.576,16.825-1.189c0.53-0.176,1.096-0.388,1.676-0.63C384.06,148.413,383.54,149.727,383.199,150.729z
	 M348.685,128.504c5.475,1.363,10.591,3.739,16.15,4.795c5.79,1.1,14.432,1.078,19.247,4.885c0.756,0.598,1.167,1.414,1.355,2.346
	c-0.118,0.102-0.235,0.206-0.362,0.3c-1.558,1.154-3.503,1.83-5.356,2.311c-4.151,1.077-8.636,1.245-12.882,0.719
	c-8.976-1.111-18.318-7.373-21.52-16.049C346.385,127.782,347.762,128.274,348.685,128.504z M338.131,146.178
	c1.249-3.203,2.506-6.424,3.641-9.669c0.466-1.333,0.854-2.813,1.313-4.262c2.67,6.273,8.172,11.182,14.536,14.058
	c-2.87,3.808-4.631,10.088-5.809,13.376c-0.384,1.071-1.44,3.601-2.345,6.435c0.065-3.706-1.589-6.848-5.267-9.283
	c-2.985-1.977-6.251-3.475-9.62-4.761C336.026,150.438,337.141,148.718,338.131,146.178z M313.835,154.569
	c6.439,2.058,13.031,4.011,19.262,6.624c1.786,0.749,6.651,2.08,7.608,4.144c-6.429,4.337-15.417,6.382-22.456,2.534
	c-5.447-2.978-7.503-9.876-10.691-15.195C309.601,152.853,312.572,154.166,313.835,154.569z M303.626,158.825
	c0.296-1.138,0.659-3.415,1.444-4.848c3.521,6.985,4.932,15.047,12.346,18.742c-5.35,14.138-10.454,28.483-15.383,42.762
	c-4.219,12.221-6.575,25.32-11.937,37.119c-5.733-0.09-11.469-0.166-17.207-0.22c3.148-6.47,5.328-13.378,7.564-20.231
	c2.848-8.731,5.394-17.554,7.955-26.372C293.006,189.952,299.491,174.758,303.626,158.825z M286.6,182.227
	c-0.434,1.231-0.866,2.462-1.275,3.695c-3.752,11.333-6.61,22.956-9.855,34.441c-2.987,10.569-6.714,21.16-8.823,31.962
	c-0.765-0.005-1.531-0.005-2.297-0.009c-1.38-6.708,0.365-13.585,0.237-20.364c-0.131-6.958-1.42-13.855-1.645-20.812
	c-0.217-6.712,1.209-13.247,1.35-19.926C272.67,190.981,280.107,187.306,286.6,182.227z M280.968,174.489
	c1.374,0.591,2.822,1.046,4.277,1.469c-1.547,1.393-3.076,2.81-4.687,4.091c-4.699,3.736-9.849,6.069-15.899,6.399
	c-8.946,0.487-18.444-2-25.025-8.117C252.928,174.743,267.433,171.705,280.968,174.489z M258.515,212.741
	c0.087,6.875,1.323,13.752,0.98,20.628c-0.216,4.354-0.896,8.674-1.085,13.032c-0.08,1.851-0.304,4.025,0.178,5.893
	c-2.541-0.01-5.081-0.028-7.623-0.031c-2.518-8.984-3.998-18.088-5.222-27.356c-1.433-10.847-3.909-21.415-6.089-32.129
	c-0.869-4.273-1.713-8.552-2.563-12.829c5.774,7.1,15.075,10.687,24.251,11.211C260.307,198.407,258.421,205.315,258.515,212.741z
	 M272.286,141.42c0.05,0.232,0.099,0.466,0.146,0.739c1.052,6.099-0.215,12.342,0.024,18.482c0.039,1.001,0.129,1.995,0.28,2.971
	c-12.767-0.368-25.907,2.439-37.751,5.913c-1.109-5.372-2.266-10.733-3.542-16.069c-0.27-1.13-0.522-2.323-0.772-3.536
	c7.277,3.766,16.173,2.123,24.184-0.01C259.364,148.708,268.582,146.205,272.286,141.42z M244.524,139.913
	c7.226-1.294,15.804-3.209,23.219-1.888c-1.143,1.293-2.307,2.548-4.061,3.523c-3.062,1.702-6.436,2.762-9.784,3.733
	c-8.404,2.438-16.038,3.968-24.037,0.726c-0.27-1.275-0.55-2.555-0.87-3.829C234.185,142.204,239.64,140.787,244.524,139.913z
	 M224.41,165.653c2.584,11.184,4.917,22.425,7.481,33.614c2.36,10.295,4.94,20.436,6.921,30.815
	c1.412,7.399,3.106,15.967,7.807,22.186c-7.223,0.003-14.447,0.042-21.669,0.104c-5.613-15.788-6.846-32.753-9.501-49.205
	c-2.837-17.578-5.965-35.03-10.189-52.323c3.559-0.692,7.243-1.926,10.054-4.244c1.495-1.233,2.501-2.7,3.35-4.258
	C221.328,149.764,222.67,158.119,224.41,165.653z M192.795,143.192c3.534-0.832,7.112-1.477,10.56-2.633
	c2.759-0.925,5.255-2.355,7.919-3.501c2.743-1.18,3.969-1.325,5.027,0.052c-0.339,0.815-0.668,1.656-1.077,2.515
	c-2.304,4.828-7.485,6.638-12.43,7.494c-6.14,1.062-11.393-0.943-16.901-2.232C188.078,143.975,191.142,143.582,192.795,143.192z
	 M183.007,147.755c5.747,2.954,12.903,4.137,19.184,3.534c3.28,18.191,6.058,36.494,8.767,54.776
	c2.274,15.347,2.977,31.635,8.224,46.375c-4.215,0.045-8.431,0.083-12.644,0.148c-0.097-0.151-0.201-0.301-0.317-0.45
	c-1.756-2.247-1.742-6.945-2.415-9.658c-1.385-5.582-3.001-11.117-4.502-16.669c-2.988-11.048-5.583-22.207-7.896-33.414
	c-1.892-9.167-3.129-18.498-5.649-27.517C184.677,161.007,181.248,152.473,183.007,147.755z M178.875,175.628
	c0.57,2.445,1.11,4.896,1.567,7.364c2.666,14.39,6.066,28.576,9.436,42.81c1.553,6.559,3.246,13.118,4.577,19.726
	c0.359,1.777,0.628,3.566,0.978,5.32c-4.51-1.296-9.017-2.601-13.516-3.928c-5.223-6.96-6.02-16.485-8.618-24.601
	c-3.708-11.586-7.401-22.903-10.006-34.776C169.948,185.796,175.244,181.353,178.875,175.628z M174.357,244.657
	c-3.217-0.977-6.429-1.966-9.627-2.988c-4.488-1.434-8.948-2.941-13.391-4.497c-0.556-2.331-1.9-4.928-2.33-6.465
	c-1.424-5.094-2.558-10.29-3.776-15.437c-2.396-10.129-6.398-20.019-8.35-30.265c6.213,4.506,16.216,4.249,23.393,3.146
	c0.619,13.027,5.874,25.35,9.196,37.82C170.998,231.697,171.797,238.788,174.357,244.657z M173.991,172.913
	c-3.167,4.744-6.406,8.685-13.127,10.127c-7.09,1.522-14.829,1.68-21.786-0.563C150.521,178.566,162.203,175.615,173.991,172.913z
	 M152.748,158.836c1.159,2.432,2.421,5.47,4.176,7.958c-9.412,2.435-18.707,5.301-27.525,9.31c-0.179,0.081-0.34,0.186-0.5,0.289
	c-0.129-0.257-0.259-0.514-0.385-0.768c-2.278-4.568-5.19-8.879-8.079-13.148c5.358-1.151,11.494-5.025,14.766-7.295
	c4.144-2.875,8.423-6.865,10.437-11.669c0.076,0.152,0.152,0.306,0.228,0.454C148.375,148.811,150.401,153.912,152.748,158.836z
	 M132.911,142.947c3.152-1.177,6.523-3.057,9.954-3.109c0.031,0,0.049-0.003,0.079-0.004c-2.761,5.474-6.828,9.711-12.259,12.975
	c-2.838,1.706-5.904,3.135-9.058,4.15c-1.361,0.438-2.809,0.67-4.194,1.035c-1.704-2.604-3.285-5.375-4.871-8.169
	C119.546,148.403,126.297,145.418,132.911,142.947z M96.944,143.199c5.365,7.164,9.558,15.425,14.507,22.899
	c3.201,4.835,6.169,9.875,9.612,14.539c2.972,4.028,5.565,8.512,8.708,12.441c2.252,7.536,5.096,14.902,7.255,22.488
	c1.641,5.765,3.024,12.74,5.852,18.577c-6.905-2.512-13.78-5.106-20.657-7.697c-3.323-3.408-5.329-7.538-7.817-11.715
	c-4.512-7.576-9.38-15-14.272-22.336c-4.231-6.344-8.641-12.562-12.779-18.969c-3.86-5.976-6.548-12.365-9.943-18.51
	c3.762-1.706,7.353-4.027,10.095-7.009c2.412-2.622,3.971-5.886,5.741-9.002C94.693,140.187,95.919,141.832,96.944,143.199z
	 M72.753,142.216c4.754-2.013,10.729-5.676,16.06-5.394c0.188,0.01,0.371,0.034,0.554,0.063c-0.755,1.389-1.396,2.864-2.112,4.185
	c-2.706,4.994-7.076,8.333-12.229,10.643c-9.514,4.266-18.647,3.386-28.149,1.378C55.364,149.118,64.09,145.885,72.753,142.216z
	 M61.074,178.571c-3.181-5.263-6.293-10.612-10.043-15.501c-1.868-2.435-4.181-4.69-5.766-7.301
	c8.187,4.253,20.149,3.397,28.101,0.74c0.395-0.132,0.79-0.283,1.185-0.428c1.086,6.554,5.213,13.07,8.47,18.583
	c4.548,7.698,9.814,14.956,14.605,22.502c4.809,7.573,9.766,15.125,14.066,23.002c0.437,0.802,0.931,1.805,1.48,2.885
	c-0.848-0.317-1.696-0.637-2.545-0.952c-10.104-3.753-20.269-7.334-30.447-10.876c-1.304-1.92-2.086-4.522-3.034-6.398
	c-1.575-3.113-3.39-6.142-5.225-9.108C68.362,189.967,64.573,184.36,61.074,178.571z M26.944,224.047
	c-5.866-9.498-11.159-18.936-15.425-29.093c2.523,0.897,5.01,2.374,7.226,3.267c3.928,1.584,7.952,2.911,11.989,4.186
	c8.892,2.806,17.694,5.762,26.491,8.854c18.498,6.503,37.048,12.873,55.372,19.856c17.914,6.826,35.771,13.812,54.077,19.538
	c2.87,0.898,5.754,1.748,8.643,2.582c-0.597,0.016-1.196,0.028-1.794,0.044c-0.067,0.002-0.134,0.004-0.201,0.006
	c-9.921-0.854-19.846-1.564-29.814-1.354c-21.224,0.449-42.298,0.151-63.431-1.963c-9.989-0.999-19.976-2.45-30.013-2.851
	c-2.676-0.107-5.575-0.243-8.529-0.245c-0.801-2.611-2.386-5.107-3.936-7.577C34.295,234.028,30.213,229.339,26.944,224.047z
	 M430.367,277.967c3.325,6.079,1.892,15.358,1.073,21.905c-1.909,15.25-6.836,30.657-13.75,44.384
	c-6.012,11.936-14.333,25.812-27.639,30.462c-7.579,2.648-15.603,3.126-23.552,3.488c-9.213,0.419-18.394,1.286-27.595,1.897
	c-19.929,1.324-39.874,2.068-59.833,2.726c-39.603,1.306-79.098,1.669-118.716,1.525c-19.563-0.071-39.502,0.76-58.552-4.421
	c-16.122-4.384-34.596-9.47-46.487-21.992c-11.074-11.661-15.842-27.865-21.851-42.409c-6.089-14.738-11.956-30.715-8.253-46.921
	c1.582-6.922,6.421-7.349,12.711-8.182c9.137-1.21,18.256-1.382,27.463-1.122c9.319,0.263,18.568,1.83,27.854,2.604
	c9.993,0.833,20.029,1.205,30.056,1.211c10.096,0.006,20.167-0.769,30.256-0.988c10.083-0.219,20.163,0.24,30.24,0.515
	c18.455,0.504,37.09,0.39,55.541-0.674c8.824,0.34,17.649,0.677,26.474,0.971c39.35,1.312,78.665-0.452,117.956,2.872
	c11.527,0.975,24.134,0.736,35.212,4.309C423.423,271.561,428.025,273.685,430.367,277.967z M486.461,212.209
	c-8.076,5.266-15.794,11.224-23.588,16.9c-7.644,5.566-15.16,11.266-22.947,16.634c-6.541,4.51-13.573,8.959-19.049,14.802
	c-2.713-0.653-5.459-1.127-8.096-1.498c-6.012-0.847-12.075-1.031-18.124-1.436c-9.214-0.617-18.395-1.722-27.615-2.329
	c-8.589-0.565-17.188-0.996-25.79-1.343c9.561-3.257,18.948-7.219,28.342-10.595c17.506-6.291,35.021-12.578,52.764-18.177
	c17.171-5.419,34.618-10.022,52.233-13.755c5.812-1.232,11.348-2.87,17.064-4.453c1.632-0.452,3.562-1.097,5.558-1.614
	C493.845,207.895,489.975,209.918,486.461,212.209z"/>
<g>
</g>
<g>
</g>
<g>
</g>
<g>
</g>
<g>
</g>
<g>
</g>
<g>
</g>
<g>
</g>
<g>
</g>
<g>
</g>
<g>
</g>
<g>
</g>
<g>
</g>
<g>
</g>
<g>
</g>
</svg>
