<svg id="Capa_1" enable-background="new 0 0 512 512" height="512" viewBox="0 0 512 512" width="512" xmlns="http://www.w3.org/2000/svg"><g><g><g><path d="m361.057 440.86v11.164c0 15.864-9.288 30.231-23.726 36.806-17.006 7.745-43.621 15.67-81.331 15.67s-64.325-7.925-81.331-15.67c-14.437-6.575-23.726-20.942-23.726-36.806v-11.164z" fill="#8db9c2"/></g><g><path d="m478.236 245.898c0 122.737-99.498 222.236-222.236 222.236s-222.236-99.498-222.236-222.236z" fill="#eff3f5"/></g><g><path d="m415.606 245.898c0 112.106-83.014 204.808-190.921 220.029 10.233 1.443 20.684 2.207 31.315 2.207 122.737 0 222.236-99.498 222.236-222.236z" fill="#c9e2e7"/></g><g><ellipse cx="256" cy="245.898" fill="#8db9c2" rx="222.236" ry="111.118"/></g><g><path d="m256 326.711c-53.954 0-106.292-10.697-143.592-29.346-30.268-15.135-48.339-34.374-48.339-51.467s18.071-36.332 48.339-51.467c37.3-18.65 89.637-29.346 143.592-29.346s106.292 10.696 143.592 29.346c30.268 15.135 48.339 34.374 48.339 51.467s-18.071 36.332-48.339 51.467c-37.3 18.65-89.638 29.346-143.592 29.346z" fill="#c9e2e7"/></g><g><path d="m79.695 275.197c8.128 7.837 19.201 15.412 32.714 22.169 37.3 18.65 89.637 29.346 143.592 29.346s106.292-10.697 143.592-29.346c13.513-6.757 24.586-14.332 32.714-22.169-2.879-15.753-18.885-32.758-44.05-46.42-34.357-18.65-82.562-29.346-132.257-29.346s-97.9 10.696-132.255 29.346c-25.165 13.661-41.172 30.667-44.05 46.42z" fill="#fdcb82"/></g><g><path d="m423.881 257.383c-8.792 7.415-19.83 14.546-32.799 21.031-43.548 21.773-104.651 34.261-167.643 34.261-36.041 0-71.456-4.095-103.326-11.671 36.624 16.393 85.55 25.707 135.888 25.707 53.954 0 106.292-10.697 143.592-29.346 13.513-6.757 24.586-14.332 32.714-22.169-1.069-5.843-3.948-11.859-8.426-17.813z" fill="#fcb143"/></g></g><g><g><path d="m236.807 256c-3.006 17.032-23.623 25.254-51.518 25.254s-55.706-9.112-49.498-25.254c5.051-13.132 26.991-10.629 53.539-19.193 31.314-10.102 50.507 2.02 47.477 19.193z" fill="#fc8086"/></g><g><path d="m226.656 236.538c.323 2.003.306 4.124-.083 6.33-3.006 17.032-23.623 25.254-51.518 25.254-15.26 0-30.481-2.733-40.135-7.846-.211 13.465 25.042 20.978 50.369 20.978 27.895 0 48.513-8.222 51.518-25.254 1.471-8.335-2.306-15.471-10.151-19.462z" fill="#fb636f"/></g></g><g><g><ellipse cx="304.488" cy="244.888" fill="#7fd061" rx="20.203" ry="13.132"/></g></g><g><g><ellipse cx="368.128" cy="264.081" fill="#7fd061" rx="20.203" ry="13.132"/></g></g><g><g><ellipse cx="273.173" cy="288.325" fill="#7fd061" rx="20.203" ry="13.132"/></g></g><g><path d="m485.736 245.898c0-20.288-9.778-40.2-28.276-57.584-17.171-16.137-41.921-30.159-71.575-40.551-3.911-1.366-8.188.69-9.559 4.598-1.37 3.909.688 8.188 4.598 9.559 56.238 19.707 89.813 51.102 89.813 83.979 0 26.691-21.644 52.213-60.946 71.864-40.954 20.477-95.571 31.754-153.79 31.754-36.159 0-71.948-4.503-103.499-13.022-4.002-1.088-8.116 1.287-9.196 5.285-1.08 3.999 1.287 8.116 5.286 9.195 32.807 8.859 69.949 13.542 107.409 13.542 60.503 0 117.502-11.84 160.499-33.338 20.482-10.241 36.728-22.161 48.33-35.214-22.618 94.335-107.659 164.669-208.83 164.669-101.199 0-186.26-70.373-208.848-164.748 15.023 16.947 37.778 31.937 67.107 43.699.916.367 1.86.541 2.79.541 2.974 0 5.789-1.781 6.963-4.71 1.542-3.845-.325-8.211-4.169-9.753-49.938-20.027-78.579-49.101-78.579-79.765 0-26.691 21.644-52.214 60.945-71.864 40.954-20.476 95.571-31.754 153.791-31.754 32.122 0 63.043 3.402 91.904 10.112 4.034.942 8.065-1.572 9.003-5.606s-1.572-8.065-5.607-9.003c-29.973-6.97-62.037-10.503-95.301-10.503-60.503 0-117.502 11.84-160.499 33.338-44.648 22.324-69.237 52.61-69.237 85.28 0 61.364 23.896 119.057 67.288 162.447 15.056 15.056 31.836 27.759 49.891 37.936v5.742c0 18.727 11.037 35.854 28.117 43.631 16.373 7.458 44.313 16.346 84.441 16.346s68.068-8.888 84.44-16.345c17.081-7.777 28.117-24.904 28.117-43.631v-5.742c18.055-10.178 34.835-22.881 49.891-37.936 43.391-43.391 67.288-101.083 67.288-162.448zm-151.513 236.107c-15.021 6.841-40.785 14.995-78.223 14.995s-63.202-8.154-78.223-14.995c-11.125-5.066-18.509-15.893-19.26-27.954 30.118 14.128 63.226 21.582 97.483 21.582s67.365-7.454 97.483-21.582c-.751 12.061-8.135 22.888-19.26 27.954z"/><path d="m92.62 215.374c3.283-2.526 3.896-7.235 1.37-10.518-2.527-3.283-7.236-3.895-10.518-1.369-17.6 13.545-26.902 28.21-26.902 42.411 0 20.293 19.13 41.497 52.485 58.175 38.307 19.153 91.867 30.138 146.946 30.138s108.639-10.984 146.946-30.138c33.355-16.678 52.485-37.882 52.485-58.175s-19.13-41.497-52.485-58.175c-38.309-19.153-91.869-30.138-146.947-30.138-51.863 0-103.211 9.925-140.877 27.229-3.764 1.729-5.414 6.183-3.684 9.946 1.729 3.764 6.18 5.413 9.946 3.685 35.772-16.435 84.837-25.86 134.615-25.86 52.828 0 103.942 10.408 140.237 28.555 27.26 13.631 44.193 30.781 44.193 44.759 0 4.695-1.918 9.748-5.489 14.905-7.465-13.84-22.486-27.422-43.109-38.617-35.419-19.228-84.928-30.255-135.833-30.255s-100.415 11.027-135.833 30.255c-20.623 11.195-35.644 24.778-43.109 38.617-3.57-5.157-5.489-10.21-5.489-14.905.001-9.237 7.477-20.078 21.052-30.525zm34.703 19.995c33.292-18.073 80.192-28.438 128.677-28.438s95.386 10.365 128.677 28.438c20.628 11.197 34.922 24.898 39.239 37.371-7.224 6.254-16.598 12.376-27.678 17.917-36.294 18.146-87.409 28.554-140.238 28.554s-103.943-10.407-140.237-28.554c-11.08-5.541-20.454-11.663-27.679-17.917 4.317-12.473 18.611-26.174 39.239-37.371z"/><path d="m185.289 288.754c33.907 0 55.377-11.463 58.904-31.45.079-.45.139-.898.196-1.346 3.778-2.209 9.614-6.349 13.072-12.401 2.055-3.597.806-8.178-2.791-10.232-3.595-2.055-8.178-.806-10.232 2.791-.794 1.39-1.985 2.674-3.277 3.799-1.33-2.22-3.026-4.258-5.079-6.046-10.658-9.287-28.54-10.818-49.055-4.2-8.887 2.867-17.369 4.456-24.853 5.858-15.35 2.876-28.606 5.36-33.383 17.78-2.348 6.104-1.649 12.367 1.969 17.635 9.018 13.132 34.081 17.812 54.529 17.812zm-42.498-30.062c1.685-4.381 9.513-6.055 22.146-8.422 7.923-1.484 16.902-3.167 26.696-6.326 7.324-2.362 13.614-3.314 18.835-3.314 7.507 0 12.801 1.97 15.761 4.549 2.803 2.441 3.877 5.644 3.193 9.518-2.106 11.934-18.604 19.058-44.133 19.058-22.345 0-38.401-5.824-42.165-11.304-.704-1.026-1.005-2.012-.333-3.759z"/><path d="m304.488 265.521c15.535 0 27.703-9.063 27.703-20.632s-12.168-20.633-27.703-20.633-27.703 9.063-27.703 20.633 12.168 20.632 27.703 20.632zm0-26.265c7.756 0 12.703 3.698 12.703 5.633 0 1.934-4.947 5.632-12.703 5.632s-12.703-3.698-12.703-5.632c0-1.935 4.947-5.633 12.703-5.633z"/><path d="m368.128 284.714c15.535 0 27.704-9.063 27.704-20.633s-12.169-20.632-27.704-20.632-27.703 9.063-27.703 20.632 12.168 20.633 27.703 20.633zm0-26.265c7.756 0 12.704 3.698 12.704 5.632 0 1.935-4.947 5.633-12.704 5.633-7.756 0-12.703-3.698-12.703-5.633 0-1.934 4.947-5.632 12.703-5.632z"/><path d="m245.47 288.325c0 11.569 12.168 20.632 27.703 20.632s27.703-9.063 27.703-20.632-12.168-20.632-27.703-20.632-27.703 9.063-27.703 20.632zm27.703-5.632c7.756 0 12.703 3.698 12.703 5.632s-4.947 5.632-12.703 5.632-12.703-3.698-12.703-5.632 4.947-5.632 12.703-5.632z"/><path d="m244.459 83.26c0 8.509 3.019 13.227 5.223 16.672 1.782 2.784 2.858 4.466 2.858 8.585 0 4.143 3.358 7.5 7.5 7.5s7.5-3.357 7.5-7.5c0-8.508-3.019-13.226-5.223-16.67-1.782-2.785-2.858-4.467-2.858-8.587s1.076-5.801 2.858-8.585c2.204-3.445 5.223-8.162 5.223-16.671 0-8.508-3.019-13.225-5.224-16.669-1.782-2.784-2.857-4.465-2.857-8.584 0-4.118 1.076-5.798 2.857-8.582 2.205-3.444 5.224-8.161 5.224-16.669 0-4.143-3.358-7.5-7.5-7.5s-7.5 3.357-7.5 7.5c0 4.118-1.076 5.799-2.857 8.583-2.205 3.444-5.224 8.161-5.224 16.668 0 8.508 3.019 13.226 5.224 16.67 1.782 2.784 2.857 4.465 2.857 8.583 0 4.119-1.076 5.801-2.858 8.585-2.203 3.445-5.223 8.163-5.223 16.671z"/><path d="m300.018 83.26c0 8.509 3.019 13.227 5.224 16.672 1.782 2.784 2.858 4.466 2.858 8.585 0 4.143 3.358 7.5 7.5 7.5s7.5-3.357 7.5-7.5c0-8.508-3.019-13.226-5.224-16.671-1.782-2.785-2.858-4.466-2.858-8.586 0-4.119 1.076-5.801 2.858-8.585 2.205-3.445 5.224-8.162 5.224-16.671 0-8.508-3.019-13.225-5.224-16.669-1.782-2.784-2.858-4.465-2.858-8.584 0-4.143-3.358-7.5-7.5-7.5s-7.5 3.357-7.5 7.5c0 8.508 3.02 13.226 5.224 16.67 1.782 2.784 2.857 4.465 2.857 8.583 0 4.119-1.076 5.801-2.858 8.585-2.204 3.445-5.223 8.162-5.223 16.671z"/><path d="m187.89 83.26c0 8.509 3.019 13.227 5.224 16.672 1.782 2.784 2.858 4.466 2.858 8.585 0 4.143 3.358 7.5 7.5 7.5s7.5-3.357 7.5-7.5c0-8.508-3.019-13.226-5.224-16.671-1.782-2.785-2.858-4.466-2.858-8.586 0-4.119 1.076-5.801 2.858-8.585 2.205-3.445 5.224-8.162 5.224-16.671 0-8.508-3.019-13.225-5.224-16.669-1.782-2.784-2.858-4.465-2.858-8.584 0-4.143-3.358-7.5-7.5-7.5s-7.5 3.357-7.5 7.5c0 8.508 3.02 13.226 5.224 16.67 1.782 2.784 2.857 4.465 2.857 8.583 0 4.119-1.076 5.801-2.858 8.585-2.204 3.445-5.223 8.162-5.223 16.671z"/></g></g></svg>