<?xml version="1.0" encoding="iso-8859-1"?>
<!-- Generator: Adobe Illustrator 19.0.0, SVG Export Plug-In . SVG Version: 6.00 Build 0)  -->
<svg version="1.1" id="Capa_1" xmlns="http://www.w3.org/2000/svg" xmlns:xlink="http://www.w3.org/1999/xlink" x="0px" y="0px"
	 viewBox="0 0 511.998 511.998" style="enable-background:new 0 0 511.998 511.998;" xml:space="preserve">
<g>
	<path style="fill:#FEDA9B;" d="M203.491,62.158C94.436,75.583,10,168.547,10,281.232c0,121.613,99.128,220.742,220.741,220.741
		c112.685,0,205.649-84.436,219.075-193.491c1.784-14.495-9.633-27.25-24.237-27.25H230.741V86.395
		C230.741,71.791,217.986,60.373,203.491,62.158z"/>
	<path style="fill:#FEDA9B;" d="M501.928,224.57C492.087,110.688,401.346,19.944,287.466,10.098
		c-11.056-0.956-20.591,7.669-20.591,18.766v216.407l216.296-0.112C494.264,245.155,502.883,235.621,501.928,224.57z"/>
</g>
<path style="fill:#FFC66C;" d="M230.741,100.273c-9.717,0-19.434,2.551-27.933,7.653c-10.422,6.257-22.377,9.46-34.53,9.252
	c-19.905-0.34-38.92,10.687-48.5,28.149c-5.758,10.494-14.449,19.185-24.943,24.943c-17.461,9.58-28.489,28.595-28.149,48.5
	c0.208,12.154-2.996,24.109-9.252,34.53c-10.205,16.998-10.205,38.867,0,55.865c6.257,10.422,9.46,22.377,9.252,34.53
	c-0.34,19.905,10.687,38.92,28.149,48.5c10.494,5.758,19.185,14.449,24.943,24.943c9.58,17.461,28.595,28.489,48.5,28.149
	c12.154-0.208,24.109,2.996,34.53,9.252c16.998,10.205,38.867,10.205,55.865,0c10.422-6.257,22.377-9.46,34.53-9.252
	c19.905,0.34,38.92-10.687,48.5-28.149c5.758-10.494,14.449-19.185,24.943-24.943c17.461-9.58,28.489-28.595,28.149-48.5
	c-0.208-12.154,2.996-24.109,9.252-34.53c5.102-8.499,7.653-18.216,7.653-27.933H230.741V100.273z"/>
<g>
	<path style="fill:#B0E573;" d="M91.793,295.504l-0.379-0.143l0.065-0.4c3.713-22.724,27.43-36.241,48.873-27.855l0,0l0,0
		C136.894,289.87,113.329,303.651,91.793,295.504z"/>
	<path style="fill:#B0E573;" d="M219.564,389.965l-0.006-0.405l0.396-0.087c22.494-4.916,43.795,12.157,43.894,35.182l0,0l0,0
		C241.41,429.822,219.92,412.987,219.564,389.965z"/>
</g>
<g>
	<circle style="fill:#FF5D5D;" cx="297.74" cy="348.451" r="30.882"/>
	<circle style="fill:#FF5D5D;" cx="154.13" cy="203.041" r="30.882"/>
</g>
<path style="fill:#FFFFFF;" d="M161.909,321.764c-18.425,0.817-33.405,15.797-34.222,34.222
	c-0.482,10.87,3.873,20.729,11.094,27.611c6.144,5.856,16.297,2.718,18.179-5.559c0.561-2.468,1.393-4.886,2.482-7.214l5.322,5.322
	c3.674,3.674,9.632,3.674,13.306,0l4-4c3.674-3.674,3.674-9.632,0-13.306l-5.322-5.322c2.328-1.088,4.745-1.921,7.214-2.482
	c8.276-1.882,11.415-12.034,5.559-18.179C182.638,325.637,172.779,321.282,161.909,321.764z"/>
<path style="fill:#B0E573;" d="M234.016,284.74l-6.383-6.383c-3.775-3.775-9.896-3.775-13.671,0l-6.383,6.383
	c-3.775,3.775-3.775,9.896,0,13.671l6.383,6.383c3.775,3.775,9.896,3.775,13.671,0l6.383-6.383
	C237.791,294.635,237.791,288.515,234.016,284.74z"/>
<path style="fill:#FFC66C;" d="M460.291,245.272c0.021-10.426-2.704-20.858-8.178-29.977c-6.687-11.139-10.111-23.917-9.889-36.908
	c0.363-21.275-11.423-41.599-30.087-51.839c-11.216-6.154-20.506-15.443-26.66-26.66c-10.24-18.664-30.563-30.45-51.839-30.087
	c-12.99,0.222-25.768-3.202-36.908-9.889c-9.084-5.454-19.47-8.18-29.856-8.18v193.54L460.291,245.272L460.291,245.272z"/>
<path style="fill:#FF5D5D;" d="M358.215,242.689l-29.59-29.59c-6.872-6.872-18.013-6.872-24.884,0l-29.59,29.59H358.215z"/>
<path style="fill:#FFFFFF;" d="M391.761,166.541c-0.758-17.084-14.647-30.973-31.731-31.731
	c-10.078-0.447-19.22,3.591-25.601,10.286c-5.429,5.697-2.52,15.11,5.154,16.855c2.289,0.52,4.53,1.292,6.689,2.301l-4.935,4.935
	c-3.407,3.407-3.407,8.93,0,12.337l3.709,3.709c3.407,3.407,8.93,3.407,12.337,0l4.935-4.935c1.009,2.158,1.781,4.4,2.301,6.689
	c1.745,7.674,11.158,10.584,16.855,5.154C388.17,185.761,392.208,176.619,391.761,166.541z"/>
<path style="fill:#B0E573;" d="M299.907,133.109l-0.153,0.405l-0.428-0.07c-24.288-3.968-38.736-29.318-29.773-52.238l0,0l0,0
	C293.884,84.903,308.614,110.09,299.907,133.109z"/>
<path d="M425.579,271.233H370.5c-5.523,0-10,4.478-10,10s4.477,10,10,10h30.064c-1.024,4.518-2.722,8.84-5.091,12.785
	c-7.225,12.035-10.917,25.813-10.677,39.848c0.277,16.229-8.735,31.758-22.96,39.562c-12.209,6.699-22.202,16.692-28.899,28.9
	c-7.805,14.224-23.354,23.226-39.562,22.961c-14.042-0.267-27.814,3.451-39.849,10.677c-13.841,8.309-31.728,8.311-45.57,0
	c-12.035-7.227-25.813-10.938-39.849-10.677c-16.233,0.252-31.757-8.735-39.562-22.962c-6.698-12.207-16.691-22.2-28.9-28.899
	c-14.225-7.804-23.237-23.333-22.96-39.562c0.24-14.035-3.453-27.814-10.677-39.848c-8.31-13.842-8.31-31.729,0-45.57
	c7.225-12.034,10.917-25.813,10.677-39.849c-0.277-16.229,8.735-31.758,22.96-39.563c12.208-6.698,22.202-16.691,28.9-28.899
	c7.804-14.225,23.344-23.217,39.562-22.96c14.029,0.267,27.814-3.452,39.847-10.677c3.946-2.369,8.269-4.067,12.786-5.091v154.128
	c-5.017,0.015-10.03,1.929-13.85,5.747l-6.383,6.384c-3.714,3.714-5.76,8.652-5.76,13.906s2.046,10.192,5.76,13.906l6.384,6.384
	c3.834,3.833,8.869,5.75,13.906,5.75c5.036,0,10.073-1.917,13.908-5.751l6.382-6.383c3.714-3.714,5.76-8.652,5.76-13.906
	c0-0.115-0.015-0.227-0.017-0.342h45.67c5.523,0,10-4.478,10-10s-4.477-10-10-10h-51.759V86.395c0-9.868-4.241-19.279-11.635-25.818
	c-7.348-6.499-17.132-9.539-26.836-8.344C86.958,66.428,0,164.877,0,281.232c0,61.488,24.041,119.394,67.694,163.047
	s101.558,67.694,163.047,67.694c116.355,0,214.804-86.957,229-202.27c1.195-9.707-1.846-19.489-8.345-26.836
	C444.857,275.473,435.447,271.233,425.579,271.233z M220.798,297.487l-5.912-5.912l5.912-5.912l5.911,5.912L220.798,297.487z
	 M439.891,307.261c-12.964,105.304-102.879,184.713-209.15,184.713c-56.146,0-109.029-21.961-148.905-61.837S20,337.379,20,281.232
	C20,174.961,99.41,85.046,204.713,72.083c4.083-0.503,8.04,0.731,11.143,3.476c3.104,2.745,4.885,6.695,4.885,10.837v4.654
	c-8.178,1.265-16.022,4.068-23.08,8.304c-8.822,5.296-18.94,8.038-29.212,7.827c-23.563-0.354-46.106,12.685-57.438,33.337
	c-4.864,8.865-12.121,16.122-20.986,20.985c-20.654,11.332-33.74,33.878-33.337,57.438c0.176,10.288-2.531,20.39-7.828,29.212
	c-12.064,20.095-12.064,46.064,0,66.16c5.296,8.821,8.003,18.922,7.827,29.211c-0.403,23.561,12.683,46.106,33.337,57.438
	c8.865,4.864,16.122,12.121,20.986,20.985c11.332,20.654,33.875,33.757,57.438,33.339c10.274-0.184,20.39,2.53,29.212,7.826
	c10.047,6.032,21.563,9.048,33.079,9.048c11.516,0,23.032-3.016,33.08-9.048c8.822-5.296,18.928-8.011,29.212-7.826
	c0.354,0.006,0.704,0.009,1.057,0.009c23.174-0.002,45.22-13.003,56.381-33.348c4.863-8.864,12.12-16.121,20.985-20.984
	c20.654-11.332,33.74-33.878,33.337-57.438c-0.176-10.288,2.53-20.389,7.827-29.211c4.236-7.057,7.04-14.901,8.305-23.08h4.654
	c4.142,0,8.091,1.78,10.837,4.885C439.159,299.221,440.394,303.178,439.891,307.261z"/>
<path d="M340.57,288.304c1.86-1.86,2.93-4.44,2.93-7.07s-1.07-5.21-2.93-7.07c-1.86-1.859-4.44-2.93-7.07-2.93s-5.21,1.07-7.07,2.93
	c-1.86,1.86-2.93,4.44-2.93,7.07s1.07,5.21,2.93,7.07c1.86,1.859,4.44,2.93,7.07,2.93C336.13,291.233,338.71,290.163,340.57,288.304
	z"/>
<path d="M268.834,319.544c-15.939,15.94-15.939,41.876,0,57.816c7.722,7.722,17.988,11.975,28.908,11.975
	c10.92,0,21.187-4.253,28.908-11.975c15.939-15.94,15.939-41.876,0-57.816c-7.722-7.722-17.988-11.975-28.908-11.975
	C286.823,307.569,276.557,311.822,268.834,319.544z M312.508,363.218c-3.944,3.944-9.188,6.117-14.766,6.117
	s-10.822-2.173-14.766-6.117c-8.142-8.142-8.142-21.39,0-29.531c3.944-3.944,9.188-6.117,14.766-6.117s10.822,2.173,14.766,6.117
	C320.65,341.828,320.65,355.076,312.508,363.218z"/>
<path d="M154.125,162.165c-10.92,0-21.186,4.252-28.908,11.974s-11.974,17.987-11.974,28.908c0,10.92,4.252,21.187,11.974,28.908
	c7.97,7.97,18.439,11.954,28.908,11.954c10.469,0,20.938-3.984,28.908-11.954l0,0c7.722-7.722,11.974-17.988,11.974-28.908
	c0-10.921-4.252-21.187-11.974-28.908S165.046,162.165,154.125,162.165z M168.892,217.812c-8.143,8.142-21.39,8.142-29.532,0
	c-3.944-3.944-6.116-9.188-6.116-14.766s2.172-10.822,6.116-14.766s9.188-6.116,14.766-6.116s10.822,2.172,14.766,6.116
	s6.116,9.188,6.116,14.766C175.008,208.624,172.835,213.868,168.892,217.812z"/>
<path d="M373.12,334.063c1.86-1.86,2.93-4.43,2.93-7.07c0-2.63-1.07-5.21-2.93-7.069c-1.86-1.86-4.43-2.931-7.07-2.931
	c-2.63,0-5.21,1.07-7.07,2.931c-1.86,1.859-2.93,4.439-2.93,7.069s1.07,5.21,2.93,7.07c1.86,1.86,4.44,2.93,7.07,2.93
	C368.69,336.993,371.26,335.924,373.12,334.063z"/>
<path d="M198.81,137.543c-2.63,0-5.21,1.061-7.07,2.921c-1.86,1.859-2.93,4.439-2.93,7.079c0,2.631,1.07,5.211,2.93,7.07
	c1.86,1.86,4.44,2.93,7.07,2.93s5.21-1.069,7.07-2.93c1.86-1.859,2.93-4.439,2.93-7.07c0-2.64-1.07-5.21-2.93-7.079
	C204.02,138.603,201.44,137.543,198.81,137.543z"/>
<path d="M195.09,235.073c-1.86,1.86-2.93,4.44-2.93,7.07s1.07,5.21,2.93,7.07c1.86,1.859,4.44,2.93,7.07,2.93s5.21-1.07,7.07-2.93
	c1.87-1.86,2.93-4.44,2.93-7.07s-1.06-5.21-2.93-7.07c-1.86-1.859-4.43-2.93-7.07-2.93
	C199.53,232.143,196.95,233.214,195.09,235.073z"/>
<path d="M237.81,343.023c1.86-1.86,2.93-4.43,2.93-7.07c0-2.63-1.07-5.21-2.93-7.069c-1.86-1.86-4.44-2.931-7.07-2.931
	s-5.21,1.07-7.07,2.931c-1.86,1.859-2.93,4.439-2.93,7.069c0,2.641,1.07,5.21,2.93,7.07c1.86,1.87,4.44,2.93,7.07,2.93
	S235.95,344.893,237.81,343.023z"/>
<path d="M91.41,247.263c2.64,0,5.22-1.07,7.07-2.931c1.87-1.859,2.94-4.439,2.94-7.069s-1.07-5.21-2.94-7.07
	c-1.86-1.86-4.43-2.93-7.07-2.93c-2.63,0-5.21,1.069-7.07,2.93s-2.93,4.44-2.93,7.07s1.07,5.21,2.93,7.069
	C86.2,246.193,88.78,247.263,91.41,247.263z"/>
<path d="M169.53,264.293c-1.86,1.86-2.93,4.431-2.93,7.07c0,2.63,1.07,5.21,2.93,7.07c1.86,1.859,4.44,2.93,7.07,2.93
	c2.64,0,5.21-1.07,7.07-2.93s2.93-4.44,2.93-7.07c0-2.64-1.07-5.21-2.93-7.07c-1.86-1.859-4.44-2.93-7.07-2.93
	S171.39,262.433,169.53,264.293z"/>
<path d="M87.875,304.714l0.379,0.144v0.001c5.318,2.012,10.856,3.007,16.371,3.007c8.071,0,16.09-2.135,23.274-6.336
	c12.093-7.072,20.235-19.071,22.34-32.921c0.702-4.621-1.891-9.112-6.244-10.815c-13.046-5.102-27.509-4.05-39.679,2.886
	c-12.171,6.937-20.447,18.845-22.706,32.67l-0.065,0.4C80.778,298.444,83.425,303.03,87.875,304.714z M114.219,278.054
	c4.07-2.319,8.573-3.47,13.136-3.444c-2.242,3.952-5.507,7.289-9.551,9.654c-4.131,2.417-8.741,3.576-13.389,3.591
	C106.706,283.817,110.062,280.425,114.219,278.054z"/>
<path d="M227.259,425.753c8.229,6.446,18.198,9.837,28.402,9.837c3.469,0,6.967-0.392,10.431-1.189
	c4.555-1.049,7.776-5.113,7.756-9.788c-0.061-14.009-6.364-27.067-17.294-35.828c-10.931-8.762-25.051-12.069-38.744-9.079
	l-0.396,0.087c-4.641,1.019-7.924,5.161-7.855,9.912l0.006,0.405c0,0.004,0,0.007,0,0.011
	C209.782,404.127,216.231,417.114,227.259,425.753z M244.045,404.389c3.656,2.93,6.398,6.708,8.039,10.944
	c-4.5-0.63-8.804-2.437-12.492-5.325c-3.767-2.951-6.592-6.797-8.269-11.126C235.921,399.526,240.312,401.396,244.045,404.389z"/>
<path d="M201.629,346.381c2.196-7.282,0.376-14.917-4.871-20.422c-9.153-9.604-22.023-14.78-35.293-14.186
	c-23.501,1.043-42.727,20.269-43.769,43.77c-0.589,13.275,4.581,26.139,14.185,35.293c3.969,3.782,9.044,5.784,14.296,5.784
	c2.034,0,4.094-0.301,6.127-0.913c4.713-1.422,8.703-4.442,11.369-8.416c7.096,3.079,15.672,1.721,21.467-4.073l4-4.001
	c5.793-5.794,7.151-14.368,4.074-21.467C197.188,355.084,200.208,351.094,201.629,346.381z M182.481,340.605
	c-0.166,0.55-0.566,0.641-0.739,0.68c-3.156,0.718-6.261,1.785-9.23,3.173c-2.954,1.381-5.049,4.115-5.614,7.327
	s0.472,6.497,2.777,8.803l4.904,4.905l-3.164,3.164l-4.904-4.904c-2.306-2.306-5.594-3.343-8.802-2.777
	c-3.211,0.563-5.946,2.658-7.327,5.612c-1.388,2.968-2.457,6.074-3.175,9.233c-0.039,0.171-0.13,0.571-0.68,0.737
	c-0.484,0.145-0.712-0.071-0.849-0.2c-5.418-5.165-8.335-12.429-8.002-19.929c0.588-13.249,11.426-24.088,24.675-24.676
	c7.501-0.334,14.764,2.584,19.928,8.002C182.41,339.892,182.627,340.121,182.481,340.605z"/>
<path d="M394.5,215.473c0,2.63,1.07,5.21,2.93,7.069c1.86,1.86,4.44,2.931,7.07,2.931s5.21-1.07,7.07-2.931
	c1.86-1.859,2.93-4.439,2.93-7.069s-1.07-5.21-2.93-7.07s-4.44-2.93-7.07-2.93s-5.21,1.069-7.07,2.93
	C395.57,210.263,394.5,212.844,394.5,215.473z"/>
<path d="M332.11,117.363c2.63,0,5.21-1.07,7.07-2.93c1.86-1.87,2.93-4.44,2.93-7.07s-1.07-5.21-2.93-7.08
	c-1.86-1.859-4.44-2.92-7.07-2.92s-5.21,1.061-7.07,2.92c-1.86,1.87-2.93,4.45-2.93,7.08s1.07,5.2,2.93,7.07
	C326.9,116.293,329.48,117.363,332.11,117.363z"/>
<path d="M330.098,168.434c-0.864,2.173-1.315,4.513-1.315,6.922c0,5.001,1.948,9.703,5.484,13.239l3.708,3.708
	c3.537,3.537,8.239,5.485,13.24,5.485c2.409,0,4.749-0.452,6.922-1.315c2.558,3.574,6.256,6.286,10.59,7.594
	c1.956,0.59,3.937,0.878,5.894,0.878c5.053,0,9.936-1.926,13.753-5.564c9.057-8.631,13.933-20.762,13.377-33.282
	c0-0.001,0-0.001,0-0.001c-0.983-22.163-19.114-40.294-41.277-41.277c-12.519-0.554-24.652,4.32-33.282,13.377
	c-5.048,5.296-6.801,12.641-4.688,19.647C323.812,162.179,326.523,165.877,330.098,168.434z M341.669,151.995
	c4.642-4.872,11.175-7.496,17.918-7.194c11.911,0.528,21.655,10.272,22.184,22.183c0.299,6.746-2.323,13.276-7.195,17.948
	c-0.049,0.01-0.145-0.033-0.172-0.062c0,0-0.016-0.027-0.033-0.101c-0.678-2.979-1.685-5.907-2.994-8.707
	c-1.381-2.953-4.116-5.048-7.328-5.612c-0.577-0.102-1.156-0.151-1.731-0.151c-2.628,0-5.179,1.037-7.071,2.929l-4.032,4.032
	l-1.904-1.904l4.032-4.031c2.305-2.306,3.342-5.59,2.778-8.802c-0.564-3.211-2.658-5.945-5.611-7.327
	c-2.8-1.31-5.729-2.317-8.71-2.995c-0.067-0.016-0.095-0.03-0.096-0.03C341.672,152.14,341.637,152.043,341.669,151.995z"/>
<path d="M511.891,223.708c-3.429-39.677-16.656-78.33-38.253-111.782c-2.996-4.64-9.186-5.972-13.825-2.978
	c-4.64,2.996-5.973,9.186-2.978,13.825c19.834,30.721,31.982,66.219,35.13,102.657c0.221,2.561-0.604,5.005-2.325,6.881
	c-1.683,1.836-3.982,2.848-6.474,2.849l-13.604,0.007c-1.291-8.872-4.29-17.381-8.875-25.02c-5.728-9.54-8.654-20.463-8.464-31.589
	c0.426-24.931-13.42-48.787-35.275-60.777c-9.591-5.262-17.441-13.112-22.703-22.703c-11.991-21.854-35.853-35.733-60.777-35.274
	c-11.108,0.167-22.048-2.736-31.589-8.464c-7.633-4.583-16.138-7.582-25.003-8.875v-13.6c0-2.493,1.011-4.794,2.848-6.478
	c1.877-1.722,4.324-2.547,6.882-2.326c37.998,3.285,74.801,16.296,106.43,37.626c4.579,3.088,10.795,1.879,13.882-2.7
	c3.088-4.578,1.879-10.794-2.7-13.882c-34.441-23.226-74.515-37.393-115.89-40.97c-8.095-0.705-16.156,2.038-22.124,7.513
	c-5.929,5.438-9.329,13.171-9.329,21.217v216.407c0,2.653,1.054,5.197,2.931,7.073c1.875,1.874,4.418,2.927,7.069,2.927
	c0.001,0,0.003,0,0.005,0l216.295-0.112c8.042-0.004,15.771-3.405,21.205-9.332C509.853,239.86,512.59,231.798,511.891,223.708z
	 M291.583,68.486c12.753,7.657,27.357,11.575,42.226,11.313c17.583-0.306,34.438,9.474,42.901,24.898
	c7.096,12.934,17.683,23.521,30.617,30.618c15.425,8.462,25.198,25.302,24.898,42.9c-0.254,14.872,3.659,29.474,11.314,42.226
	c2.722,4.534,4.644,9.519,5.725,14.735l-84.374,0.044l-29.194-29.193c-5.212-5.212-12.142-8.083-19.514-8.083
	c-7.371,0-14.301,2.871-19.513,8.083l-19.795,19.795v-91.221c6.077,4.436,13.169,7.457,20.829,8.709l0.428,0.07
	c0.546,0.09,1.089,0.134,1.628,0.134c4.097,0,7.858-2.526,9.347-6.463l0.153-0.405c5.224-13.81,3.945-29.039-3.508-41.783
	c-6.443-11.017-16.769-18.912-28.877-22.287v-9.813C282.082,63.847,287.057,65.769,291.583,68.486z M336.621,235.236l-40.896,0.021
	l15.087-15.087c1.435-1.436,3.342-2.226,5.371-2.226s3.937,0.79,5.372,2.226L336.621,235.236z M276.917,93.96
	c4.764,2.457,8.784,6.235,11.571,11.001c2.842,4.86,4.16,10.333,3.901,15.796c-4.861-2.507-8.942-6.385-11.73-11.277
	C277.924,104.683,276.663,99.313,276.917,93.96z"/>
<path d="M427.445,86.2c1.956,1.975,4.53,2.964,7.106,2.964c2.542,0,5.086-0.964,7.036-2.895c3.924-3.886,3.956-10.217,0.07-14.142
	l-0.769-0.774c-3.902-3.909-10.233-3.915-14.142-0.014s-3.916,10.233-0.014,14.143L427.445,86.2z"/>
<g>
</g>
<g>
</g>
<g>
</g>
<g>
</g>
<g>
</g>
<g>
</g>
<g>
</g>
<g>
</g>
<g>
</g>
<g>
</g>
<g>
</g>
<g>
</g>
<g>
</g>
<g>
</g>
<g>
</g>
</svg>
