<?xml version="1.0" encoding="iso-8859-1"?>
<!-- Generator: Adobe Illustrator 19.0.0, SVG Export Plug-In . SVG Version: 6.00 Build 0)  -->
<svg version="1.1" id="Capa_1" xmlns="http://www.w3.org/2000/svg" xmlns:xlink="http://www.w3.org/1999/xlink" x="0px" y="0px"
	 viewBox="0 0 512.001 512.001" style="enable-background:new 0 0 512.001 512.001;" xml:space="preserve">
<path style="fill:#FFE300;" d="M431.134,139.635v336.783c0.006,13.1-10.609,23.715-23.709,23.721c-0.006,0-0.006,0-0.012,0H35.582
	c-13.1,0.006-23.715-10.609-23.721-23.709c0-0.006,0-0.006,0-0.012V104.586c-0.006-13.1,10.609-23.715,23.709-23.721
	c0.006,0,0.006,0,0.012,0h336.783L182.298,270.457c-1.322,1.293-2.479,2.746-3.44,4.329c-1.186,1.827-2.087,3.831-2.669,5.93
	l-22.001,77.094l77.094-22.001c2.099-0.581,4.104-1.483,5.93-2.669c1.583-0.961,3.036-2.117,4.329-3.44L431.134,139.635z"/>
<g style="opacity:0.08;enable-background:new    ;">
	<path style="fill:#303442;" d="M409.192,440.835H35.582c-13.1,0.006-23.715-10.609-23.721-23.709c0-0.006,0-0.006,0-0.012v59.303
		c-0.006,13.1,10.609,23.715,23.709,23.721c0.006,0,0.006,0,0.012,0h373.61c13.1,0.006,23.715-10.609,23.721-23.709
		c0-0.006,0-0.006,0-0.012v-59.303c0.006,13.1-10.609,23.715-23.709,23.721C409.198,440.835,409.198,440.835,409.192,440.835z"/>
</g>
<path style="fill:#FFFFFF;" d="M493.225,43.801c9.251,9.275,9.251,24.291,0,33.566l-22.12,22.12l-58.592-58.592l22.12-22.12
	c9.275-9.251,24.291-9.251,33.566,0L493.225,43.801z"/>
<path style="fill:#F54B55;" d="M372.365,80.865l40.148-39.97l58.592,58.592l-39.97,40.148L241.542,329.701
	c-1.293,1.322-2.746,2.479-4.329,3.44v-58.354h-58.354c0.961-1.583,2.117-3.036,3.44-4.329L372.365,80.865z"/>
<path style="fill:#FFFFFF;" d="M237.213,274.786v58.354c-1.827,1.186-3.831,2.087-5.93,2.669l-77.094,22.001l22.001-77.094
	c0.581-2.099,1.483-4.104,2.669-5.93H237.213z"/>
<g>
	<path style="fill:#303442;" d="M35.564,511.999c-9.494,0-18.42-3.695-25.139-10.414C3.706,494.867,0,485.936,0,476.429V104.586
		c0-9.5,3.695-18.431,10.414-25.156c6.719-6.725,15.65-10.426,25.15-10.426h336.979c6.547,0,11.861,5.314,11.861,11.861
		s-5.314,11.861-11.861,11.861H35.582c-6.547,0-11.861,5.319-11.861,11.861v371.831c0,3.167,1.234,6.15,3.475,8.391
		c2.236,2.236,5.213,3.469,8.374,3.469h0.006h371.837c6.541,0,11.861-5.32,11.861-11.861V139.457
		c0-6.547,5.314-11.861,11.861-11.861s11.861,5.314,11.861,11.861v336.961c0,19.623-15.953,35.582-35.57,35.582H35.582
		C35.576,511.999,35.57,511.999,35.564,511.999z"/>
	<path style="fill:#303442;" d="M154.188,369.672c-3.102,0-6.132-1.216-8.385-3.475c-3.048-3.048-4.199-7.502-3.019-11.641
		l22.001-77.094c0.878-3.179,2.277-6.28,4.127-9.133c1.281-2.117,3.066-4.359,5.106-6.357L426.248,10.389
		c13.877-13.841,36.448-13.853,50.325-0.012l25.038,25.038c13.853,13.883,13.853,36.454,0.012,50.325l-62.085,62.262
		L249.939,338.075c-1.892,1.939-4.128,3.718-6.565,5.201c-2.568,1.672-5.675,3.072-8.943,3.967l-76.987,21.972
		C156.371,369.523,155.274,369.672,154.188,369.672z M451.422,23.703c-3.048,0-6.09,1.156-8.415,3.469l-22.114,22.114
		c-0.006,0.006-0.012,0.012-0.018,0.018L190.678,278.861c-0.706,0.688-1.239,1.358-1.672,2.082c-0.723,1.121-1.121,2.01-1.382,2.941
		l-16.172,56.676l56.581-16.148c1.026-0.285,1.91-0.682,2.728-1.216c1.026-0.629,1.702-1.168,2.295-1.773L484.839,68.987
		c4.614-4.626,4.614-12.163-0.012-16.801L459.813,27.16C457.5,24.859,454.464,23.703,451.422,23.703z"/>
	<path style="fill:#303442;" d="M471.105,111.347c-3.036,0-6.067-1.156-8.385-3.475L404.122,49.28
		c-4.632-4.632-4.632-12.139,0-16.771c4.632-4.632,12.139-4.632,16.771,0l58.597,58.592c4.632,4.632,4.632,12.139,0,16.771
		C477.177,110.191,474.141,111.347,471.105,111.347z"/>
	<path style="fill:#303442;" d="M237.213,345.001c-6.547,0-11.861-5.314-11.861-11.861v-46.494h-46.494
		c-6.547,0-11.861-5.314-11.861-11.861c0-6.547,5.314-11.861,11.861-11.861h58.354c6.547,0,11.861,5.314,11.861,11.861v58.354
		C249.073,339.688,243.76,345.001,237.213,345.001z"/>
</g>
<g>
</g>
<g>
</g>
<g>
</g>
<g>
</g>
<g>
</g>
<g>
</g>
<g>
</g>
<g>
</g>
<g>
</g>
<g>
</g>
<g>
</g>
<g>
</g>
<g>
</g>
<g>
</g>
<g>
</g>
</svg>
