<svg id="Layer_1" enable-background="new 0 0 512 512" height="512" viewBox="0 0 512 512" width="512" xmlns="http://www.w3.org/2000/svg"><g><g clip-rule="evenodd" fill-rule="evenodd"><path d="m60.002 86h391.997v140h10.001c11.914 0 22.655 5.279 30 13.614v-153.614c0-21.999-18-40-40-40h-391.999c-22 0-40 18-40 40v153.613c7.344-8.334 18.085-13.613 29.999-13.613h10.002z" fill="#bb6b58"/><path d="m451.999 86h-391.997v140h107.124c-3.375-21 0-42 4.875-49.5 0 0-9.75-13.5-6-25.125 0 0 11.625-5.25 23.625 1.125 30.398-10.133 102.352-10.133 132.75 0 12-6.375 23.625-1.125 23.625-1.125 3.75 11.625-6 25.125-6 25.125 4.875 7.5 8.25 28.5 4.875 49.5h107.123z" fill="#ffbe90"/><path d="m322.375 152.5c-30.398-10.133-102.352-10.133-132.75 0-12-6.375-23.625-1.125-23.625-1.125-3.75 11.625 6 25.125 6 25.125-4.875 7.5-8.25 28.5-4.875 49.5h177.75c3.375-21 0-42-4.875-49.5 0 0 9.75-13.5 6-25.125 0-.001-11.625-5.251-23.625 1.125z" fill="#ff9eb1"/><path d="m344.875 226h-177.75-107.123-10.002c-11.914 0-22.655 5.279-30 13.613-6.217 7.055-10 16.301-10 26.387v20h492v-20c0-10.086-3.783-19.331-10-26.386-7.344-8.335-18.085-13.614-30-13.614h-10.002z" fill="#f8e3ee"/><path d="m502 286h-492v130h50.001 391.999 50z" fill="#bb6b58"/><g fill="#ffbe90"><path d="m50.001 456.001 10-40.001h-50.001v40.001c0 5.5 4.5 10 10 10h20c5.5-.001 8.667-4.665 10.001-10z"/><path d="m452 416 10 40.001c1.334 5.336 4.5 10 10 10h20c5.5 0 10-4.5 10-10v-40.001z"/></g></g><g><path d="m512 266c0-11.232-3.724-21.609-10-29.965v-150.035c0-27.57-22.43-50-50-50h-391.999c-27.57 0-50 22.43-50 50v150.033c-6.277 8.357-10.001 18.734-10.001 29.967v150 40c0 11.028 8.972 20 20 20h20c9.442 0 16.992-6.734 19.702-17.574l8.107-32.426h376.383l8.107 32.427c2.71 10.839 10.259 17.573 19.701 17.573h20c11.028 0 20-8.972 20-20v-40zm-492 140v-110h472v110zm442-170c16.542 0 30 13.458 30 30v10h-472v-10c0-16.542 13.458-30 30-30zm-281.615-54.05c2.252-3.464 2.142-7.956-.277-11.305-1.517-2.101-4.041-6.858-4.768-11.262 2.704-.196 6.147.117 9.595 1.947 2.417 1.284 5.258 1.52 7.854.656 28.357-9.453 98.067-9.453 126.425 0 2.597.864 5.436.629 7.854-.656 3.445-1.83 6.885-2.141 9.589-1.947-.724 4.354-3.211 9.069-4.762 11.262-2.419 3.349-2.529 7.841-.278 11.305 2.306 3.547 5.625 17.002 4.363 34.05h-159.951c-1.181-16.394 1.878-30.239 4.356-34.05zm-120.384-125.95h391.999c16.542 0 30 13.458 30 30v134.187c-6.129-2.686-12.891-4.187-20-4.187h-.001v-130c0-5.522-4.478-10-10-10h-261.995c-5.522 0-10 4.478-10 10s4.478 10 10 10h251.995v120h-85.991c.883-14.66-.855-29.223-4.645-38.974 3.418-6.44 7.727-17.648 4.155-28.722-.867-2.687-2.829-4.882-5.401-6.044-5.361-2.421-16.813-4.874-28.413-.423-32.833-9.264-98.57-9.264-131.405 0-11.603-4.449-23.053-1.996-28.413.423-2.573 1.162-4.535 3.357-5.402 6.045-3.574 11.083.747 22.301 4.166 28.739-3.752 9.749-5.494 24.399-4.645 38.955h-86.003v-119.999h30.002c5.522 0 10-4.478 10-10s-4.478-10-10-10h-40.002c-5.522 0-10 4.478-10 10v130h-.002c-7.109 0-13.87 1.501-19.999 4.187v-134.187c0-16.542 13.458-30 30-30zm-19.701 397.575c-.305 1.218-.685 2.005-.945 2.426h-19.355v-30.001h27.194zm432.346 2.425c-.261-.421-.641-1.208-.945-2.426l-6.894-27.574h27.193v30z"/><path d="m145.007 96c5.522 0 10-4.478 10-10s-4.478-10-10-10h-.008c-5.522 0-9.996 4.478-9.996 10s4.481 10 10.004 10z"/></g></g></svg>