<svg id="Layer_1" enable-background="new 0 0 512.019 512.019" height="512" viewBox="0 0 512.019 512.019" width="512" xmlns="http://www.w3.org/2000/svg"><g id="XMLID_2076_"><path id="XMLID_2181_" d="m349.971 120.01c13.255 0 24-10.745 24-24v-62c0-13.255-10.745-24-24-24-13.255 0-24 10.745-24 24v62c0 13.254 10.745 24 24 24z" fill="#e2e9ee"/><path id="XMLID_2180_" d="m438.019 120.01c-13.255 0-24-10.745-24-24v-62c0-13.255 10.745-24 24-24 13.255 0 24 10.745 24 24v62c0 13.254-10.745 24-24 24z" fill="#e2e9ee"/><path id="XMLID_2179_" d="m53.583 502.01h12.219c13.134 0 23.781-10.647 23.781-23.781v-229.817l7.56-190.972c.28-7.082-2.414-13.959-7.431-18.967l-23.13-23.086c-7.184-7.17-18.816-7.17-26 0l-23.132 23.089c-5.015 5.005-7.709 11.879-7.431 18.959l7.501 190.977v229.817c0 13.134 10.647 23.781 23.781 23.781z" fill="#80b6ff"/><path id="XMLID_2178_" d="m202.196 502.01h12.219c13.134 0 23.781-10.647 23.781-23.781v-229.817l7.56-190.972c.28-7.082-2.414-13.959-7.431-18.967l-23.13-23.086c-7.184-7.17-18.816-7.17-26 0l-23.133 23.089c-5.015 5.005-7.709 11.879-7.431 18.959l7.501 190.977v229.817c0 13.134 10.647 23.781 23.781 23.781z" fill="#80b6ff"/><path id="XMLID_2177_" d="m93.601 140.255-75.731 75.731-3.542-75.731 82.815-82.815z" fill="#ffcd69"/><path id="XMLID_2176_" d="m242.214 140.255-75.732 75.731-3.541-75.731 82.815-82.815z" fill="#ffcd69"/><path id="XMLID_2174_" d="m53.552 335.526c-19.9 0-36.031-16.132-36.031-36.031v-43.604c0-19.899 16.132-36.031 36.031-36.031 19.899 0 36.031 16.132 36.031 36.031v43.604c0 19.899-16.132 36.031-36.031 36.031z" fill="#fff3da"/><path id="XMLID_2173_" d="m202.164 335.526c-19.9 0-36.031-16.132-36.031-36.031v-43.604c0-19.899 16.132-36.031 36.031-36.031 19.899 0 36.031 16.132 36.031 36.031v43.604c.001 19.899-16.131 36.031-36.031 36.031z" fill="#fff3da"/><g id="XMLID_951_"><path id="XMLID_2054_" d="m96.777 31.394-23.129-23.084c-11.064-11.043-29.066-11.044-40.129-.001l-23.133 23.089c-6.97 6.956-10.745 16.589-10.359 26.43l7.494 190.78v229.62c0 18.627 15.154 33.781 33.781 33.781h24.5c18.627 0 33.781-15.154 33.781-33.781v-229.618l7.552-190.775c.004-.108.001-.216.004-.325 0-.037.001-.074.001-.111.264-9.691-3.493-19.146-10.363-26.005zm-17.194 236.299h-52.062v-11.803c0-14.354 11.678-26.031 26.031-26.031s26.031 11.678 26.031 26.031zm-52.062 20h52.062v11.802c0 14.354-11.678 26.031-26.031 26.031s-26.031-11.678-26.031-26.031zm26.031-77.834c-7.155 0-13.933 1.642-19.98 4.567l49.3-49.3-2.124 53.657c-7.625-5.604-17.029-8.924-27.196-8.924zm30.486-74.184-58.635 58.635-1.927-49.061 62.664-62.664zm-59.524-90.12 23.134-23.09c1.636-1.633 3.785-2.45 5.935-2.45s4.3.817 5.936 2.451l23.129 23.084c2.198 2.195 3.653 5.005 4.229 8.014l-64.47 64.47-2.396-60.989c-.167-4.28 1.474-8.467 4.503-11.49zm41.288 446.455h-24.5c-7.599 0-13.781-6.183-13.781-13.781v-140.798c7.41 5.101 16.376 8.095 26.031 8.095s18.622-2.994 26.031-8.095v140.797c0 7.599-6.182 13.782-13.781 13.782z"/><path id="XMLID_3508_" d="m245.389 31.394-23.129-23.084c-11.063-11.043-29.065-11.043-40.129-.001l-23.132 23.089c-6.97 6.957-10.746 16.59-10.359 26.43l7.493 190.779v50.888 178.733c0 18.627 15.154 33.781 33.781 33.781h24.5c18.627 0 33.781-15.154 33.781-33.781v-178.733-50.885l7.552-190.774c.004-.109.001-.218.004-.327 0-.037.001-.073.001-.109.265-9.691-3.492-19.148-10.363-26.006zm-17.194 236.299h-52.063v-11.803c0-14.354 11.678-26.031 26.031-26.031s26.031 11.678 26.031 26.031v11.803zm-52.062 20h52.063v11.802c0 14.354-11.678 26.031-26.031 26.031s-26.031-11.678-26.031-26.031v-11.802zm26.031-77.834c-7.155 0-13.933 1.642-19.979 4.566l49.299-49.299-2.124 53.656c-7.625-5.603-17.028-8.923-27.196-8.923zm30.487-74.183-58.635 58.635-1.927-49.061 62.664-62.664zm-59.524-90.121 23.133-23.09c1.637-1.633 3.786-2.45 5.936-2.45s4.299.817 5.936 2.451l23.128 23.084c2.198 2.195 3.653 5.004 4.229 8.013l-64.47 64.47-2.396-60.99c-.167-4.278 1.474-8.465 4.504-11.488zm41.287 446.455h-24.5c-7.599 0-13.781-6.183-13.781-13.781v-140.798c7.41 5.101 16.376 8.095 26.031 8.095s18.622-2.994 26.031-8.095v140.797c0 7.599-6.182 13.782-13.781 13.782z"/><path id="XMLID_3517_" d="m349.97.01c-15.551 0-28.687 10.498-32.718 24.776-23.426 4.139-41.282 24.628-41.282 49.224v24.592c0 5.522 4.478 10 10 10s10-4.478 10-10v-24.592c0-13.036 8.361-24.152 20-28.28v50.28c0 15.269 10.117 28.217 24 32.497v103.808c0 5.522 4.478 10 10 10s10-4.478 10-10v-103.808c13.883-4.28 24-17.228 24-32.497v-62c0-18.748-15.252-34-34-34zm14 96c0 7.72-6.28 14-14 14s-14-6.28-14-14v-62c0-7.72 6.28-14 14-14s14 6.28 14 14z"/><path id="XMLID_3518_" d="m373.97 452.01h-14v-129.692c0-5.522-4.478-10-10-10s-10 4.478-10 10v129.692h-14c-5.522 0-10 4.478-10 10s4.478 10 10 10h14v30c0 5.522 4.478 10 10 10s10-4.478 10-10v-30h14c5.522 0 10-4.478 10-10s-4.477-10-10-10z"/><path id="XMLID_3521_" d="m470.737 24.786c-4.031-14.278-17.167-24.776-32.718-24.776-18.748 0-34 15.252-34 34v62c0 15.269 10.117 28.217 24 32.497v323.503h-14c-5.522 0-10 4.478-10 10s4.478 10 10 10h14v30c0 5.522 4.478 10 10 10s10-4.478 10-10v-30h14c5.522 0 10-4.478 10-10s-4.478-10-10-10h-14v-323.503c13.883-4.28 24-17.228 24-32.497v-50.28c11.639 4.128 20 15.244 20 28.28v24.592c0 5.522 4.478 10 10 10s10-4.478 10-10v-24.592c0-24.596-17.855-45.085-41.282-49.224zm-18.718 71.224c0 7.72-6.28 14-14 14s-14-6.28-14-14v-62c0-7.72 6.28-14 14-14s14 6.28 14 14z"/><path id="XMLID_3522_" d="m349.599 287.329c2.63 0 5.21-1.069 7.07-2.93 1.859-1.87 2.93-4.439 2.93-7.08 0-2.62-1.07-5.2-2.93-7.069-1.86-1.86-4.431-2.921-7.07-2.921-2.63 0-5.21 1.061-7.07 2.921-1.859 1.869-2.93 4.439-2.93 7.069 0 2.641 1.07 5.22 2.93 7.08 1.87 1.861 4.44 2.93 7.07 2.93z"/></g></g></svg>